<svg xmlns="http://www.w3.org/2000/svg" viewBox="0 0 512 512">
  <path fill="#6979f8" d="M151.9 222H36.4c-6.8 0-12.4-6.1-12.4-13.2v-17.6c0-5.3 3-10 7.7-12 29.6-12.9 37.3-18.9 39.3-21V156c-4-4.9-6.4-11-8.3-17.8-5.6-6.1-6.7-15.5-2.7-23v-13.6c0-21.9 13.2-35.5 34.5-35.5 21.6 0 34.5 13.3 34.5 35.5v13.5c4 7.5 2.5 16.9-3.2 23.1-1.9 6.8-4.8 12.9-8.8 17.8v2.1c2 2.1 9.9 8.1 39.5 21h-.1c4.6 2 7.6 6.7 7.6 12v17.6c0 7.2-5.3 13.3-12.1 13.3zM40 206h108v-13.1c-36-15.8-44.7-23.4-46.7-30.5-.2-.7-.3-1.4-.3-2.1v-7.1c0-1.9.9-3.8 2.2-5.3 3.3-3.8 6.1-9.5 7.7-15.9.4-1.7 1.5-3.3 2.9-4.4 1.3-1 2-3.7.6-5.6-1-1.4-1.3-3-1.3-4.7v-15.8c0-17.4-10.5-19.5-18.5-19.5C82 82.1 76 88.5 76 101.6v15.8c0 1.7-.7 3.3-1.7 4.7-1.3 1.9-1 4.6.3 5.6 1.4 1.1 2.3 2.6 2.8 4.3 1.6 6.4 4.3 12.1 7.6 15.9 1.3 1.5 2 3.3 2 5.3v7.1c0 .7-.1 1.4-.3 2.1-2 7.1-10.6 14.7-46.7 30.5V206zM321.5 468H206c-6.8 0-12-5.4-12-12.6v-17.6c0-5.3 2.5-10 7.2-12 29.6-12.9 37.8-18.9 38.8-21v-2.1c-3-4.9-6.4-11-8.3-17.8-5.6-6.1-6.7-15.5-2.7-23v-13.6c0-21.9 13.2-35.5 34.5-35.5 21.6 0 34.5 13.3 34.5 35.5v13.5c4 7.6 3 16.9-2.7 23.1-1.9 6.8-4.3 12.9-8.3 17.8v2.1c2 2.1 9.7 8.1 39.3 21 4.6 2 7.7 6.7 7.7 12v17.6c0 7.2-5.7 12.6-12.5 12.6zM210 452h108v-12.5c-36-15.8-44.7-23.4-46.7-30.5-.2-.7-.3-1.4-.3-2.1v-7.1c0-1.9.7-3.8 1.9-5.3 3.3-3.8 6-9.5 7.6-15.9.4-1.7 1.4-3.3 2.8-4.4 1.3-1 1.6-3.7.3-5.6-1-1.4-1.6-3-1.6-4.7v-15.8c0-17.4-10.5-19.5-18.5-19.5-12.5 0-18.5 6.4-18.5 19.5V364c0 1.7-.5 3.3-1.4 4.7-1.3 1.9-.8 4.6.5 5.6 1.4 1.1 2.4 2.6 2.8 4.3 1.6 6.4 4.1 12.1 7.4 15.9 1.3 1.5 1.7 3.3 1.7 5.3v7.1c0 .7.4 1.4.2 2.1-2 7.1-10.2 14.7-46.2 30.5V452zM475.6 222H360.1c-6.8 0-12.1-6.1-12.1-13.2v-17.6c0-5.3 3-10 7.7-12 29.6-12.9 37.3-18.9 39.3-21V156c-4-4.9-6.9-11-8.8-17.8-5.6-6.1-7.2-15.5-3.2-23v-13.6c0-21.9 13.2-35.5 34.5-35.5 21.6 0 34.5 13.3 34.5 35.5v13.5c4 7.6 3 16.9-2.7 23.1-1.9 6.8-4.3 12.9-8.3 17.8v2.1c2 2.1 9.7 8.1 39.3 21 4.6 2 7.7 6.7 7.7 12v17.6c0 7.2-5.6 13.3-12.4 13.3zM364 206h108v-13.1c-36.1-15.8-44.7-23.4-46.7-30.5-.2-.7-.3-1.4-.3-2.1v-7.1c0-1.9.7-3.8 2-5.3 3.3-3.8 6.1-9.5 7.7-15.9.4-1.7 1.4-3.3 2.8-4.4 1.3-1 1.6-3.7.2-5.6-1-1.4-1.7-3-1.7-4.7v-15.8c0-17.4-10.5-19.5-18.5-19.5-12.5 0-18.5 6.4-18.5 19.5v15.8c0 1.7-.4 3.3-1.4 4.7-1.3 1.9-.8 4.6.5 5.6 1.4 1.1 2.4 2.6 2.8 4.3 1.6 6.4 4.5 12.1 7.8 15.9 1.3 1.5 2.2 3.3 2.2 5.3v7.1c0 .7-.1 1.4-.3 2.1-2 7.1-10.7 14.7-46.7 30.5V206z"/>
  <path fill="#6979f8" d="M342 82.2c-1.4 0-2.8-.4-4-1.1-24.1-14-51.7-21.5-79.7-21.5s-55.5 7.4-79.7 21.5c-3.8 2.2-8.7.9-10.9-2.9-2.2-3.8-.9-8.7 2.9-10.9 26.6-15.5 56.9-23.6 87.7-23.6 30.8 0 61.1 8.2 87.7 23.6 3.8 2.2 5.1 7.1 2.9 10.9-1.5 2.5-4.2 4-6.9 4zM350.2 380.6c-2.6 0-5.1-1.3-6.7-3.6-.9-1.4-1.3-2.9-1.3-4.4 0-2.6 1.3-5.1 3.6-6.7 39.3-26 64.9-67.6 70.1-114.1.5-4.4 4.5-7.5 8.9-7 4.1.5 7.1 3.9 7.1 7.9 0 .3 0 .6-.1.9-5.8 51.2-34 97-77.2 125.7-1.4.9-2.9 1.3-4.4 1.3zM166.4 380.6c-1.5 0-3.1-.4-4.4-1.3-43.2-28.7-71.4-74.5-77.2-125.7 0-.3-.1-.6-.1-.9 0-4 3-7.5 7.1-7.9 4.4-.5 8.4 2.7 8.9 7 5.3 46.5 30.9 88.1 70.1 114.1 2.3 1.5 3.6 4.1 3.6 6.7 0 1.5-.4 3.1-1.3 4.4-1.6 2.3-4.1 3.6-6.7 3.6z"/>
</svg>