<svg xmlns="http://www.w3.org/2000/svg" viewBox="0 0 256 256">
  <path opacity=".3" fill="#6979f8" d="M95.5 212.6V91.1H71.6v121.5c0 7.2 5.8 13 13 13h16.8c-3.7-3.2-5.9-7.8-5.9-13zM238.6 138.8h-6.5c-7.2 0-13 5.8-13 13v34.7h32.5v-34.7c.1-7.1-5.8-13-13-13z"/>
  <path fill="#9e9e9e" d="M238.6 134.5h-54.2V86.8H67.3v125.8c0 9.6 7.8 17.4 17.4 17.4h117.2c9.6 0 17.4-7.8 17.4-17.4v-21.7H256v-39.1c0-9.5-7.8-17.3-17.4-17.3zm-154 91.1c-7.2 0-13-5.8-13-13V91.1h23.9v121.5c0 5.2 2.3 9.8 5.9 13H84.6zm28.2 0c-7.2 0-13-5.8-13-13V91.1h80.3v121.5c0 5.2 2.3 9.8 5.9 13h-73.2zm102-73.7v60.7c0 7.2-5.8 13-13 13h-4.3c-7.2 0-13-5.8-13-13v-73.8h36.3c-3.7 3.2-6 7.9-6 13.1zm36.9 34.7h-32.5v-34.7c0-7.2 5.8-13 13-13h6.5c7.2 0 13 5.8 13 13v34.7z"/>
  <g fill="#9e9e9e" opacity=".5">
    <path d="M112.8 106.3H167v4.3h-54.2zM112.8 123.7h39.1v4.3h-39.1zM112.8 141H167v4.3h-54.2zM112.8 158.4H167v4.3h-54.2zM112.8 175.7h39.1v4.3h-39.1zM112.8 193.1h23.9v4.3h-23.9z"/>
  </g>
  <g fill="#9e9e9e">
    <path d="M97.6 28.2h10.9L91.1 52.1l6.5-17.4H86.8L102 13zM227.8 80.3h10.8l-17.3 23.8 6.5-17.3h-10.9l15.2-21.7zM10.8 186.6h10.9L4.3 210.4l6.5-17.3H0l15.2-21.7zM28.2 113.9h6.5L24.9 128l3.3-10.8h-6.5l9.8-13.1zM245.2 228.9h6.5l-9.8 14.1 3.3-10.9h-6.6l9.8-13zM203.9 49.9h6.5L200.7 64l3.2-10.8h-6.5l9.8-13.1z"/>
  </g>
</svg>