<?xml version="1.0"?>
<svg xmlns="http://www.w3.org/2000/svg" xmlns:xlink="http://www.w3.org/1999/xlink" xmlns:svgjs="http://svgjs.com/svgjs" version="1.1" width="512" height="512" x="0" y="0" viewBox="0 0 512 512" style="enable-background:new 0 0 512 512" xml:space="preserve" class=""><g><g xmlns="http://www.w3.org/2000/svg"><g><path d="m275.79 49.749-88.388 88.388c-9.763 9.763-25.592 9.763-35.355 0l-7.071-7.071c-9.763-9.763-9.763-25.592 0-35.355l88.388-88.388c9.763-9.763 25.592-9.763 35.355 0l7.071 7.071c9.763 9.763 9.763 25.592 0 35.355z" fill="#54769a" data-original="#000000" style="" class=""/><path d="m225.968 98.315h135v115h-135z" transform="matrix(.707 -.707 .707 .707 -24.223 253.15)" fill="#54769a" data-original="#000000" style="" class=""/><path d="m441.96 215.919-88.388 88.388c-9.763 9.763-25.592 9.763-35.355 0l-7.071-7.071c-9.763-9.763-9.763-25.592 0-35.355l88.388-88.388c9.763-9.763 25.592-9.763 35.355 0l7.071 7.071c9.763 9.763 9.763 25.592 0 35.355z" fill="#54769a" data-original="#000000" style="" class=""/><g><path d="m149.926 238.547-131.442 115.509c-11.413 10.032-17.964 23.912-18.455 39.095-.489 15.183 5.157 29.461 15.899 40.203s25.019 16.388 40.203 15.899c13.971-.45 26.842-6.035 36.621-15.814.848-.848 1.674-1.729 2.474-2.64l115.509-131.442z" fill="#54769a" data-original="#000000" style="" class=""/><path d="m172.507 218.702 58.073 58.073 21.499-24.463-55.108-55.108z" fill="#54769a" data-original="#000000" style="" class=""/></g></g><g><path d="m497 482h-15v-15c0-24.813-20.187-45-45-45h-100c-24.813 0-45 20.187-45 45v15h-15c-8.284 0-15 6.716-15 15s6.716 15 15 15h220c8.284 0 15-6.716 15-15s-6.716-15-15-15z" fill="#54769a" data-original="#000000" style="" class=""/><path d="m387 392c8.284 0 15-6.716 15-15v-30c0-8.284-6.716-15-15-15s-15 6.716-15 15v30c0 8.284 6.716 15 15 15z" fill="#54769a" data-original="#000000" style="" class=""/><path d="m442.257 401.23c1.573.524 3.173.773 4.745.773 6.28 0 12.133-3.976 14.229-10.261l10-30c2.619-7.859-1.628-16.354-9.487-18.974-7.856-2.618-16.353 1.629-18.974 9.487l-10 30c-2.62 7.861 1.627 16.355 9.487 18.975z" fill="#54769a" data-original="#000000" style="" class=""/><path d="m312.77 391.743c2.096 6.286 7.947 10.261 14.229 10.261 1.572 0 3.172-.249 4.745-.773 7.859-2.62 12.106-11.114 9.487-18.974l-10-30c-2.62-7.86-11.115-12.11-18.974-9.487-7.859 2.62-12.106 11.114-9.487 18.974z" fill="#54769a" data-original="#000000" style="" class=""/></g></g></g></svg>
