<svg xmlns="http://www.w3.org/2000/svg" viewBox="-73 165 464 464">
  <g fill="#e5e7fa">
    <circle cx="-33" cy="493" r="32"/>
    <circle cx="351" cy="301" r="32"/>
    <circle cx="95" cy="365" r="32"/>
    <circle cx="191" cy="461" r="32"/>
  </g>
  <g fill="#6979f8">
    <path d="M358.2 229.8c-3.2-18.4-20-32.8-39.2-32.8H-1c-22.4 0-40 17.6-40 40v184.8c-18.4 4-32 20-32 39.2s13.6 35.2 32 39.2V557c0 22.4 17.6 40 40 40h320c22.4 0 40-17.6 40-40V308.2c18.4-4 32-20 32-39.2s-14.4-36-32.8-39.2zM-1 213h320c11.2 0 20 7.2 23.2 16.8-17.6 4.8-31.2 20-31.2 39.2 0 8 2.4 16 6.4 22.4l-104 104c-6.4-4-14.4-6.4-22.4-6.4s-16 2.4-22.4 6.4l-40.8-40.8c4.8-5.6 7.2-13.6 7.2-21.6 0-22.4-17.6-40-40-40s-40 17.6-40 40c0 8 2.4 16 6.4 22.4l-72.8 72.8c-4-2.4-8.8-4.8-14.4-5.6V237c.8-13.6 11.2-24 24.8-24zm192 192c13.6 0 24 10.4 24 24s-10.4 24-24 24-24-10.4-24-24 10.4-24 24-24zM71 333c0-13.6 10.4-24 24-24s24 10.4 24 24-10.4 24-24 24-24-10.4-24-24zM-57 461c0-13.6 10.4-24 24-24s24 10.4 24 24-10.4 24-24 24-24-10.4-24-24zm384 118.4V365c0-4.8-3.2-8-8-8s-8 3.2-8 8v216h-48V429c0-4.8-3.2-8-8-8s-8 3.2-8 8v152h-16v-88c0-4.8-3.2-8-8-8s-8 3.2-8 8v88h-16v-88c0-4.8-3.2-8-8-8s-8 3.2-8 8v88h-48V461c0-4.8-3.2-8-8-8s-8 3.2-8 8v120h-16V397c0-4.8-3.2-8-8-8s-8 3.2-8 8v184H39V461c0-4.8-3.2-8-8-8s-8 3.2-8 8v120H-1c-13.6 0-24-10.4-24-24v-56.8c18.4-4 32-20 32-39.2 0-8-2.4-16-6.4-22.4l72.8-72.8C79 370.6 87 373 95 373s16-2.4 22.4-6.4l40.8 40.8C153.4 413 151 421 151 429c0 22.4 17.6 40 40 40s40-17.6 40-40c0-8-2.4-16-6.4-22.4l104.8-104.8c4 2.4 8.8 4.8 14.4 5.6V557c-.8 10.4-7.2 19.2-16.8 22.4zM351 293c-13.6 0-24-10.4-24-24s10.4-24 24-24 24 10.4 24 24-10.4 24-24 24z"/>
    <path d="M63 485c-4.8 0-8 3.2-8 8v64c0 4.8 3.2 8 8 8s8-3.2 8-8v-64c0-4.8-3.2-8-8-8zM63 421c-4.8 0-8 3.2-8 8v32c0 4.8 3.2 8 8 8s8-3.2 8-8v-32c0-4.8-3.2-8-8-8zM159 485c-4.8 0-8 3.2-8 8v64c0 4.8 3.2 8 8 8s8-3.2 8-8v-64c0-4.8-3.2-8-8-8zM287 389c-4.8 0-8 3.2-8 8v160c0 4.8 3.2 8 8 8s8-3.2 8-8V397c0-4.8-3.2-8-8-8zM-1 517c-4.8 0-8 3.2-8 8v32c0 4.8 3.2 8 8 8s8-3.2 8-8v-32c0-4.8-3.2-8-8-8z"/>
  </g>
</svg>