<svg xmlns="http://www.w3.org/2000/svg" viewBox="0 0 500 350">
  <path fill="#9e9e9e" d="M228 164h116v144H228z"/>
  <path fill="#e4f2fb" d="M232 168h108v136H232z"/>
  <path fill="#9e9e9e" d="M216 152h116v144H216z"/>
  <path fill="#fff" d="M220 156h108v136H220z"/>
  <g fill="#9e9e9e">
    <path d="M230 166v24h24v-24h-24zm20 20h-16v-16h16v16zM230 204h48v4h-48zM230 218h88v4h-88zM230 232h88v4h-88zM230 246h88v4h-88z"/>
    <path d="M292 222h4v24h-4zM304 222h4v24h-4zM240 222h4v24h-4zM290 260h28v4h-28z"/>
  </g>
  <path fill="#9e9e9e" d="M42 120h124v68H42z"/>
  <path fill="#e4f2fb" d="M46 124h116v60H46z"/>
  <path fill="#9e9e9e" d="M30 108h124v68H30z"/>
  <path fill="#fff" d="M34 112h116v60H34z"/>
  <g>
    <path fill="#9e9e9e" d="M92 118c-13.3 0-24 10.7-24 24s10.7 24 24 24 24-10.7 24-24-10.7-24-24-24zm0 44c-11 0-20-9-20-20s9-20 20-20 20 9 20 20-9 20-20 20z"/>
    <path fill="#9e9e9e" d="M90.2 155.8v-3c-2.1-.1-4.2-.7-5.4-1.4l1-3.7c1.3.7 3.2 1.4 5.3 1.4 1.8 0 3.1-.7 3.1-2 0-1.2-1-2-3.4-2.8-3.4-1.2-5.8-2.8-5.8-5.9 0-2.8 2-5 5.4-5.7v-3h3.1v2.8c2.1.1 3.6.5 4.6 1.1l-.9 3.6c-.8-.4-2.3-1.1-4.6-1.1-2.1 0-2.8.9-2.8 1.8 0 1.1 1.1 1.7 3.8 2.8 3.8 1.3 5.3 3.1 5.3 6 0 2.8-2 5.3-5.7 5.9v3.3h-3z"/>
  </g>
  <g>
    <path fill="#9e9e9e" d="M432 180c-18.8 0-34 15.2-34 34s15.2 34 34 34 34-15.2 34-34-15.2-34-34-34z"/>
    <path fill="#e4f2fb" d="M432 244c-16.5 0-30-13.5-30-30s13.5-30 30-30 30 13.5 30 30-13.5 30-30 30z"/>
    <path fill="#9e9e9e" d="M432 166c-18.8 0-34 15.2-34 34s15.2 34 34 34 34-15.2 34-34-15.2-34-34-34z"/>
    <path fill="#e4f2fb" d="M432 230c-16.5 0-30-13.5-30-30s13.5-30 30-30 30 13.5 30 30-13.5 30-30 30z"/>
    <g>
      <path fill="#9e9e9e" d="M432 152c-18.8 0-34 15.2-34 34s15.2 34 34 34 34-15.2 34-34-15.2-34-34-34z"/>
      <path fill="#fff" d="M432 216c-16.5 0-30-13.5-30-30s13.5-30 30-30 30 13.5 30 30-13.5 30-30 30z"/>
    </g>
    <g>
      <path fill="#9e9e9e" d="M438.9 197c-1.2.7-3.3 1.4-5.6 1.4-3.5 0-6.8-1.4-8.8-4.1-1-1.2-1.7-2.8-2-4.7h-2.3V187h2v-.6-1.1h-2v-2.6h2.4c.5-1.9 1.3-3.6 2.5-4.9 2.1-2.3 4.9-3.7 8.3-3.7 2.2 0 4.1.5 5.4 1.1l-1 4.1c-.9-.4-2.4-.9-4-.9-1.7 0-3.3.6-4.4 1.9-.5.6-.9 1.4-1.2 2.3h9v2.6h-9.5V186.9h9.5v2.6h-9c.3 1.1.6 1.9 1.2 2.5 1.2 1.3 2.8 1.8 4.6 1.8 1.7 0 3.3-.5 4.1-.9l.8 4.1z"/>
    </g>
  </g>
  <g fill="#9e9e9e">
    <path d="M94 224h56v4H94zM150 252h24v4h-24zM376 100h24v4h-24zM390 72h56v4h-56zM376 282h24v4h-24z"/>
  </g>
  <g>
    <path fill="#9e9e9e" d="M322.9 61.4l-54.4-13.2a8.1 8.1 0 00-9.7 5.9l-7.5 31.1a8.1 8.1 0 005.9 9.7l54.4 13.2c4.3 1 8.6-1.6 9.7-5.9l7.5-31.1c1-4.3-1.7-8.6-5.9-9.7z"/>
    <path fill="#e4f2fb" d="M258.1 91c-2.1-.5-3.5-2.7-2.9-4.8l7.5-31.1c.5-2.1 2.7-3.5 4.8-2.9l54.4 13.2c2.1.5 3.5 2.7 2.9 4.8l-7.5 31.1c-.5 2.1-2.7 3.5-4.8 2.9L258.1 91z"/>
    <path fill="#9e9e9e" d="M322 84l-62.6-15.3 2.3-9.8L325 74z"/>
    <g>
      <path fill="#9e9e9e" d="M311.2 52.5l-55.4-8.4c-4.4-.7-8.4 2.3-9.1 6.7l-4.8 31.6c-.7 4.4 2.3 8.4 6.7 9.1L304 100c4.4.7 8.4-2.3 9.1-6.7l4.8-31.6c.7-4.5-2.3-8.5-6.7-9.2z"/>
      <path fill="#e4f2fb" d="M249.2 87.6c-2.2-.3-3.7-2.4-3.4-4.6l4.8-31.6c.3-2.2 2.4-3.7 4.6-3.4l55.4 8.4c2.2.3 3.7 2.4 3.4 4.6l-4.8 31.6c-.3 2.2-2.4 3.7-4.6 3.4l-55.4-8.4z"/>
      <path fill="#9e9e9e" d="M313 75l-64.4-9.8 1.5-9.8L315 65z"/>
    </g>
    <g>
      <path fill="#9e9e9e" d="M298 44h-56c-4.4 0-8 3.6-8 8v32c0 4.4 3.6 8 8 8h56c4.4 0 8-3.6 8-8V52c0-4.4-3.6-8-8-8z"/>
      <path fill="#fff" d="M242 88c-2.2 0-4-1.8-4-4V52c0-2.2 1.8-4 4-4h56c2.2 0 4 1.8 4 4v32c0 2.2-1.8 4-4 4h-56z"/>
      <path fill="#9e9e9e" d="M238 56h64v10h-64z"/>
    </g>
  </g>
</svg>