<svg xmlns="http://www.w3.org/2000/svg" viewBox="0 0 512 512">
  <path fill="#6979f8" d="M421.9 485.2c-4.4 0-8-3.6-8-8V316.1c0-4.4 3.6-8 8-8s8 3.6 8 8v161.1c0 4.4-3.5 8-8 8zM421.9 123.4c-20.6 0-34.3-26.1-34.3-43.4 0-19.2 15.4-34.8 34.3-34.8s34.3 15.6 34.3 34.8c0 17.3-13.7 43.4-34.3 43.4zm0-62.2c-10.1 0-18.3 8.4-18.3 18.8 0 11.3 9.4 27.4 18.3 27.4 8.8 0 18.3-16.1 18.3-27.4 0-10.3-8.2-18.8-18.3-18.8z"/>
  <path fill="#6979f8" d="M387.9 485.2c-4.2 0-7.7-3.3-8-7.6l-10.2-190.5c0-.1.2-.3.2-.4v-94l-92.8-8.6c-8.9-.8-15.5-7.8-15.9-16.8-.3-9.1 5.6-16.4 14.4-17.9C292.8 146.5 385 131.2 389 131c7.8-.5 15.1 4 18.9 11.6 2.7 5.4 9 7.4 14 7.4s11.3-2 14.1-7.4c3.8-7.6 11.1-12 18.9-11.5 1.1.1 3.1.1 5.3.2 9.7.4 11.8.6 13.4 1 1.1.3 2.1.9 3 1.6 3.8 3.2 15.1 12.9 10.1 150.7-.1 2.6-1.2 4.9-3.1 6.6-2.9 2.5-6.4 2.7-9.6 2.4l-10 184c-.2 4.4-4 7.8-8.4 7.6-4.4-.2-7.8-4-7.6-8.4l10.4-190.4c.1-2.6 1.3-4.9 3.2-6.6 2.8-2.5 6.3-2.7 9.5-2.5 3.2-96.2-2-122.9-4.4-129.7-2.3-.1-5.2-.2-7.1-.3-2.4-.1-4.5-.2-5.7-.3-1.6-.1-2.9 1.5-3.6 2.8-5 9.9-15.9 16.2-28.3 16.2-12.5 0-23.3-6.3-28.3-16.2-.7-1.4-2-2.9-3.5-2.8-5.4.6-84.8 13.6-111.8 18.2-.4.1-1.2.2-1.1 1.6.1 1.4.8 1.5 1.2 1.5l100.1 9.3c4.1.4 7.5 3.8 7.5 8v101l10.2 190.2c.2 4.4-3.2 8.2-7.7 8.4h-.7zM310.3 472H273v-51.5c0-4.4-3.6-8-8-8s-8 3.6-8 8V472h-54.4c-4.4 0-8 3.6-8 8s3.6 8 8 8h59.7c.8.3 1.8.5 2.7.5 1 0 1.9-.2 2.7-.5h42.6c4.4 0 8-3.6 8-8s-3.6-8-8-8z"/>
  <path fill="#6979f8" d="M342.4 53H335V31.5c0-4.4-3.6-8-8-8s-8 3.6-8 8V53H211V31.5c0-4.4-3.6-8-8-8s-8 3.6-8 8V53H32c-4.4 0-8 3.4-8 7.9v327.7c0 4.4 3.6 8.4 8 8.4h294.9c4.4 0 8-3.6 8-8s-3.6-8-8-8H40V69h302.4c4.4 0 8-3.6 8-8s-3.6-8-8-8z"/>
  <path fill="#6979f8" d="M180 186c0 4.4-3.6 8-8 8H94c-4.4 0-8-3.6-8-8v-78c0-4.4 3.6-8 8-8h78c4.4 0 8 3.6 8 8v78zm-78-9h61v-61h-61v61z"/>
  <path fill="#6979f8" d="M311.9 131h-93.2c-4.4 0-8-3.6-8-8s3.6-8 8-8h93.2c4.4 0 8 3.6 8 8s-3.6 8-8 8zM233.1 162h-14.4c-4.4 0-8-3.6-8-8s3.6-8 8-8h14.4c4.4 0 8 3.6 8 8s-3.6 8-8 8z"/>
  <path fill="#6979f8" d="M180 326c0 4.4-3.6 8-8 8H94c-4.4 0-8-3.6-8-8v-78c0-4.4 3.6-8 8-8h78c4.4 0 8 3.6 8 8v78zm-78-9h61v-61h-61v61z"/>
  <path fill="#6979f8" d="M311.9 271h-93.2c-4.4 0-8-3.6-8-8s3.6-8 8-8h93.2c4.4 0 8 3.6 8 8s-3.6 8-8 8zM265.3 302h-46.6c-4.4 0-8-3.6-8-8s3.6-8 8-8h46.6c4.4 0 8 3.6 8 8s-3.6 8-8 8z"/>
</svg>