<svg xmlns="http://www.w3.org/2000/svg" viewBox="-73 165 464 464">
  <path fill="#e5e7fa" d="M191 221l-32 32-32-32-160 160h88.8c17.6-16 43.2-32 71.2-32s54.4 16 71.2 32H351L191 221z"/>
  <path fill="#6979f8" d="M295 477c0-13.6-10.4-24-24-24s-24 10.4-24 24 10.4 24 24 24 24-10.4 24-24zm-24 8c-4.8 0-8-3.2-8-8s3.2-8 8-8 8 3.2 8 8-3.2 8-8 8z"/>
  <path fill="#6979f8" d="M351 277h-60.8l-93.6-93.6c-3.2-3.2-8-3.2-11.2 0L159 209.8l-26.4-26.4c-3.2-3.2-8-3.2-11.2 0L27.8 277H-33c-22.4 0-40 17.6-40 40v256c0 22.4 17.6 40 40 40h384c22.4 0 40-17.6 40-40V317c0-22.4-17.6-40-40-40zm0 16c13.6 0 24 10.4 24 24 0 12-8.8 22.4-20.8 24l-48-48H351zm-160-92.8l90.4 90.4 50.4 50.4h-41.6l-120-120 20.8-20.8zm-64 0l26.4 26.4L267.8 341h-66.4C187 328.2 159 309 127 309c-32.8 0-60 19.2-74.4 32h-66.4l50.4-50.4 90.4-90.4zM175 341H79c12.8-8 29.6-16 48-16s35.2 8 48 16zm-208-48h44.8l-48 48c-12-1.6-20.8-12-20.8-24 0-13.6 10.4-24 24-24zm384 304H-33c-13.6 0-24-10.4-24-24V349c6.4 4.8 15.2 8 24 8h384c8.8 0 17.6-3.2 24-8v152H258.2l-24-24 24-24H351c4.8 0 8-3.2 8-8s-3.2-8-8-8h-96c-2.4 0-4 .8-5.6 2.4l-32 32c-3.2 3.2-3.2 8 0 11.2l32 32c1.6 1.6 3.2 2.4 5.6 2.4h120v56c0 13.6-10.4 24-24 24z"/>
  <path fill="#6979f8" d="M121.4 439.4l-64 64c-3.2 3.2-3.2 8 0 11.2 1.6 1.6 4 2.4 5.6 2.4s4-.8 5.6-2.4l64-64c3.2-3.2 3.2-8 0-11.2s-8-3.2-11.2 0zM63 485c2.4 0 4-.8 5.6-2.4l32-32c3.2-3.2 3.2-8 0-11.2s-8-3.2-11.2 0l-32 32c-3.2 3.2-3.2 8 0 11.2 1.6 1.6 3.2 2.4 5.6 2.4zm58.4-13.6l-32 32c-3.2 3.2-3.2 8 0 11.2 1.6 1.6 4 2.4 5.6 2.4s4-.8 5.6-2.4l32-32c3.2-3.2 3.2-8 0-11.2s-8-3.2-11.2 0zM-1 565c-7.2 0-13.6-2.4-17.6-6.4C-25 552.2-25 541-25 541c0-4-3.2-8-8-8-4 0-8 3.2-8 8 0 .8 0 17.6 11.2 29.6C-22.6 577-13 581-1 581c4.8 0 8-3.2 8-8s-3.2-8-8-8z"/>
</svg>