<svg xmlns="http://www.w3.org/2000/svg" viewBox="0 0 452 224">
  <path fill="#9e9e9e" d="M158.1 83.4H93.9c-3.9 0-7.1 3.2-7.1 7.1v82.1c0 3.9 3.2 7.1 7.1 7.1h64.3c3.9 0 7.1-3.2 7.1-7.1v-82c0-4-3.2-7.2-7.2-7.2zm3.6 89.3c0 2-1.6 3.6-3.6 3.6H93.9c-2 0-3.6-1.6-3.6-3.6V90.6c0-2 1.6-3.6 3.6-3.6h64.3c2 0 3.6 1.6 3.6 3.6v82.1z"/>
  <path fill="#fff" d="M161.7 90.6c0-2-1.6-3.6-3.6-3.6H93.9c-2 0-3.6 1.6-3.6 3.6v69.6h71.4V90.6z"/>
  <path opacity=".3" fill="#6774b7" d="M93.9 176.3h64.3c2 0 3.6-1.6 3.6-3.6v-12.5H90.3v12.5c0 2 1.6 3.6 3.6 3.6z"/>
  <path fill="#9e9e9e" d="M101 99.5h50v3.6h-50zM101 112h32.1v3.6H101z"/>
  <g>
    <path fill="#9e9e9e" d="M254.6 65.6h-64.3c-3.9 0-7.1 3.2-7.1 7.1v82.1c0 3.9 3.2 7.1 7.1 7.1h64.3c3.9 0 7.1-3.2 7.1-7.1V72.7c0-3.9-3.2-7.1-7.1-7.1zm3.5 89.3c0 2-1.6 3.6-3.6 3.6h-64.3c-2 0-3.6-1.6-3.6-3.6V72.7c0-2 1.6-3.6 3.6-3.6h64.3c2 0 3.6 1.6 3.6 3.6v82.2z"/>
    <path fill="#fff" d="M258.1 72.7c0-2-1.6-3.6-3.6-3.6h-64.3c-2 0-3.6 1.6-3.6 3.6v69.6H258V72.7z"/>
    <path opacity=".3" fill="#6774b7" d="M190.3 158.4h64.3c2 0 3.6-1.6 3.6-3.6v-12.5h-71.4v12.5c-.1 2 1.5 3.6 3.5 3.6z"/>
    <path fill="#9e9e9e" d="M197.4 81.6h50v3.6h-50zM197.4 94.1h32.1v3.6h-32.1z"/>
  </g>
  <g>
    <path fill="#9e9e9e" d="M351 47.7h-64.3c-3.9 0-7.1 3.2-7.1 7.1V137c0 3.9 3.2 7.1 7.1 7.1H351c3.9 0 7.1-3.2 7.1-7.1V54.9c0-4-3.2-7.2-7.1-7.2zm3.6 89.3c0 2-1.6 3.6-3.6 3.6h-64.3c-2 0-3.6-1.6-3.6-3.6V54.9c0-2 1.6-3.6 3.6-3.6H351c2 0 3.6 1.6 3.6 3.6V137z"/>
    <path fill="#fff" d="M354.6 54.9c0-2-1.6-3.6-3.6-3.6h-64.3c-2 0-3.6 1.6-3.6 3.6v69.6h71.4V54.9z"/>
    <path opacity=".3" fill="#6774b7" d="M286.7 140.6H351c2 0 3.6-1.6 3.6-3.6v-12.5h-71.4V137c-.1 2 1.5 3.6 3.5 3.6z"/>
    <path fill="#9e9e9e" d="M293.9 63.8h50v3.6h-50zM293.9 76.3H326v3.6h-32.1z"/>
  </g>
  <g fill="#9e9e9e">
    <path d="M327.8 174.5h39.3v3.6h-39.3zM238.5 208.4h21.4v3.6h-21.4zM38.5 172.7h21.4v3.6H38.5zM24.2 83.4h39.3V87H24.2zM118.9 12h21.4v3.6h-21.4zM192.1 29.9h39.3v3.6h-39.3zM388.5 92.4h39.3V96h-39.3z"/>
  </g>
</svg>