<svg xmlns="http://www.w3.org/2000/svg" viewBox="-73 165 464 464">
  <path fill="#e5e7fa" d="M287 317v-32c0-8.8-7.2-16-16-16h-48c0-35.2-28.8-64-64-64s-64 28.8-64 64H47c-8.8 0-16 7.2-16 16v32c0 8.8 7.2 16 16 16h224c8.8 0 16-7.2 16-16zm-160-48c0-17.6 14.4-32 32-32s32 14.4 32 32h-64z"/>
  <g fill="#6979f8">
    <path d="M271 229h-40.8c-4-36-34.4-64-71.2-64s-67.2 28-71.2 64H47c-13.6 0-24 10.4-24 24v8.8c-18.4 4-32 20-32 39.2v288c0 22.4 17.6 40 40 40h256c22.4 0 40-17.6 40-40V301c0-19.2-13.6-35.2-32-39.2V253c0-13.6-10.4-24-24-24zM39 253c0-4.8 3.2-8 8-8h48c4.8 0 8-3.2 8-8 0-31.2 24.8-56 56-56s56 24.8 56 56c0 4.8 3.2 8 8 8h48c4.8 0 8 3.2 8 8v32c0 4.8-3.2 8-8 8H47c-4.8 0-8-3.2-8-8v-32zm272 48v288c0 13.6-10.4 24-24 24H31c-13.6 0-24-10.4-24-24V301c0-10.4 6.4-19.2 16-22.4v6.4c0 13.6 10.4 24 24 24h224c13.6 0 24-10.4 24-24v-6.4c9.6 3.2 16 12 16 22.4z"/>
    <path d="M127 245h32c4.8 0 8-3.2 8-8s-3.2-8-8-8h-22.4c3.2-9.6 12-16 22.4-16 13.6 0 24 10.4 24 24 0 4.8 3.2 8 8 8s8-3.2 8-8c0-22.4-17.6-40-40-40s-40 17.6-40 40c0 4.8 3.2 8 8 8zM95 373h128c4.8 0 8-3.2 8-8s-3.2-8-8-8H95c-4.8 0-8 3.2-8 8s3.2 8 8 8zM255 421H63c-4.8 0-8 3.2-8 8s3.2 8 8 8h192c4.8 0 8-3.2 8-8s-3.2-8-8-8zM63 469h64c4.8 0 8-3.2 8-8s-3.2-8-8-8H63c-4.8 0-8 3.2-8 8s3.2 8 8 8zM255 453h-96c-4.8 0-8 3.2-8 8s3.2 8 8 8h96c4.8 0 8-3.2 8-8s-3.2-8-8-8zM63 501h128c4.8 0 8-3.2 8-8s-3.2-8-8-8H63c-4.8 0-8 3.2-8 8s3.2 8 8 8zM255 485h-32c-4.8 0-8 3.2-8 8s3.2 8 8 8h32c4.8 0 8-3.2 8-8s-3.2-8-8-8zM63 533h96c4.8 0 8-3.2 8-8s-3.2-8-8-8H63c-4.8 0-8 3.2-8 8s3.2 8 8 8zM255 517h-64c-4.8 0-8 3.2-8 8s3.2 8 8 8h64c4.8 0 8-3.2 8-8s-3.2-8-8-8zM95 549H63c-4.8 0-8 3.2-8 8s3.2 8 8 8h32c4.8 0 8-3.2 8-8s-3.2-8-8-8zM255 549H127c-4.8 0-8 3.2-8 8s3.2 8 8 8h128c4.8 0 8-3.2 8-8s-3.2-8-8-8z"/>
  </g>
</svg>