<svg xmlns="http://www.w3.org/2000/svg" viewBox="0 0 383.1 256">
  <path fill="#9e9e9e" d="M178 49.5c-52.2 0-94.6 42.3-94.6 94.6 0 52.2 42.3 94.6 94.6 94.6 52.2 0 94.6-42.3 94.6-94.6S230.2 49.5 178 49.5zm0 185.7c-50.3 0-91.2-40.9-91.2-91.2 0-50.3 40.9-91.2 91.2-91.2 50.3 0 91.2 40.9 91.2 91.2 0 50.3-40.9 91.2-91.2 91.2z"/>
  <path fill="#6774b7" d="M178 52.8c-50.3 0-91.2 40.9-91.2 91.2 0 50.3 40.9 91.2 91.2 91.2 50.3 0 91.2-40.9 91.2-91.2 0-50.2-40.9-91.2-91.2-91.2z" opacity=".3"/>
  <path fill="#fff" d="M137.5 132.2c-13 0-23.6 10.6-23.6 23.6s10.6 23.6 23.6 23.6 23.6-10.6 23.6-23.6-10.6-23.6-23.6-23.6z"/>
  <path fill="#9e9e9e" d="M137.5 128.8c-14.9 0-27 12.1-27 27s12.1 27 27 27 27-12.1 27-27-12.1-27-27-27zm0 50.7c-13 0-23.6-10.6-23.6-23.6s10.6-23.6 23.6-23.6 23.6 10.6 23.6 23.6-10.6 23.6-23.6 23.6z"/>
  <path fill="#9e9e9e" d="M129 152.5c-1.9 0-3.4-1.5-3.4-3.4s1.5-3.4 3.4-3.4 3.4 1.5 3.4 3.4-1.5 3.4-3.4 3.4zM145.9 152.5c-1.9 0-3.4-1.5-3.4-3.4s1.5-3.4 3.4-3.4 3.4 1.5 3.4 3.4-1.5 3.4-3.4 3.4z"/>
  <path fill="#9e9e9e" d="M137.1 169.4c-5.3 0-9.9-3.6-11.3-8.4h-3.5c1.5 6.8 7.6 11.8 14.8 11.8s13.3-5.1 14.8-11.8h-3.5c-1.4 4.8-6 8.4-11.3 8.4z"/>
  <g>
    <path fill="#fff" d="M205 157.6c-13 0-23.6 10.6-23.6 23.6 0 13 10.6 23.6 23.6 23.6 13 0 23.6-10.6 23.6-23.6.1-13-10.5-23.6-23.6-23.6z"/>
    <path fill="#9e9e9e" d="M205 154.2c-14.9 0-27 12.1-27 27s12.1 27 27 27 27-12.1 27-27c.1-14.9-12-27-27-27zm0 50.6c-13 0-23.6-10.6-23.6-23.6 0-13 10.6-23.6 23.6-23.6 13 0 23.6 10.6 23.6 23.6.1 13-10.5 23.6-23.6 23.6z"/>
    <path fill="#9e9e9e" d="M196.6 177.8c-1.9 0-3.4-1.5-3.4-3.4s1.5-3.4 3.4-3.4 3.4 1.5 3.4 3.4-1.5 3.4-3.4 3.4zM213.5 177.8c-1.9 0-3.4-1.5-3.4-3.4s1.5-3.4 3.4-3.4 3.4 1.5 3.4 3.4-1.6 3.4-3.4 3.4z"/>
    <path fill="#9e9e9e" d="M204.6 194.7c-5.3 0-9.9-3.6-11.3-8.4h-3.5c1.5 6.8 7.6 11.8 14.8 11.8 7.2 0 13.3-5.1 14.8-11.8H216c-1.5 4.8-6 8.4-11.4 8.4z"/>
  </g>
  <g>
    <path fill="#fff" d="M188.1 83.2c-13 0-23.6 10.6-23.6 23.6s10.6 23.6 23.6 23.6 23.6-10.6 23.6-23.6-10.5-23.6-23.6-23.6z"/>
    <path fill="#9e9e9e" d="M188.1 79.9c-14.9 0-27 12.1-27 27s12.1 27 27 27 27-12.1 27-27c.1-14.9-12-27-27-27zm0 50.6c-13 0-23.6-10.6-23.6-23.6s10.6-23.6 23.6-23.6 23.6 10.6 23.6 23.6-10.5 23.6-23.6 23.6z"/>
    <path fill="#9e9e9e" d="M179.7 103.5c-1.9 0-3.4-1.5-3.4-3.4s1.5-3.4 3.4-3.4 3.4 1.5 3.4 3.4-1.5 3.4-3.4 3.4zM196.6 103.5c-1.9 0-3.4-1.5-3.4-3.4s1.5-3.4 3.4-3.4 3.4 1.5 3.4 3.4-1.5 3.4-3.4 3.4z"/>
    <path fill="#9e9e9e" d="M187.8 120.4c-5.3 0-9.9-3.6-11.3-8.4H173c1.5 6.8 7.6 11.8 14.8 11.8 7.2 0 13.3-5.1 14.8-11.8h-3.5c-1.5 4.8-6 8.4-11.3 8.4z"/>
  </g>
  <path fill="#9d9d9d" d="M28.5 86.6V117h105.6V86.6H28.5zm102.2 27H31.9V90h98.8v23.6z"/>
  <path fill="#fff" d="M31.9 90h98.8v23.6H31.9z"/>
  <path fill="#9d9d9d" d="M46.3 100.1h47.3v3.4H46.3z"/>
  <g>
    <path fill="#fff" d="M48 191.3c-13 0-23.6 10.6-23.6 23.6 0 13 10.6 23.6 23.6 23.6S71.6 228 71.6 215c0-13.1-10.6-23.7-23.6-23.7z"/>
    <path fill="#9e9e9e" d="M48 188c-14.9 0-27 12.1-27 27s12.1 27 27 27 27-12.1 27-27-12.1-27-27-27zm0 50.6c-13 0-23.6-10.6-23.6-23.6 0-13 10.6-23.6 23.6-23.6S71.6 202 71.6 215c0 13-10.6 23.6-23.6 23.6z"/>
    <path fill="#9e9e9e" d="M39.5 211.6c-1.9 0-3.4-1.5-3.4-3.4s1.5-3.4 3.4-3.4 3.4 1.5 3.4 3.4-1.5 3.4-3.4 3.4zM56.4 211.6c-1.9 0-3.4-1.5-3.4-3.4s1.5-3.4 3.4-3.4 3.4 1.5 3.4 3.4-1.5 3.4-3.4 3.4z"/>
    <path fill="#9e9e9e" d="M47.6 228.5c-5.3 0-9.9-3.6-11.3-8.4h-3.5c1.5 6.8 7.6 11.8 14.8 11.8s13.3-5.1 14.8-11.8h-3.5c-1.5 4.8-6 8.4-11.3 8.4z"/>
    <g>
      <path fill="#fff" d="M335.1 152.5c-13 0-23.6 10.6-23.6 23.6s10.6 23.6 23.6 23.6 23.6-10.6 23.6-23.6-10.6-23.6-23.6-23.6z"/>
      <path fill="#9d9d9d" d="M335.1 149.1c-14.9 0-27 12.1-27 27s12.1 27 27 27 27-12.1 27-27-12.1-27-27-27zm0 50.7c-13 0-23.6-10.6-23.6-23.6s10.6-23.6 23.6-23.6 23.6 10.6 23.6 23.6-10.6 23.6-23.6 23.6z"/>
      <path fill="#9e9e9e" d="M326.6 172.8c-1.9 0-3.4-1.5-3.4-3.4s1.5-3.4 3.4-3.4 3.4 1.5 3.4 3.4c0 1.8-1.5 3.4-3.4 3.4zM343.5 172.8c-1.9 0-3.4-1.5-3.4-3.4s1.5-3.4 3.4-3.4 3.4 1.5 3.4 3.4c0 1.8-1.5 3.4-3.4 3.4z"/>
      <path fill="#9e9e9e" d="M334.7 189.6c-5.3 0-9.9-3.6-11.3-8.4h-3.5c1.5 6.8 7.6 11.8 14.8 11.8s13.3-5.1 14.8-11.8H346c-1.4 4.9-6 8.4-11.3 8.4z"/>
    </g>
    <g>
      <path fill="#fff" d="M267.5 17.4c-13 0-23.6 10.6-23.6 23.6s10.6 23.6 23.6 23.6c13 0 23.6-10.6 23.6-23.6s-10.5-23.6-23.6-23.6z"/>
      <path fill="#9e9e9e" d="M267.5 14c-14.9 0-27 12.1-27 27s12.1 27 27 27 27-12.1 27-27-12.1-27-27-27zm0 50.7c-13 0-23.6-10.6-23.6-23.6s10.6-23.6 23.6-23.6c13 0 23.6 10.6 23.6 23.6s-10.5 23.6-23.6 23.6z"/>
      <path fill="#9e9e9e" d="M259.1 37.6c-1.9 0-3.4-1.5-3.4-3.4s1.5-3.4 3.4-3.4 3.4 1.5 3.4 3.4-1.6 3.4-3.4 3.4zM276 37.6c-1.9 0-3.4-1.5-3.4-3.4s1.5-3.4 3.4-3.4 3.4 1.5 3.4 3.4c-.1 1.9-1.6 3.4-3.4 3.4z"/>
      <path fill="#9e9e9e" d="M267.1 54.5c-5.3 0-9.9-3.6-11.3-8.4h-3.5c1.5 6.8 7.6 11.8 14.8 11.8s13.3-5.1 14.8-11.8h-3.5c-1.4 4.9-5.9 8.4-11.3 8.4z"/>
    </g>
  </g>
</svg>