<svg xmlns="http://www.w3.org/2000/svg" viewBox="0 0 512 512">
  <path fill="#455a64" d="M408.183 189.987c-5.407 0-10.619-2.966-13.235-8.117-26.776-52.719-80.019-85.468-138.949-85.468s-112.171 32.749-138.949 85.466c-3.709 7.303-12.638 10.213-19.939 6.506-7.303-3.709-10.217-12.638-6.508-19.941C122.466 105.708 185.841 66.74 255.999 66.74s133.534 38.967 165.396 101.696c3.709 7.303.796 16.23-6.508 19.94a14.781 14.781 0 01-6.704 1.611z"/>
  <path fill="#e5e7fa" d="M423.652 476.549l-34.167-5.495 24.648-153.264 34.167 5.495c26.417 4.249 44.39 29.109 40.141 55.526l-9.262 57.595c-4.25 26.42-29.11 44.392-55.527 40.143z"/>
  <path fill="#455a64" d="M491.888 334.047c-9.903-13.698-24.547-22.72-41.235-25.403l-19.524-3.14 1.845-11.47c1.301-8.087-4.202-15.697-12.288-16.998l-79.072-12.716a14.836 14.836 0 00-16.998 12.288l-33.047 205.49c-1.301 8.087 4.202 15.697 12.288 16.998l79.072 12.716a14.829 14.829 0 0011.043-2.624 14.839 14.839 0 005.955-9.664l1.845-11.47 19.524 3.14c3.341.537 6.741.81 10.104.81 31.208 0 57.457-22.391 62.418-53.239l9.264-57.597c2.685-16.689-1.291-33.423-11.194-47.121zM323.21 472.164l28.336-176.205 49.787 8.006-9.815 61.038L374.842 468.7v.004l-1.844 11.466-49.788-8.006zm150.587-95.706l-9.264 57.597c-2.636 16.39-16.569 28.286-33.133 28.286-1.792 0-3.607-.147-5.396-.433l-19.524-3.14 7.201-44.78 12.737-79.198 19.524 3.14c8.866 1.425 16.645 6.219 21.906 13.496 5.262 7.276 7.374 16.166 5.949 25.032z"/>
  <path fill="#e5e7fa" d="M88.347 476.549l34.167-5.495-24.647-153.262-34.167 5.495c-26.417 4.249-44.39 29.109-40.142 55.526l9.262 57.595c4.25 26.418 29.11 44.39 55.527 40.141z"/>
  <path fill="#455a64" d="M255.999 0C116.974 0 3.869 113.105 3.869 252.13c0 29.029 4.888 57.389 14.511 84.438-8.627 13.204-11.985 28.921-9.464 44.6l9.264 57.595c4.961 30.847 31.211 53.238 62.417 53.239h.003c3.362 0 6.762-.273 10.104-.81l19.524-3.14 1.845 11.47a14.83 14.83 0 0016.998 12.288l79.072-12.716c8.087-1.301 13.588-8.911 12.288-16.998l-18.736-116.503c-1.301-8.087-8.905-13.593-16.998-12.288-8.087 1.301-13.588 8.911-12.288 16.998l16.381 101.86-49.787 8.006-1.844-11.466v-.004l-16.676-103.697-9.815-61.038 49.787-8.006 2.415 15.02c1.301 8.086 8.905 13.591 16.998 12.288 8.087-1.301 13.588-8.911 12.288-16.998l-4.77-29.662a14.825 14.825 0 00-5.955-9.664 14.818 14.818 0 00-11.043-2.624l-79.072 12.716c-8.087 1.301-13.588 8.911-12.288 16.998l1.845 11.47-19.524 3.14a63.334 63.334 0 00-18.858 6.17c-5.943-20.252-8.957-41.257-8.957-62.682 0-122.669 99.799-222.467 222.467-222.467s222.467 99.799 222.467 222.467c0 8.191 6.64 14.831 14.831 14.831s14.831-6.64 14.831-14.831C508.128 113.105 395.024 0 255.999 0zM66.056 337.93l19.524-3.14 12.737 79.198 7.201 44.78-19.524 3.14a34.07 34.07 0 01-5.396.433c-16.563-.001-30.497-11.898-33.133-28.287l-9.264-57.595c-1.425-8.866.687-17.756 5.947-25.034s13.042-12.07 21.908-13.495z"/>
</svg>