<svg xmlns="http://www.w3.org/2000/svg" viewBox="0 0 511.999 511.999">
  <path fill="#e5e7fa" d="M202.102 461.566c-16.44-16.44-16.44-43.093 0-59.534l140.035-140.035 59.534 59.534-140.036 140.035c-16.44 16.439-43.093 16.439-59.533 0z"/>
  <path fill="#455a64" d="M231.869 488.825c-15.232 0-29.553-5.932-40.324-16.703-10.771-10.771-16.703-25.091-16.703-40.324s5.932-29.553 16.703-40.324L331.58 251.44a14.933 14.933 0 0121.116 0l59.532 59.534c5.83 5.831 5.83 15.285 0 21.115L272.193 472.124c-10.771 10.771-25.091 16.701-40.324 16.701zm110.269-205.712L212.661 412.59c-5.132 5.13-7.957 11.952-7.957 19.208s2.826 14.078 7.957 19.208c5.13 5.132 11.952 7.957 19.208 7.957 7.256 0 14.078-2.826 19.21-7.957L380.555 321.53l-38.417-38.417z"/>
  <path fill="#e5e7fa" d="M491.441 231.76l-58.045 58.045-59.534-59.534 58.045-58.045c-34.611-12.315-74.745-4.632-102.451 23.074-38.359 38.359-38.359 100.552 0 138.91s100.552 38.359 138.91 0c27.707-27.705 35.39-67.839 23.075-102.45z"/>
  <g fill="#455a64">
    <path d="M398.912 377.91c-30.226 0-58.641-11.77-80.014-33.142-21.373-21.372-33.142-49.788-33.142-80.013 0-30.224 11.77-58.641 33.142-80.013 21.367-21.366 49.778-33.133 79.998-33.133 13.009 0 25.799 2.205 38.017 6.552a14.931 14.931 0 015.552 24.625l-47.487 47.487 38.415 38.417 47.487-47.487a14.935 14.935 0 0124.627 5.553c14.575 40.966 4.14 87.289-26.583 118.013-21.371 21.371-49.786 33.141-80.012 33.141zm-.015-196.44c-22.244 0-43.156 8.661-58.883 24.388-15.733 15.731-24.397 36.648-24.397 58.896s8.664 43.166 24.397 58.898c15.731 15.733 36.649 24.397 58.898 24.397 22.247 0 43.165-8.664 58.896-24.397 16.404-16.404 24.952-38.853 24.312-61.46l-38.168 38.171a14.933 14.933 0 01-21.116 0l-59.532-59.534c-5.831-5.83-5.831-15.285 0-21.115l38.203-38.202a83.888 83.888 0 00-2.61-.042zM142.756 309.905h-27.747a23.867 23.867 0 01-16.987-7.035 23.86 23.86 0 01-7.035-16.99v-6.377a131.747 131.747 0 01-25.862-10.707l-4.508 4.508c-4.536 4.537-10.57 7.035-16.987 7.035a23.871 23.871 0 01-16.987-7.035l-19.618-19.62c-9.366-9.366-9.366-24.607 0-33.975l4.514-4.514a133.154 133.154 0 01-10.268-24.448 14.934 14.934 0 013.715-14.944l47.837-47.837a14.933 14.933 0 0117.58-2.619 14.93 14.93 0 017.63 16.052c-3.337 17.006 1.971 34.463 14.202 46.695 9.789 9.789 22.805 15.18 36.649 15.18 13.844 0 26.861-5.391 36.649-15.18 20.209-20.209 20.209-53.092 0-73.3-12.231-12.231-29.688-17.544-46.693-14.202-6.44 1.265-12.963-1.832-16.052-7.63s-2.026-12.935 2.619-17.58l47.837-47.837c5.83-5.83 15.285-5.83 21.117 0 5.83 5.83 5.83 15.285 0 21.117l-23.962 23.961a81.599 81.599 0 0136.254 21.054c15.43 15.43 23.927 35.944 23.927 57.766s-8.497 42.335-23.927 57.766c-15.43 15.429-35.944 23.927-57.766 23.927s-42.335-8.497-57.766-23.927a81.604 81.604 0 01-21.054-36.254l-17.311 17.311a102.556 102.556 0 0010.004 18.89 14.93 14.93 0 01-1.835 18.884l-8.652 8.654 11.364 11.362 8.652-8.652a14.93 14.93 0 0118.884-1.835c11.427 7.677 24.086 12.92 37.626 15.579a14.932 14.932 0 0112.052 14.65v12.243h16.07V267.8c0-7.137 5.05-13.275 12.052-14.652 13.539-2.659 26.199-7.901 37.627-15.579a14.928 14.928 0 0118.883 1.835l8.654 8.652 11.364-11.364-8.654-8.652a14.93 14.93 0 01-1.835-18.884c7.677-11.427 12.92-24.086 15.579-37.626a14.93 14.93 0 0114.652-12.052h12.243V143.41H245.24a14.933 14.933 0 01-14.652-12.054c-2.659-13.539-7.901-26.198-15.579-37.627a14.93 14.93 0 011.835-18.884l12.782-12.781c5.83-5.829 15.286-5.83 21.115 0 5.83 5.83 5.83 15.285 0 21.115l-4.508 4.508a131.974 131.974 0 0110.707 25.86h6.378c13.247 0 24.024 10.777 24.024 24.024v27.746c0 13.247-10.777 24.024-24.024 24.024h-6.378a131.73 131.73 0 01-10.707 25.86l4.508 4.508c9.365 9.368 9.365 24.607 0 33.974l-19.621 19.622a23.867 23.867 0 01-16.987 7.035 23.866 23.866 0 01-16.988-7.037l-4.506-4.506a131.826 131.826 0 01-25.86 10.707v6.378c.001 13.247-10.776 24.023-24.023 24.023z"/>
  </g>
</svg>