<svg xmlns="http://www.w3.org/2000/svg" viewBox="128 -128 512 512">
  <path fill="#e5e7fa" d="M189.7-30.4h85.4v-82.8z"/>
  <path fill="#455a64" d="M578.3 240.4c-8.2 0-14.8 6.6-14.8 14.8v92.7c0 3.6-3.2 6.6-7.2 6.6H211.7c-4 0-7.2-2.9-7.2-6.6V-15.6h70.6c8.2 0 14.8-6.6 14.8-14.8v-82.8-1.2-.2c0-.4-.1-.7-.1-1.1 0-.1-.1-.3-.1-.4-.1-.3-.1-.6-.2-.8 0-.2-.1-.3-.1-.5-.1-.3-.2-.7-.3-1-.1-.2-.1-.3-.2-.5-.1-.3-.2-.5-.4-.8-.1-.2-.2-.3-.3-.5-.1-.2-.3-.5-.4-.7-.1-.1-.2-.3-.3-.4-.2-.3-.5-.7-.7-1-.1-.1-.1-.2-.2-.2-.2-.3-.5-.5-.7-.8 0-.1-.1-.1-.1-.2l-.1-.1c-.3-.3-.6-.6-.9-.8l-.1-.1c-.3-.3-.7-.5-1-.8-.1-.1-.3-.2-.4-.3-.2-.2-.5-.3-.7-.4-.1-.1-.3-.2-.4-.2-.3-.2-.6-.3-.9-.4-.1-.1-.3-.1-.4-.2-.3-.1-.7-.3-1-.4-.1 0-.3-.1-.4-.1-.3-.1-.6-.2-.9-.2-.1 0-.3-.1-.4-.1-.4-.1-.8-.1-1.2-.2h-.1c-.4 0-.9-.1-1.3-.1H273.9c-.4 0-.7.1-1.1.1h-.2l-1.2.3c-.1 0-.3.1-.4.1-.3.1-.6.2-.8.3-.2.1-.3.1-.5.2-.3.1-.6.2-.9.4-.1.1-.2.1-.3.2-.4.2-.7.4-1.1.6-.1.1-.2.2-.4.2-.3.2-.5.4-.8.6l-.3.3c-.3.3-.7.6-1 .9L179.4-41c-.3.3-.6.7-.9 1-.1.1-.1.2-.2.2-.2.3-.5.6-.7.9-.1.1-.1.2-.2.2-.5.8-.9 1.5-1.3 2.4 0 .1-.1.2-.1.3-.1.3-.3.7-.4 1 0 .1-.1.2-.1.3-.1.4-.2.9-.3 1.3v.1c-.1.4-.1.8-.2 1.2v.3c0 .4-.1.8-.1 1.2v378.3c0 19.9 16.5 36.1 36.8 36.1h344.6c20.3 0 36.8-16.2 36.8-36.1V255c0-8-6.6-14.6-14.8-14.6zm-318-285.6h-34.2l34.2-33.1v33.1z"/>
  <path fill="#455a64" d="M556.3-128H343.7c-8.2 0-14.8 6.6-14.8 14.8s6.6 14.8 14.8 14.8h209.6c5.7 0 10.3 4.6 10.3 10.3v43H343.7c-8.2 0-14.8 6.6-14.8 14.8 0 8.2 6.6 14.8 14.8 14.8h219.9v192.8c0 8.2 6.6 14.8 14.8 14.8 8.2 0 14.8-6.6 14.8-14.8V-91.9c-.1-19.9-16.6-36.1-36.9-36.1z"/>
  <path fill="#e5e7fa" d="M263.6 44.8h240.9v68H263.6z"/>
  <g fill="#455a64">
    <path d="M504.4 127.5H263.6c-8.2 0-14.8-6.6-14.8-14.8v-68c0-8.2 6.6-14.8 14.8-14.8h240.9c8.2 0 14.8 6.6 14.8 14.8v68c-.1 8.2-6.7 14.8-14.9 14.8zM278.3 97.9h211.3V59.5H278.3v38.4zM350.2 258.5h-86.5c-8.2 0-14.8-6.6-14.8-14.8 0-8.2 6.6-14.8 14.8-14.8h86.5c8.2 0 14.8 6.6 14.8 14.8 0 8.2-6.6 14.8-14.8 14.8zM371.1 190.6H263.7c-8.2 0-14.8-6.6-14.8-14.8s6.6-14.8 14.8-14.8h107.4c8.2 0 14.8 6.6 14.8 14.8s-6.7 14.8-14.8 14.8z"/>
  </g>
  <circle cx="460.5" cy="240.3" r="43.8" fill="#e5e7fa"/>
  <path fill="#455a64" d="M460.5 298.9c-32.3 0-58.6-26.3-58.6-58.6s26.3-58.6 58.6-58.6 58.6 26.3 58.6 58.6-26.3 58.6-58.6 58.6zm0-87.6c-16 0-29.1 13-29.1 29.1 0 16 13 29.1 29.1 29.1s29.1-13 29.1-29.1c-.1-16.1-13.1-29.1-29.1-29.1z"/>
</svg>