<svg xmlns="http://www.w3.org/2000/svg" viewBox="0 0 512 512">
  <path fill="#e5e7fa" d="M337.748 14.342h-3.825v106.607h118.144z"/>
  <g fill="#455a64">
    <path d="M454.638 204.371c-7.92 0-14.342 6.421-14.342 14.342v264.604H71.703V28.684h247.878v92.265c0 7.921 6.422 14.342 14.342 14.342h118.144a14.342 14.342 0 009.783-24.832L347.531 3.852c-.11-.103-.231-.192-.344-.291a14.049 14.049 0 00-.508-.43 13.295 13.295 0 00-.545-.407 15.346 15.346 0 00-.572-.399c-.176-.115-.359-.221-.539-.328-.215-.128-.43-.254-.653-.369-.171-.089-.344-.168-.518-.25-.241-.113-.48-.227-.729-.327-.168-.067-.341-.126-.512-.188-.257-.093-.513-.186-.777-.265-.184-.054-.37-.096-.555-.142-.255-.065-.509-.133-.769-.185-.235-.046-.475-.075-.713-.109-.217-.032-.429-.07-.648-.092a14.8 14.8 0 00-1.401-.07H57.362C49.441 0 43.02 6.421 43.02 14.342v483.316c0 7.921 6.421 14.342 14.342 14.342h397.277c7.92 0 14.342-6.421 14.342-14.342V218.713c-.001-7.921-6.423-14.342-14.343-14.342zm-106.373-97.764V43.76l67.394 62.847h-67.394z"/>
    <path d="M201.9 185.738l-27.597-90.019c-1.656-5.271-8.102-8.677-16.42-8.677s-14.762 3.406-16.423 8.69l-27.469 90.092c-.165.66-.334 1.344-.334 1.959 0 6.64 9.589 10.877 16.19 10.877 4.763 0 7.925-1.889 8.909-5.337l4.728-17.388h28.943l4.734 17.405c.98 3.431 4.142 5.318 8.905 5.318 6.602 0 16.189-4.238 16.189-10.877.003-.619-.169-1.306-.355-2.043zm-52.91-30.377l8.895-32.653 8.895 32.653h-17.79zM281.451 114.017h-54.483c-7.921 0-14.342-6.421-14.342-14.342s6.421-14.342 14.342-14.342h54.483c7.92 0 14.342 6.421 14.342 14.342s-6.421 14.342-14.342 14.342zM396.907 189.79H226.968c-7.921 0-14.342-6.421-14.342-14.342s6.421-14.342 14.342-14.342h169.939c7.92 0 14.342 6.421 14.342 14.342s-6.421 14.342-14.342 14.342zM396.907 265.563H115.093c-7.921 0-14.342-6.421-14.342-14.342s6.421-14.342 14.342-14.342h281.814c7.92 0 14.342 6.421 14.342 14.342s-6.421 14.342-14.342 14.342z"/>
  </g>
  <path fill="#e5e7fa" d="M245.962 326.993H396.91v93.203H245.962z"/>
  <g fill="#455a64">
    <path d="M396.907 434.538H245.961c-7.921 0-14.342-6.421-14.342-14.342v-93.203c0-7.921 6.421-14.342 14.342-14.342h150.946c7.92 0 14.342 6.421 14.342 14.342v93.203c0 7.922-6.421 14.342-14.342 14.342zm-136.604-28.683h122.263v-64.52H260.303v64.52zM187.638 434.538h-72.545c-7.921 0-14.342-6.421-14.342-14.342v-93.203c0-7.921 6.421-14.342 14.342-14.342s14.342 6.421 14.342 14.342v78.861h43.862v-78.861c0-7.921 6.421-14.342 14.342-14.342s14.342 6.421 14.342 14.342v93.203c-.001 7.922-6.423 14.342-14.343 14.342z"/>
  </g>
</svg>