<svg xmlns="http://www.w3.org/2000/svg" viewBox="0 0 512 512">
  <path fill="#e5e7fa" d="M222.881 217.756l66.238 38.243-66.238 38.245z"/>
  <path fill="#455a64" d="M222.879 308.706a14.46 14.46 0 01-14.462-14.463v-76.487a14.462 14.462 0 0121.694-12.525l66.24 38.243a14.462 14.462 0 010 25.05l-66.24 38.243a14.438 14.438 0 01-7.232 1.939zm14.463-65.9v26.386l22.851-13.193-22.851-13.193z"/>
  <g fill="#e5e7fa">
    <path d="M135.228 342.785h241.531v154.753H135.228zM135.228 14.463h241.531v154.753H135.228z"/>
  </g>
  <g fill="#455a64">
    <path d="M458.325 0H53.673C45.685 0 39.21 6.475 39.21 14.463v295.539c0 7.988 6.475 14.463 14.463 14.463s14.463-6.475 14.463-14.463V147.164h52.632v22.052c0 7.988 6.475 14.463 14.463 14.463h227.075v89.67c0 7.988 6.475 14.463 14.463 14.463s14.463-6.475 14.463-14.463V147.164h67.095c7.988 0 14.463-6.475 14.463-14.463V14.463C472.788 6.475 466.313 0 458.325 0zM68.136 118.239V28.926h52.632v89.313H68.136zm81.558 36.514V28.926h212.612v125.826H149.694zM391.232 28.926h52.632v89.313h-52.632V28.926z"/>
    <path d="M458.325 187.652c-7.988 0-14.463 6.475-14.463 14.463v162.721H391.23v-22.052c0-7.988-6.475-14.463-14.463-14.463H149.694v-85.823c0-7.988-6.475-14.463-14.463-14.463s-14.463 6.475-14.463 14.463v122.338H53.673c-7.988 0-14.463 6.475-14.463 14.463v118.239c0 7.988 6.475 14.463 14.463 14.463h404.654c7.988 0 14.463-6.475 14.463-14.463V202.115c-.002-7.988-6.477-14.463-14.465-14.463zM68.136 393.761h52.632v89.313H68.136v-89.313zm81.558 89.313V357.247h212.612v125.826l-212.612.001zm241.538 0v-89.313h52.632v89.313h-52.632z"/>
  </g>
</svg>