<svg xmlns="http://www.w3.org/2000/svg" viewBox="0 0 512 512">
  <path fill="#be52f2" d="M433.7 24H78.3C48.4 24 24 48.4 24 78.3v355.3c0 30 24.4 54.3 54.3 54.3h355.3c30 0 54.3-24.4 54.3-54.3V78.3C488 48.4 463.6 24 433.7 24zM78.3 40h355.3c21.1 0 38.3 17.2 38.3 38.3V132H40V78.3C40 57.2 57.2 40 78.3 40zm355.4 432H78.3C57.2 472 40 454.8 40 433.7V148h432v285.7c0 21.1-17.2 38.3-38.3 38.3z"/>
  <path fill="#be52f2" d="M170.3 101.8c-2.1 0-4.2-.9-5.7-2.4s-2.3-3.5-2.3-5.6c0-2.1.9-4.2 2.3-5.7 1.5-1.5 3.5-2.3 5.7-2.3 2.1 0 4.2.9 5.7 2.3 1.5 1.5 2.3 3.6 2.3 5.7s-.9 4.2-2.3 5.6c-1.5 1.5-3.6 2.4-5.7 2.4zM341 101.8c-2.1 0-4.2-.9-5.7-2.4s-2.3-3.5-2.3-5.6c0-2.1.9-4.2 2.3-5.7 1.5-1.5 3.5-2.3 5.7-2.3 2.1 0 4.2.9 5.7 2.3 1.5 1.5 2.3 3.6 2.3 5.7s-.9 4.2-2.3 5.6c-1.6 1.5-3.6 2.4-5.7 2.4z"/>
  <path fill="#be52f2" d="M341 407.6c-4.4 0-8-3.6-8-8V238.9l-29.2 10.8c-4.1 1.5-8.7-.6-10.3-4.7-1.5-4.1.6-8.7 4.7-10.3l40-14.7c2.5-.9 5.2-.6 7.3.9 2.1 1.5 3.4 3.9 3.4 6.6v172.2c.1 4.3-3.5 7.9-7.9 7.9zM204.8 409.8c-26.8 0-54.5-13.2-64.9-32.5-2.1-3.9-.7-8.7 3.2-10.8 3.9-2.1 8.7-.7 10.8 3.2 8.9 16.5 38.4 27.6 61.9 23.1 11.8-2.2 26.4-9.2 29-30 1.5-12.1-.9-21.3-7.4-28.2-15.4-16.2-48.6-13.9-48.9-13.9-3.2.2-6.2-1.4-7.7-4.3-1.5-2.8-1.1-6.3.9-8.8l54.2-66.5h-83c-4.4 0-8-3.6-8-8s3.6-8 8-8h99.8c3.1 0 5.9 1.8 7.2 4.6s.9 6.1-1 8.5l-54.5 66.9c13.6 1.3 32.3 5.6 44.5 18.4 9.9 10.4 13.9 24.3 11.7 41.2-2.9 23.3-18.2 39.3-41.9 43.7-4.5 1-9.2 1.4-13.9 1.4z"/>
</svg>