<svg xmlns="http://www.w3.org/2000/svg" viewBox="0 0 512 512">
  <path fill="#be52f2" d="M478.8 458H333c-4.4 0-8-3.6-8-8s3.6-8 8-8h137.9l1-274.4H421c-4.4 0-8-3.6-8-8s3.6-8 8-8h59c2.1 0 4.2.8 5.7 2.4 1.5 1.5 2.3 3.5 2.3 5.7L486.8 450c0 4.4-3.6 8-8 8zM362.5 108.3c-.3 0-.7 0-1.1-.1-4.4-.6-7.5-4.6-6.9-9l2.9-22L97.1 56.4l-2.5 44.4c-.3 4.4-4 7.8-8.4 7.5-4.4-.3-7.8-4-7.5-8.4l3-52.5c.1-2.1 1.1-4.2 2.7-5.6 1.6-1.4 3.7-2.1 5.9-1.9L367.1 62c2.2.2 4.2 1.2 5.6 2.9 1.4 1.7 2 3.9 1.7 6.1l-4 30.4c-.5 4-4 6.9-7.9 6.9z"/>
  <path fill="#be52f2" d="M332.3 472.2h-.7L54.8 449.8c-2.2-.2-4.2-1.2-5.6-2.9-1.4-1.7-2-3.9-1.7-6l6.2-49.6c.5-4.4 4.5-7.5 8.9-6.9 4.4.5 7.5 4.5 6.9 8.9l-5.2 41.3 260.7 21 5.2-64c.4-4.4 4.2-7.7 8.6-7.3 4.4.4 7.7 4.2 7.3 8.6l-5.9 72c-.3 4.1-3.8 7.3-7.9 7.3z"/>
  <path fill="#be52f2" d="M421 400H32c-4.4 0-8-3.6-8-8V100c0-4.4 3.6-8 8-8h389c4.4 0 8 3.6 8 8v292c0 4.4-3.6 8-8 8zM40 384h373V108H40v276z"/>
  <path fill="#be52f2" d="M159.8 319.6c-21.4 0-41.8-9.2-56-25.2-14.2-16-20.9-37.4-18.3-58.6 4.6-37.5 36.4-65.7 74.1-65.7 5.8 0 13.1 0 17.7 5.1 1.7 1.9 3.5 5.2 2.9 10.1l-4.9 40.2c37.9-16.7 38.6-16.7 41.6-16.7 3.6 0 7.1 1.6 9.7 4.6 8.9 10 7.9 35.8 7.3 40.5-4.5 37.4-36.4 65.7-74.1 65.7zm-.2-133.6c-29.6 0-54.7 22.2-58.2 51.7-2 16.7 3.2 33.5 14.4 46.1 11.2 12.6 27.2 19.8 44 19.8 29.6 0 54.6-22.2 58.2-51.7 1-8.1-.4-21.3-2.5-26.4-6.9 2.8-26.3 11.2-46.6 20.2-2.6 1.2-5.7.8-8-.9-2.3-1.7-3.5-4.5-3.2-7.4L164 186h-4.4zm57.3 38.8v-8 8zM362 303h-77c-4.4 0-8-3.6-8-8s3.6-8 8-8h77c4.4 0 8 3.6 8 8s-3.6 8-8 8zM362 245h-77c-4.4 0-8-3.6-8-8s3.6-8 8-8h77c4.4 0 8 3.6 8 8s-3.6 8-8 8zM362 186h-77c-4.4 0-8-3.6-8-8s3.6-8 8-8h77c4.4 0 8 3.6 8 8s-3.6 8-8 8z"/>
</svg>