<svg xmlns="http://www.w3.org/2000/svg" viewBox="0 0 512 512">
  <path fill="#be52f2" d="M485.5 136h-459c-5.8 0-10.5 4.7-10.5 10.5v331c0 5.8 4.7 10.5 10.5 10.5h459c5.8 0 10.5-4.7 10.5-10.5v-331c0-5.8-4.7-10.5-10.5-10.5zM32 472V264h184c4.4 0 8-3.6 8-8s-3.6-8-8-8H32v-96h448v96H296c-4.4 0-8 3.6-8 8s3.6 8 8 8h184v208H32z"/>
  <path fill="#be52f2" d="M296 296h-80c-4.4 0-8-3.6-8-8v-64c0-4.4 3.6-8 8-8h80c4.4 0 8 3.6 8 8v64c0 4.4-3.6 8-8 8zm-72-16h64v-48h-64v48z"/>
  <path fill="#be52f2" d="M344 104c-4.4 0-8-3.6-8-8 0-30.9-25.1-56-56-56h-48c-30.9 0-56 25.1-56 56 0 4.4-3.6 8-8 8s-8-3.6-8-8c0-39.7 32.3-72 72-72h48c39.7 0 72 32.3 72 72 0 4.4-3.6 8-8 8z"/>
</svg>