<?xml version="1.0"?>
<svg height="512pt" viewBox="-48 0 512 512" width="512pt" xmlns="http://www.w3.org/2000/svg" style="fill:#3544ee"><path d="m119.234375 391.765625v-55.109375h-47.09375v55.109375h15.03125v-16.03125h17.03125v16.03125zm-32.0625-31.0625v-9.015625h17.03125v9.015625zm0 0"/><path d="m72.140625 136.265625h16.03125v15.03125h-16.03125zm0 0"/><path d="m104.203125 136.265625h16.03125v15.03125h-16.03125zm0 0"/><path d="m136.265625 136.265625h16.03125v15.03125h-16.03125zm0 0"/><path d="m104.203125 200.390625h144.28125v15.03125h-144.28125zm0 0"/><path d="m72.140625 200.390625h16.03125v15.03125h-16.03125zm0 0"/><path d="m104.203125 232.453125h144.28125v15.03125h-144.28125zm0 0"/><path d="m72.140625 232.453125h16.03125v15.03125h-16.03125zm0 0"/><path d="m104.203125 264.515625h144.28125v15.03125h-144.28125zm0 0"/><path d="m72.140625 264.515625h16.03125v15.03125h-16.03125zm0 0"/><path d="m104.203125 296.578125h144.28125v15.03125h-144.28125zm0 0"/><path d="m72.140625 296.578125h16.03125v15.03125h-16.03125zm0 0"/><path d="m104.203125 168.328125h144.28125v15.03125h-144.28125zm0 0"/><path d="m72.140625 168.328125h16.03125v15.03125h-16.03125zm0 0"/><path d="m247.484375 47.09375c0-8.566406-6.464844-15.03125-15.03125-15.03125h-17.03125v-32.0625h-111.21875v32.0625h-16.03125c-8.5625 0-16.03125 6.464844-16.03125 15.03125v33.0625h-40.078125v351.6875h187.472656l68.027344-69.027344v-18.144531h-79.15625v72.140625h-161.3125v-321.625h25.046875v16.03125h175.34375v-16.03125h25.046875v232.453125h15.03125v-247.484375h-40.078125v-17.03125h57.109375v385.75h-289.5625v-385.75h41.078125v-15.03125h-56.109375v415.8125h319.625v-415.8125h-72.140625zm-24.046875 312.609375h46.984375l-46.984375 45.984375zm-104.203125-344.671875h81.15625v17.03125h-81.15625zm113.21875 81.15625h-145.28125v-49.09375c0-.277344.722656 0 1 0h144.28125c.277344 0 0-.277344 0 0zm0 0"/><path d="m383.75 287.5625h32.0625v-79.15625h-16.03125v-17.03125h-15.03125v17.03125h-40.078125v103.203125h15.03125v-88.171875h9.015625v259.613281l16.03125 16.03125v12.917969h15.03125v-12.917969l16.03125-16.03125v-179.457031h-15.03125v129.25h-17.03125zm17.03125-64.125v49.09375h-17.03125v-49.09375zm0 224.4375v28.949219l-8.515625 8.519531-8.515625-8.519531v-28.949219zm0 0"/></svg>