<?xml version="1.0"?>
<svg height="495pt" viewBox="0 0 495.98629 495" width="495pt" xmlns="http://www.w3.org/2000/svg" style="fill:#3544ee"><path d="m186.675781 29.011719c-23.699219-21.214844-55.59375-31.359375-87.441406-27.832031-51.800781 5.746093-93.289063 47.554687-98.632813 99.433593-3.40625 33.03125 7.761719 65.617188 30.632813 89.390625 13.457031 13.992188 21.742187 31.625 24.03125 50.472656h-15.28125v16h16v24c0 4.417969 3.585937 8 8 8h8.808594c3.191406 15.648438 15.546875 28 31.191406 31.191407v16.808593h16v-16.808593c15.648437-3.191407 28-15.542969 31.195313-31.191407h8.804687c4.417969 0 8-3.582031 8-8v-24h16v-16h-15.335937c2.273437-18.511718 10.875-36.4375 24.882812-51.304687 19.640625-20.839844 30.453125-48.078125 30.453125-76.695313 0-31.808593-13.597656-62.230468-37.308594-83.464843zm-74.691406 275.464843c-10.414063 0-19.214844-6.710937-22.527344-16h45.050781c-3.304687 9.289063-12.105468 16-22.523437 16zm40-32h-80v-16h80zm29.90625-94.277343c-16.855469 17.878906-27.089844 39.6875-29.398437 62.277343h-32.507813v-48h16v-16h-16v-16.71875c22.664063-3.824218 40-23.535156 40-47.28125 0-26.472656-21.527344-48-48-48-26.46875 0-48 21.527344-48 48 0 23.738282 17.339844 43.449219 40 47.28125v16.71875h-16v16h16v48h-32.566406c-2.351563-23.015624-12.304688-44.566406-28.65625-61.558593-19.597657-20.375-29.167969-48.320313-26.246094-76.664063 4.582031-44.441406 40.109375-80.257812 84.480469-85.160156 27.757812-3.070312 54.390625 5.382812 75 23.839844 20.328125 18.199218 31.988281 44.28125 31.988281 71.542968 0 24.519532-9.269531 47.863282-26.09375 65.722657zm-69.90625-33.722657c-17.644531 0-32-14.351562-32-32 0-17.648437 14.355469-32 32-32 17.648437 0 32 14.351563 32 32 0 17.648438-14.351563 32-32 32zm0 0"/><path d="m407.984375 275.164062v-7.375l13.65625-13.65625c1.503906-1.496093 2.34375-3.535156 2.34375-5.65625v-48c0-3.230468-1.949219-6.152343-4.933594-7.390624-3-1.242188-6.433593-.558594-8.71875 1.734374l-26.347656 26.34375-26.34375-26.34375c-2.292969-2.292968-5.726563-2.976562-8.71875-1.734374-2.984375 1.238281-4.9375 4.160156-4.9375 7.390624v48c0 2.121094.84375 4.160157 2.347656 5.65625l13.652344 13.65625v7.375c-50.605469 11.128907-88 56.882813-88 109.3125 0 61.761719 50.242187 112 112 112 61.761719 0 112-50.238281 112-112 0-52.429687-37.390625-98.183593-88-109.3125zm-32 8.625 2.347656 2.34375c1.558594 1.5625 3.605469 2.34375 5.652344 2.34375 2.050781 0 4.097656-.78125 5.65625-2.34375l2.34375-2.34375v92.6875c0 4.410157-3.589844 8-8 8-4.40625 0-8-3.589843-8-8zm8 116.6875c13.234375 0 24-10.765624 24-24v-51.328124c23.730469 9.625 40 32.992187 40 59.328124 0 35.289063-28.710937 64-64 64-35.285156 0-64-28.710937-64-64 0-26.621093 16.027344-49.75 40-59.34375v51.34375c0 13.234376 10.769531 24 24 24zm-24-180.6875 18.347656 18.34375c3.125 3.128907 8.183594 3.128907 11.308594 0l18.34375-18.34375v25.375l-24 24-24-24zm24 260.6875c-52.933594 0-96-43.0625-96-96 0-43.757812 30.371094-82.144531 72-92.933593v16.613281c-33.269531 10.371094-56 40.875-56 76.320312 0 44.113282 35.890625 80 80 80 44.113281 0 80-35.886718 80-80 0-35.085937-23.117187-65.941406-56-76.285156v-16.648437c41.632813 10.789062 72 49.175781 72 92.933593 0 52.9375-43.0625 96-96 96zm0 0"/><path d="m375.984375 176.476562h16v16h-16zm0 0"/><path d="m375.984375 144.476562h16v16h-16zm0 0"/><path d="m375.984375 112.476562h16v16h-16zm0 0"/><path d="m375.984375 80.476562h16v16h-16zm0 0"/><path d="m375.058594 65.878906 15.75-2.808594c-1.09375-6.167968-2.964844-12.191406-5.550782-17.898437l-14.566406 6.601563c2.03125 4.503906 3.496094 9.238281 4.367188 14.105468zm0 0"/><path d="m361.738281 37.652344 12.191407-10.359375c-5.085938-5.992188-11.039063-11.136719-17.703126-15.304688l-8.480468 13.570313c5.265625 3.296875 9.96875 7.367187 13.992187 12.09375zm0 0"/><path d="m338.332031 3.8125c-5.792969-1.773438-11.808593-2.855469-17.890625-3.207031l-.917968 15.976562c4.800781.28125 9.542968 1.128907 14.109374 2.527344zm0 0"/><path d="m305.386719 17.40625-2.808594-15.753906c-6.167969 1.097656-12.191406 2.96875-17.894531 5.554687l6.597656 14.566407c4.503906-2.03125 9.242188-3.496094 14.105469-4.367188zm0 0"/><path d="m266.808594 18.535156c-5.992188 5.085938-11.132813 11.039063-15.300782 17.703125l13.558594 8.488281c3.296875-5.265624 7.359375-9.976562 12.097656-13.992187zm0 0"/><path d="m240.113281 72.011719 15.976563.921875c.28125-4.800782 1.128906-9.542969 2.527344-14.113282l-15.292969-4.695312c-1.777344 5.800781-2.859375 11.816406-3.210938 17.886719zm0 0"/><path d="m239.984375 88.476562h16v16h-16zm0 0"/><path d="m239.984375 120.476562h16v16h-16zm0 0"/><path d="m239.984375 152.476562h16v16h-16zm0 0"/><path d="m239.984375 184.476562h16v16h-16zm0 0"/><path d="m239.984375 216.476562h16v16h-16zm0 0"/><path d="m239.984375 248.476562h16v16h-16zm0 0"/><path d="m239.984375 280.476562h16v16h-16zm0 0"/><path d="m239.984375 312.476562h16v16h-16zm0 0"/><path d="m239.984375 344.476562h16v16h-16zm0 0"/><path d="m239.984375 376.476562h16v16h-16zm0 0"/><path d="m239.984375 420.476562c0 1.183594-.03125 2.359376-.101563 3.527344l15.96875.945313c.09375-1.480469.132813-2.96875.132813-4.472657v-12h-16zm0 0"/><path d="m230.90625 452.238281 13.558594 8.488281c3.496094-5.585937 6.242187-11.601562 8.175781-17.890624l-15.285156-4.703126c-1.527344 4.953126-3.707031 9.695313-6.449219 14.105469zm0 0"/><path d="m204.691406 475.171875 6.589844 14.578125c6.367188-2.878906 12.320312-6.632812 17.671875-11.152344l-10.3125-12.230468c-4.230469 3.566406-8.925781 6.535156-13.949219 8.804687zm0 0"/><path d="m176.457031 480.375-.941406 15.964844c1.480469.097656 2.964844.136718 4.46875.136718 4.488281 0 9-.390624 13.402344-1.175781l-2.800781-15.75c-4.632813.816407-9.449219 1.09375-14.128907.824219zm0 0"/><path d="m139.746094 484.957031c5.585937 3.496094 11.601562 6.242188 17.886718 8.175781l4.707032-15.289062c-4.960938-1.527344-9.707032-3.695312-14.113282-6.445312zm0 0"/><path d="m110.714844 451.773438c2.878906 6.367187 6.632812 12.320312 11.152344 17.671874l12.230468-10.3125c-3.566406-4.230468-6.535156-8.925781-8.808594-13.960937zm0 0"/><path d="m119.984375 420.476562v-4h-16v4c0 4.488282.394531 9 1.179687 13.402344l15.75-2.800781c-.617187-3.480469-.929687-7.046875-.929687-10.601563zm0 0"/><path d="m103.984375 384.476562h16v16h-16zm0 0"/><path d="m103.984375 352.476562h16v16h-16zm0 0"/></svg>