<?xml version="1.0"?>
<svg height="496pt" viewBox="0 0 496 496" width="496pt" xmlns="http://www.w3.org/2000/svg" style="fill:#3544ee;"><path d="m184 336h-12.175781c-.726563-2.070312-1.542969-4.097656-2.449219-6.0625l12.28125-12.28125c1.503906-1.496094 2.34375-3.527344 2.34375-5.65625s-.839844-4.160156-2.34375-5.65625l-24-24c-3.128906-3.128906-8.183594-3.128906-11.3125 0l-12.28125 12.273438c-1.972656-.898438-4-1.722657-6.0625-2.441407v-12.175781c0-4.425781-3.585938-8-8-8h-32c-4.414062 0-8 3.574219-8 8v12.175781c-2.0625.71875-4.089844 1.535157-6.0625 2.441407l-12.28125-12.273438c-3.128906-3.128906-8.183594-3.128906-11.3125 0l-24 24c-1.503906 1.496094-2.34375 3.527344-2.34375 5.65625s.839844 4.160156 2.34375 5.65625l12.28125 12.28125c-.90625 1.972656-1.722656 4-2.449219 6.0625h-12.175781c-4.414062 0-8 3.574219-8 8v32c0 4.425781 3.585938 8 8 8h12.175781c.726563 2.0625 1.542969 4.089844 2.449219 6.0625l-12.28125 12.28125c-1.503906 1.496094-2.34375 3.527344-2.34375 5.65625s.839844 4.160156 2.34375 5.65625l24 24c3.128906 3.128906 8.183594 3.128906 11.3125 0l12.28125-12.273438c1.972656.898438 4 1.722657 6.0625 2.449219v12.167969c0 4.425781 3.585938 8 8 8h32c4.414062 0 8-3.574219 8-8v-12.167969c2.0625-.726562 4.089844-1.542969 6.0625-2.449219l12.28125 12.273438c3.128906 3.128906 8.183594 3.128906 11.3125 0l24-24c1.503906-1.496094 2.34375-3.527344 2.34375-5.65625s-.839844-4.160156-2.34375-5.65625l-12.28125-12.28125c.90625-1.964844 1.722656-3.992188 2.449219-6.0625h12.175781c4.414062 0 8-3.574219 8-8v-32c0-4.425781-3.585938-8-8-8zm-8 32h-10.097656c-3.644532 0-6.832032 2.472656-7.742188 6-1.25 4.847656-3.105468 9.441406-5.503906 13.648438-1.785156 3.136718-1.257812 7.070312 1.296875 9.617187l10.734375 10.734375-12.6875 12.6875-10.734375-10.734375c-2.539063-2.539063-6.488281-3.082031-9.617187-1.296875-4.207032 2.398438-8.800782 4.246094-13.648438 5.503906-3.535156.917969-6 4.097656-6 7.742188v10.097656h-16v-10.097656c0-3.644532-2.464844-6.832032-6-7.742188-4.847656-1.257812-9.441406-3.113281-13.648438-5.503906-3.128906-1.777344-7.0625-1.242188-9.617187 1.296875l-10.734375 10.734375-12.6875-12.6875 10.734375-10.734375c2.546875-2.546875 3.082031-6.488281 1.296875-9.617187-2.398438-4.214844-4.253906-8.816407-5.503906-13.648438-.902344-3.527344-4.097656-6-7.742188-6h-10.097656v-16h10.097656c3.644532 0 6.832032-2.472656 7.742188-6 1.25-4.832031 3.105468-9.433594 5.503906-13.648438 1.785156-3.136718 1.25-7.070312-1.296875-9.617187l-10.734375-10.734375 12.6875-12.6875 10.734375 10.734375c2.546875 2.546875 6.488281 3.074219 9.617187 1.296875 4.207032-2.398438 8.800782-4.246094 13.640626-5.496094 3.535156-.910156 6.007812-4.09375 6.007812-7.742187v-10.105469h16v10.105469c0 3.648437 2.472656 6.832031 6.007812 7.75 4.832032 1.242187 9.425782 3.097656 13.640626 5.496093 3.136718 1.785157 7.070312 1.257813 9.617187-1.296874l10.734375-10.742188 12.6875 12.6875-10.734375 10.734375c-2.554687 2.546875-3.082031 6.488281-1.296875 9.617187 2.398438 4.207032 4.246094 8.800782 5.503906 13.648438.910156 3.527344 4.097656 6 7.742188 6h10.097656zm0 0"/><path d="m104 320c-22.054688 0-40 17.945312-40 40s17.945312 40 40 40 40-17.945312 40-40-17.945312-40-40-40zm0 64c-13.230469 0-24-10.769531-24-24s10.769531-24 24-24 24 10.769531 24 24-10.769531 24-24 24zm0 0"/><path d="m488 320h-12.039062c-3.105469-12.078125-7.9375-23.535156-14.417969-34.222656l16.113281-16.121094c3.128906-3.128906 3.128906-8.183594 0-11.3125l-32-32c-3.128906-3.128906-8.183594-3.128906-11.3125 0l-16.121094 16.121094c-10.671875-6.488282-22.144531-11.3125-34.222656-14.425782v-12.039062c0-4.425781-3.585938-8-8-8h-48c-4.414062 0-8 3.574219-8 8v12.039062c-12.078125 3.113282-23.550781 7.9375-34.222656 14.425782l-16.121094-16.121094c-3.128906-3.128906-8.183594-3.128906-11.3125 0l-32 32c-3.128906 3.128906-3.128906 8.183594 0 11.3125l16.113281 16.121094c-6.480469 10.6875-11.3125 22.152344-14.417969 34.222656h-12.039062c-4.414062 0-8 3.574219-8 8v48c0 4.425781 3.585938 8 8 8h12.039062c3.105469 12.078125 7.9375 23.535156 14.417969 34.222656l-16.113281 16.121094c-3.128906 3.128906-3.128906 8.183594 0 11.3125l32 32c3.128906 3.128906 8.183594 3.128906 11.3125 0l16.121094-16.121094c10.6875 6.488282 22.160156 11.3125 34.222656 14.425782v12.039062c0 4.425781 3.585938 8 8 8h48c4.414062 0 8-3.574219 8-8v-12.039062c12.070312-3.113282 23.535156-7.9375 34.222656-14.425782l16.121094 16.121094c3.128906 3.128906 8.183594 3.128906 11.3125 0l32-32c3.128906-3.128906 3.128906-8.183594 0-11.3125l-16.113281-16.121094c6.480469-10.6875 11.3125-22.152344 14.417969-34.222656h12.039062c4.414062 0 8-3.574219 8-8v-48c0-4.425781-3.585938-8-8-8zm-8 48h-10.40625c-3.808594 0-7.082031 2.679688-7.839844 6.40625-2.953125 14.523438-8.683594 28.128906-17.042968 40.433594-2.160157 3.167968-1.75 7.441406.960937 10.152344l15.015625 15.007812-20.6875 20.6875-15.015625-15.015625c-2.710937-2.710937-6.976563-3.121094-10.152344-.960937-12.3125 8.359374-25.910156 14.097656-40.433593 17.050781-3.71875.75-6.398438 4.03125-6.398438 7.832031v10.40625h-32v-10.40625c0-3.808594-2.679688-7.082031-6.40625-7.832031-14.515625-2.953125-28.121094-8.691407-40.433594-17.050781-3.167968-2.160157-7.433594-1.75-10.152344.960937l-15.007812 15.015625-20.6875-20.6875 15.015625-15.015625c2.710937-2.710937 3.121094-6.976563.960937-10.152344-8.351562-12.304687-14.089843-25.902343-17.042968-40.433593-.75-3.71875-4.03125-6.398438-7.839844-6.398438h-10.40625v-32h10.40625c3.808594 0 7.082031-2.679688 7.839844-6.40625 2.953125-14.523438 8.683594-28.128906 17.042968-40.433594 2.160157-3.167968 1.75-7.441406-.960937-10.152344l-15.015625-15.007812 20.6875-20.6875 15.015625 15.015625c2.71875 2.71875 6.976563 3.128906 10.152344.960937 12.296875-8.351562 25.894531-14.089843 40.425781-17.050781 3.726562-.75 6.40625-4.03125 6.40625-7.832031v-10.40625h32v10.40625c0 3.808594 2.679688 7.082031 6.40625 7.832031 14.53125 2.960938 28.136719 8.699219 40.425781 17.050781 3.183594 2.167969 7.441407 1.757813 10.152344-.960937l15.015625-15.015625 20.6875 20.6875-15.015625 15.015625c-2.710937 2.710937-3.121094 6.976563-.960937 10.152344 8.351562 12.304687 14.089843 25.902343 17.042968 40.433593.75 3.71875 4.03125 6.398438 7.839844 6.398438h10.40625zm0 0"/><path d="m352 256c-52.9375 0-96 43.0625-96 96s43.0625 96 96 96 96-43.0625 96-96-43.0625-96-96-96zm0 176c-44.113281 0-80-35.886719-80-80s35.886719-80 80-80 80 35.886719 80 80-35.886719 80-80 80zm0 0"/><path d="m352 304c-26.472656 0-48 21.527344-48 48s21.527344 48 48 48 48-21.527344 48-48-21.527344-48-48-48zm0 80c-17.648438 0-32-14.351562-32-32s14.351562-32 32-32 32 14.351562 32 32-14.351562 32-32 32zm0 0"/><path d="m232 200c0-2.128906-.839844-4.160156-2.34375-5.65625l-6.902344-6.894531c6.832032-10.890625 11.773438-22.945313 14.527344-35.449219h10.71875c4.414062 0 8-3.574219 8-8v-32c0-4.425781-3.585938-8-8-8h-10.710938c-2.761718-12.550781-7.679687-24.617188-14.496093-35.480469l6.863281-6.863281c3.128906-3.128906 3.128906-8.183594 0-11.3125l-24-24c-3-3-8.3125-3-11.3125 0l-6.863281 6.863281c-10.855469-6.808593-22.929688-11.734375-35.480469-14.488281v-10.71875c0-4.425781-3.585938-8-8-8h-32c-4.414062 0-8 3.574219-8 8v10.71875c-12.496094 2.761719-24.550781 7.695312-35.441406 14.519531l-6.902344-6.894531c-3.128906-3.128906-8.183594-3.128906-11.3125 0l-24 24c-1.503906 1.496094-2.34375 3.527344-2.34375 5.65625s.839844 4.160156 2.34375 5.65625l6.902344 6.894531c-6.832032 10.898438-11.773438 22.953125-14.527344 35.449219h-10.71875c-4.414062 0-8 3.574219-8 8v32c0 4.425781 3.585938 8 8 8h10.710938c2.753906 12.550781 7.679687 24.617188 14.496093 35.488281l-6.863281 6.855469c-1.503906 1.496094-2.34375 3.527344-2.34375 5.65625s.839844 4.160156 2.34375 5.65625l24 24c3.128906 3.128906 8.183594 3.128906 11.3125 0l6.863281-6.855469c10.863281 6.800781 22.929688 11.726563 35.480469 14.480469v10.71875c0 4.425781 3.585938 8 8 8h32c4.414062 0 8-3.574219 8-8v-10.71875c12.496094-2.761719 24.550781-7.695312 35.441406-14.519531l6.902344 6.894531c3.128906 3.128906 8.183594 3.128906 11.3125 0l24-24c1.503906-1.496094 2.34375-3.527344 2.34375-5.65625zm-25.207031-5.886719 5.886719 5.886719-12.679688 12.6875-5.894531-5.886719c-2.777344-2.769531-7.136719-3.144531-10.320313-.839843-12.152344 8.710937-26.335937 14.503906-41.007812 16.78125-3.898438.59375-6.777344 3.953124-6.777344 7.898437v9.359375h-16v-9.359375c0-3.945313-2.878906-7.304687-6.777344-7.90625-14.757812-2.277344-28.949218-8.070313-41.046875-16.742187-3.183593-2.296876-7.550781-1.921876-10.320312.839843l-5.855469 5.855469-12.679688-12.6875 5.847657-5.847656c2.769531-2.769532 3.128906-7.136719.839843-10.320313-8.671874-12.097656-14.464843-26.289062-16.75-41.054687-.601562-3.90625-3.953124-6.777344-7.90625-6.777344h-9.351562v-16h9.351562c3.945313 0 7.304688-2.871094 7.90625-6.777344 2.269532-14.671875 8.078126-28.855468 16.789063-41.023437 2.28125-3.175781 1.921875-7.542969-.847656-10.3125l-5.878907-5.886719 12.679688-12.6875 5.894531 5.886719c2.769531 2.761719 7.128907 3.128906 10.320313.839843 12.152344-8.710937 26.335937-14.503906 41.007812-16.78125 3.898438-.59375 6.777344-3.953124 6.777344-7.898437v-9.359375h16v9.359375c0 3.945313 2.878906 7.304687 6.777344 7.90625 14.765625 2.277344 28.957031 8.078125 41.046875 16.75 3.175781 2.28125 7.550781 1.921875 10.320312-.839844l5.855469-5.863281 12.6875 12.6875-5.855469 5.855469c-2.769531 2.777343-3.128906 7.144531-.839843 10.320312 8.671874 12.089844 14.464843 26.28125 16.75 41.046875.601562 3.90625 3.953124 6.777344 7.90625 6.777344h9.351562v16h-9.351562c-3.945313 0-7.304688 2.871094-7.90625 6.777344-2.269532 14.671875-8.078126 28.855468-16.789063 41.023437-2.289063 3.175781-1.929687 7.542969.839844 10.3125zm0 0"/><path d="m128 48c-44.113281 0-80 35.886719-80 80s35.886719 80 80 80 80-35.886719 80-80-35.886719-80-80-80zm0 144c-35.289062 0-64-28.710938-64-64s28.710938-64 64-64 64 28.710938 64 64-28.710938 64-64 64zm0 0"/><path d="m128 96c-17.648438 0-32 14.351562-32 32s14.351562 32 32 32 32-14.351562 32-32-14.351562-32-32-32zm0 48c-8.824219 0-16-7.175781-16-16s7.175781-16 16-16 16 7.175781 16 16-7.175781 16-16 16zm0 0"/><path d="m368 0h16v128h-16zm0 0"/><path d="m320 64h16v128h-16zm0 0"/></svg>