<?xml version="1.0"?>
<svg height="496pt" viewBox="-56 0 496 496.002" width="496pt" xmlns="http://www.w3.org/2000/svg" style="fill:#3544ee;"  ><path d="m376 64.003906c-61.101562 0-119.519531-19-168.933594-54.9375l-10.363281-7.535156c-2.796875-2.042969-6.605469-2.042969-9.40625 0l-10.359375 7.535156c-49.417969 35.9375-107.832031 54.9375-168.9375 54.9375-4.421875 0-8 3.582032-8 8v151.535156c0 110.261719 64.273438 212.246094 163.746094 259.816407l24.808594 11.863281c1.085937.519531 2.269531.785156 3.445312.785156s2.359375-.265625 3.457031-.785156l24.808594-11.863281c99.464844-47.570313 163.734375-149.554688 163.734375-259.816407v-151.535156c0-4.417968-3.574219-8-8-8zm-8 159.535156c0 104.136719-60.703125 200.453126-154.648438 245.375l-21.351562 10.222657-21.351562-10.214844c-93.945313-44.929687-154.648438-141.246094-154.648438-245.382813v-143.640624c61.59375-1.59375 120.34375-21.519532 170.34375-57.894532l5.65625-4.113281 5.65625 4.113281c50 36.367188 108.753906 56.300782 170.34375 57.894532zm0 0"/><path d="m152 120.003906c0 22.054688 17.945312 40 40 40 22.058594 0 40-17.945312 40-40 0-22.058594-17.941406-40-40-40-22.054688 0-40 17.941406-40 40zm64 0c0 13.230469-10.765625 24-24 24-13.230469 0-24-10.769531-24-24 0-13.234375 10.769531-24 24-24 13.234375 0 24 10.765625 24 24zm0 0"/><path d="m120 200.003906v40h-41.472656c-3.308594-9.289062-12.109375-16-22.527344-16-13.230469 0-24 10.765625-24 24 0 13.230469 10.769531 24 24 24 10.417969 0 19.21875-6.714844 22.527344-16h41.472656v8c0 4.414063 3.578125 8 8 8h24v72h-8c-4.421875 0-8 3.582032-8 8v32c0 4.414063 3.578125 8 8 8h96c4.425781 0 8-3.585937 8-8v-32c0-4.417968-3.574219-8-8-8h-8v-72h24c4.425781 0 8-3.585937 8-8v-8h41.472656c3.3125 9.285156 12.113282 16 22.527344 16 13.234375 0 24-10.769531 24-24 0-13.234375-10.765625-24-24-24-10.414062 0-19.214844 6.710938-22.527344 16h-41.472656v-40c0-22.058594-17.941406-40-40-40h-64c-22.054688 0-40 17.941406-40 40zm-64 56c-4.414062 0-8-3.59375-8-8 0-4.410156 3.585938-8 8-8 4.417969 0 8 3.589844 8 8 0 4.40625-3.582031 8-8 8zm272-16c4.417969 0 8 3.589844 8 8 0 4.40625-3.582031 8-8 8-4.414062 0-8-3.59375-8-8 0-4.410156 3.585938-8 8-8zm-96 136h-80v-16h80zm-8-200c13.234375 0 24 10.765625 24 24v56h-16v-32h-16v120h-16v-88h-16v88h-16v-120h-16v32h-16v-56c0-13.234375 10.769531-24 24-24zm0 0"/></svg>