<?xml version="1.0"?>
<svg height="512pt" viewBox="0 0 512.00002 512" width="512pt" xmlns="http://www.w3.org/2000/svg" style="fill:#3544ee;"><path d="m470.675781 300.480469h-226.027343c-22.789063 0-41.324219 18.539062-41.324219 41.324219v128.101562c0 22.785156 18.535156 41.324219 41.324219 41.324219h174.578124c4.199219 0 7.605469-3.40625 7.605469-7.605469s-3.40625-7.601562-7.605469-7.601562h-174.578124c-14.402344 0-26.117188-11.714844-26.117188-26.117188v-69.3125h278.261719v69.3125c0 14.402344-11.71875 26.117188-26.117188 26.117188h-26.101562c-4.199219 0-7.601563 3.402343-7.601563 7.601562s3.402344 7.605469 7.601563 7.605469h26.101562c22.785157 0 41.324219-18.539063 41.324219-41.324219v-128.101562c0-22.785157-18.539062-41.324219-41.324219-41.324219zm-226.027343 15.207031h226.027343c14.398438 0 26.117188 11.714844 26.117188 26.117188v2.683593h-278.261719v-2.683593c0-14.402344 11.714844-26.117188 26.117188-26.117188zm-26.117188 69.699219v-25.6875h278.261719v25.6875zm0 0"/><path d="m334.511719 421.398438c-4.199219 0-7.605469 3.40625-7.605469 7.605468 0 4.199219 3.40625 7.601563 7.605469 7.601563h46.300781c4.203125 0 7.605469-3.402344 7.605469-7.601563 0-4.199218-3.402344-7.605468-7.605469-7.605468zm0 0"/><path d="m462.171875 429.003906c0-4.199218-3.40625-7.605468-7.605469-7.605468h-46.300781c-4.203125 0-7.605469 3.40625-7.605469 7.605468 0 4.199219 3.402344 7.601563 7.605469 7.601563h46.300781c4.199219 0 7.605469-3.402344 7.605469-7.601563zm0 0"/><path d="m260.757812 421.398438c-4.199218 0-7.605468 3.40625-7.605468 7.605468 0 4.199219 3.40625 7.601563 7.605468 7.601563h46.300782c4.203125 0 7.605468-3.402344 7.605468-7.601563 0-4.199218-3.402343-7.605468-7.605468-7.605468zm0 0"/><path d="m373.054688 227.535156c4.199218 0 7.605468-3.40625 7.605468-7.605468v-212.324219c0-4.199219-3.40625-7.605469-7.605468-7.605469h-365.449219c-4.199219 0-7.605469 3.40625-7.605469 7.605469v55.351562c0 4.199219 3.40625 7.605469 7.605469 7.605469s7.601562-3.40625 7.601562-7.605469v-47.75h350.242188v197.117188h-350.242188v-124.015625c0-4.199219-3.402343-7.605469-7.601562-7.605469s-7.605469 3.40625-7.605469 7.605469v131.621094c0 4.199218 3.40625 7.605468 7.605469 7.605468zm0 0"/><path d="m277.386719 195.605469h24.492187c4.199219 0 7.601563-3.40625 7.601563-7.605469 0-17.445312 14.195312-31.640625 31.640625-31.640625 4.203125 0 7.605468-3.40625 7.605468-7.605469v-69.972656c0-4.199219-3.402343-7.605469-7.605468-7.605469-17.445313 0-31.640625-14.195312-31.640625-31.640625 0-4.199218-3.402344-7.605468-7.601563-7.605468h-223.097656c-4.199219 0-7.605469 3.40625-7.605469 7.605468 0 17.445313-14.191406 31.640625-31.640625 31.640625-4.199218 0-7.605468 3.40625-7.605468 7.605469v69.972656c0 4.199219 3.40625 7.605469 7.605468 7.605469 17.445313 0 31.640625 14.195313 31.640625 31.640625 0 4.199219 3.40625 7.605469 7.605469 7.605469h173.257812c4.199219 0 7.605469-3.40625 7.605469-7.605469s-3.40625-7.605469-7.605469-7.605469h-166.269531c-3.238281-19.75-18.878906-35.390625-38.632812-38.628906v-55.996094c19.753906-3.238281 35.394531-18.878906 38.632812-38.632812h209.121094c3.238281 19.753906 18.875 35.394531 38.628906 38.632812v56c-19.753906 3.238281-35.390625 18.875-38.628906 38.628907h-17.503906c-4.199219 0-7.601563 3.402343-7.601563 7.601562s3.402344 7.605469 7.601563 7.605469zm0 0"/><path d="m143.179688 113.765625c0 26 21.152343 47.148437 47.148437 47.148437 26 0 47.148437-21.148437 47.148437-47.148437 0-25.996094-21.148437-47.144531-47.148437-47.144531-25.996094 0-47.148437 21.148437-47.148437 47.144531zm79.089843 0c0 17.613281-14.328125 31.941406-31.941406 31.941406-17.609375 0-31.9375-14.328125-31.9375-31.941406 0-17.609375 14.328125-31.9375 31.9375-31.9375 17.613281 0 31.941406 14.328125 31.941406 31.9375zm0 0"/><path d="m297.875 121.371094c4.203125 0 7.605469-3.402344 7.605469-7.605469 0-4.199219-3.402344-7.601563-7.605469-7.601563h-24.332031c-4.199219 0-7.601563 3.402344-7.601563 7.601563 0 4.203125 3.402344 7.605469 7.601563 7.605469zm0 0"/><path d="m82.78125 106.164062c-4.199219 0-7.601562 3.402344-7.601562 7.601563 0 4.203125 3.402343 7.605469 7.601562 7.605469h24.332031c4.199219 0 7.605469-3.402344 7.605469-7.605469 0-4.199219-3.40625-7.601563-7.605469-7.601563zm0 0"/><path d="m389.539062 94.253906c48.011719 39.894532 75.550782 98.539063 75.550782 160.898438 0 2.460937-.058594 4.929687-.144532 7.398437l-17.945312-18.660156c-2.910156-3.027344-7.722656-3.121094-10.753906-.210937-3.023438 2.910156-3.121094 7.722656-.207032 10.75l29.421876 30.597656c1.273437 1.324218 2.984374 2.132812 4.804687 2.292968.0625.011719.125.023438.1875.03125.289063.035157.578125.050782.863281.050782 2.734375 0 5.191406-1.476563 6.53125-3.734375l28.960938-27.855469c3.027344-2.910156 3.121094-7.726562.210937-10.75-2.910156-3.027344-7.722656-3.121094-10.753906-.210938l-16.039063 15.429688c.039063-1.710938.070313-3.421875.070313-5.128906 0-66.894532-29.535156-129.800782-81.039063-172.59375-3.226562-2.683594-8.023437-2.242188-10.707031.988281-2.683593 3.230469-2.238281 8.023437.988281 10.707031zm0 0"/><path d="m185.082031 451.910156c-40.074219-14.449218-74.414062-40.488281-99.304687-75.308594-22.144532-30.984374-35.195313-66.839843-38.195313-104.566406l18.601563 16.335938c3.152344 2.769531 7.957031 2.457031 10.730468-.695313 2.769532-3.15625 2.457032-7.960937-.695312-10.734375l-31.894531-28.011718c-3.15625-2.769532-7.960938-2.457032-10.730469.695312l-28.011719 31.894531c-2.773437 3.15625-2.460937 7.960938.695313 10.730469 1.441406 1.269531 3.230468 1.890625 5.011718 1.890625 2.113282 0 4.214844-.875 5.71875-2.585937l15.472657-17.617188c3.320312 40.222656 17.296875 78.449219 40.925781 111.507812 26.691406 37.34375 63.527344 65.273438 106.519531 80.769532.851563.308594 1.722657.453125 2.578125.453125 3.113282 0 6.035156-1.929688 7.152344-5.027344 1.425781-3.949219-.621094-8.308594-4.574219-9.730469zm0 0"/><path d="m341.125 47.132812c-3.320312 0-6.300781-2.214843-7.277344-5.390624-.890625-2.898438.109375-6.164063 2.449219-8.082032 5.25-4.304687 13.382813.269532 12.347656 6.992188-.566406 3.671875-3.789062 6.480468-7.519531 6.480468zm0 0"/><path d="m341.125 195.605469c-3.117188 0-5.964844-1.96875-7.089844-4.871094-1.195312-3.074219-.199218-6.660156 2.378906-8.707031 5.40625-4.285156 13.558594.679687 12.164063 7.460937-.71875 3.507813-3.859375 6.117188-7.453125 6.117188zm0 0"/><path d="m39.535156 47.132812c-3.328125 0-6.292968-2.230468-7.273437-5.390624-.941407-3.042969.222656-6.5 2.808593-8.359376 5.488282-3.945312 13.238282.984376 11.925782 7.636719-.695313 3.515625-3.890625 6.113281-7.460938 6.113281zm0 0"/><path d="m39.535156 195.605469c-3.320312 0-6.300781-2.234375-7.273437-5.398438-.992188-3.230469.367187-6.828125 3.210937-8.632812 5.675782-3.601563 13.089844 1.789062 11.429688 8.292969-.851563 3.328124-3.929688 5.738281-7.367188 5.738281zm0 0"/></svg>