<svg xmlns="http://www.w3.org/2000/svg" viewBox="0 0 509.8 220">
  <path fill="#9e9e9e" d="M23.2 173.4V210h463.4v-36.6H23.2zm458.5 31.7H28v-26.8h453.7v26.8z"/>
  <path fill="#fff" d="M28 178.3h453.7v26.8H28z"/>
  <g fill="#9e9e9e">
    <path d="M437.8 185.6c-4 0-7.3 3.3-7.3 7.3s3.3 7.3 7.3 7.3 7.3-3.3 7.3-7.3-3.3-7.3-7.3-7.3zm0 9.8c-1.3 0-2.4-1.1-2.4-2.4s1.1-2.4 2.4-2.4 2.4 1.1 2.4 2.4-1 2.4-2.4 2.4zM462.2 185.6c-4 0-7.3 3.3-7.3 7.3s3.3 7.3 7.3 7.3 7.3-3.3 7.3-7.3-3.3-7.3-7.3-7.3zm0 9.8c-1.3 0-2.4-1.1-2.4-2.4s1.1-2.4 2.4-2.4 2.4 1.1 2.4 2.4-1.1 2.4-2.4 2.4zM413.4 185.6c-4 0-7.3 3.3-7.3 7.3s3.3 7.3 7.3 7.3 7.3-3.3 7.3-7.3-3.2-7.3-7.3-7.3zm0 9.8c-1.3 0-2.4-1.1-2.4-2.4s1.1-2.4 2.4-2.4 2.4 1.1 2.4 2.4-1 2.4-2.4 2.4zM389 185.6c-4 0-7.3 3.3-7.3 7.3s3.3 7.3 7.3 7.3 7.3-3.3 7.3-7.3-3.2-7.3-7.3-7.3zm0 9.8c-1.3 0-2.4-1.1-2.4-2.4s1.1-2.4 2.4-2.4 2.4 1.1 2.4 2.4-1 2.4-2.4 2.4zM364.6 185.6c-4 0-7.3 3.3-7.3 7.3s3.3 7.3 7.3 7.3 7.3-3.3 7.3-7.3-3.2-7.3-7.3-7.3zm0 9.8c-1.3 0-2.4-1.1-2.4-2.4s1.1-2.4 2.4-2.4 2.4 1.1 2.4 2.4-1 2.4-2.4 2.4zM340.2 185.6c-4 0-7.3 3.3-7.3 7.3s3.3 7.3 7.3 7.3 7.3-3.3 7.3-7.3-3.2-7.3-7.3-7.3zm0 9.8c-1.3 0-2.4-1.1-2.4-2.4s1.1-2.4 2.4-2.4 2.4 1.1 2.4 2.4-1 2.4-2.4 2.4zM315.9 185.6c-4 0-7.3 3.3-7.3 7.3s3.3 7.3 7.3 7.3 7.3-3.3 7.3-7.3-3.3-7.3-7.3-7.3zm0 9.8c-1.3 0-2.4-1.1-2.4-2.4s1.1-2.4 2.4-2.4 2.4 1.1 2.4 2.4-1.1 2.4-2.4 2.4zM291.5 185.6c-4 0-7.3 3.3-7.3 7.3s3.3 7.3 7.3 7.3 7.3-3.3 7.3-7.3-3.3-7.3-7.3-7.3zm0 9.8c-1.3 0-2.4-1.1-2.4-2.4s1.1-2.4 2.4-2.4 2.4 1.1 2.4 2.4-1.1 2.4-2.4 2.4zM267.1 185.6c-4 0-7.3 3.3-7.3 7.3s3.3 7.3 7.3 7.3 7.3-3.3 7.3-7.3-3.3-7.3-7.3-7.3zm0 9.8c-1.3 0-2.4-1.1-2.4-2.4s1.1-2.4 2.4-2.4 2.4 1.1 2.4 2.4-1.1 2.4-2.4 2.4zM242.7 185.6c-4 0-7.3 3.3-7.3 7.3s3.3 7.3 7.3 7.3 7.3-3.3 7.3-7.3-3.3-7.3-7.3-7.3zm0 9.8c-1.3 0-2.4-1.1-2.4-2.4s1.1-2.4 2.4-2.4 2.4 1.1 2.4 2.4-1.1 2.4-2.4 2.4zM218.3 185.6c-4 0-7.3 3.3-7.3 7.3s3.3 7.3 7.3 7.3 7.3-3.3 7.3-7.3-3.3-7.3-7.3-7.3zm0 9.8c-1.3 0-2.4-1.1-2.4-2.4s1.1-2.4 2.4-2.4 2.4 1.1 2.4 2.4-1.1 2.4-2.4 2.4zM193.9 185.6c-4 0-7.3 3.3-7.3 7.3s3.3 7.3 7.3 7.3 7.3-3.3 7.3-7.3-3.3-7.3-7.3-7.3zm0 9.8c-1.3 0-2.4-1.1-2.4-2.4s1.1-2.4 2.4-2.4 2.4 1.1 2.4 2.4-1.1 2.4-2.4 2.4zM169.5 185.6c-4 0-7.3 3.3-7.3 7.3s3.3 7.3 7.3 7.3 7.3-3.3 7.3-7.3-3.2-7.3-7.3-7.3zm0 9.8c-1.3 0-2.4-1.1-2.4-2.4s1.1-2.4 2.4-2.4 2.4 1.1 2.4 2.4-1 2.4-2.4 2.4zM145.1 185.6c-4 0-7.3 3.3-7.3 7.3s3.3 7.3 7.3 7.3 7.3-3.3 7.3-7.3-3.2-7.3-7.3-7.3zm0 9.8c-1.3 0-2.4-1.1-2.4-2.4s1.1-2.4 2.4-2.4 2.4 1.1 2.4 2.4-1 2.4-2.4 2.4zM120.7 185.6c-4 0-7.3 3.3-7.3 7.3s3.3 7.3 7.3 7.3 7.3-3.3 7.3-7.3-3.2-7.3-7.3-7.3zm0 9.8c-1.3 0-2.4-1.1-2.4-2.4s1.1-2.4 2.4-2.4c1.3 0 2.4 1.1 2.4 2.4s-1 2.4-2.4 2.4zM96.3 185.6c-4 0-7.3 3.3-7.3 7.3s3.3 7.3 7.3 7.3 7.3-3.3 7.3-7.3-3.2-7.3-7.3-7.3zm0 9.8c-1.3 0-2.4-1.1-2.4-2.4s1.1-2.4 2.4-2.4 2.4 1.1 2.4 2.4-1 2.4-2.4 2.4zM72 185.6c-4 0-7.3 3.3-7.3 7.3s3.3 7.3 7.3 7.3 7.3-3.3 7.3-7.3-3.3-7.3-7.3-7.3zm0 9.8c-1.3 0-2.4-1.1-2.4-2.4s1.1-2.4 2.4-2.4 2.4 1.1 2.4 2.4-1.1 2.4-2.4 2.4zM47.6 185.6c-4 0-7.3 3.3-7.3 7.3s3.3 7.3 7.3 7.3 7.3-3.3 7.3-7.3-3.3-7.3-7.3-7.3zm0 9.8c-1.3 0-2.4-1.1-2.4-2.4s1.1-2.4 2.4-2.4c1.3 0 2.4 1.1 2.4 2.4s-1.1 2.4-2.4 2.4z"/>
  </g>
  <path fill="#9e9e9e" d="M150 56.3v34.1h151.2V56.3H150zm146.3 29.3H154.9V61.2h141.5v24.4z"/>
  <path fill="#fff" d="M154.9 61.2h141.5v24.4H154.9z"/>
  <path fill="#9e9e9e" d="M157.3 85.6v92.7h136.6V85.6H157.3zM289 173.4H162.2V90.5H289v82.9z"/>
  <path fill="#fff" d="M162.2 90.5H289v82.9H162.2z"/>
  <path fill="#9e9e9e" d="M308.5 46.6v131.7h53.7V46.6h-53.7zm48.8 126.8h-43.9v-122h43.9v122z"/>
  <path fill="#6775b8" d="M313.4 51.5h43.9v122h-43.9z" opacity=".3"/>
  <path fill="#9e9e9e" d="M320.7 73.4H350v4.9h-29.3zM320.7 85.6H350v4.9h-29.3zM320.7 97.8h19.5v4.9h-19.5zM335.4 134.4c-6.7 0-12.2 5.5-12.2 12.2 0 6.7 5.5 12.2 12.2 12.2 6.7 0 12.2-5.5 12.2-12.2 0-6.7-5.5-12.2-12.2-12.2zm0 19.5c-4 0-7.3-3.3-7.3-7.3s3.3-7.3 7.3-7.3 7.3 3.3 7.3 7.3-3.3 7.3-7.3 7.3z"/>
  <g fill="#9e9e9e">
    <path d="M386.6 144.1h29.3v4.9h-29.3zM408.5 112.4h53.7v4.9h-53.7zM198.8 10h53.7v4.9h-53.7zM23.2 78.3h68.3v4.9H23.2zM91.5 112.4h29.3v4.9H91.5z"/>
  </g>
</svg>