<svg xmlns="http://www.w3.org/2000/svg" viewBox="-73 165 464 464">
  <circle cx="159" cy="397" r="64" fill="#e5e7fa"/>
  <g fill="#6979f8">
    <path d="M367 197H167v-24c0-4.8-3.2-8-8-8s-8 3.2-8 8v24H-49c-13.6 0-24 10.4-24 24s10.4 24 24 24h8v264c0 13.6 10.4 24 24 24h156.8l-80 80H-1c-4.8 0-8 3.2-8 8s3.2 8 8 8h320c4.8 0 8-3.2 8-8s-3.2-8-8-8h-60.8l-80-80H335c13.6 0 24-10.4 24-24V245h8c13.6 0 24-10.4 24-24s-10.4-24-24-24zM151 544.2V613H82.2l68.8-68.8zm16 68.8v-68.8l68.8 68.8H167zm176-104c0 4.8-3.2 8-8 8H-17c-4.8 0-8-3.2-8-8V245h368v264zm24-280H-49c-4.8 0-8-3.2-8-8s3.2-8 8-8h416c4.8 0 8 3.2 8 8s-3.2 8-8 8z"/>
    <path d="M31 309h28.8l29.6 29.6c.8.8 1.6.8 2.4 1.6-3.2 8-4.8 16-4.8 24.8 0 40 32 72 72 72 24.8 0 47.2-12.8 60-32.8l30.4 30.4c1.6 1.6 3.2 2.4 5.6 2.4h32c4.8 0 8-3.2 8-8s-3.2-8-8-8h-28.8l-29.6-29.6c-.8-.8-1.6-.8-2.4-1.6 3.2-8 4.8-16 4.8-24.8 0-40-32-72-72-72-24.8 0-47.2 12.8-60 32.8l-30.4-30.4c-1.6-1.6-3.2-2.4-5.6-2.4H31c-4.8 0-8 3.2-8 8s3.2 8 8 8zm128 0c31.2 0 56 24.8 56 56s-24.8 56-56 56-56-24.8-56-56 24.8-56 56-56zM-1 469h64c4.8 0 8-3.2 8-8s-3.2-8-8-8H-1c-4.8 0-8 3.2-8 8s3.2 8 8 8zM-1 501h32c4.8 0 8-3.2 8-8s-3.2-8-8-8H-1c-4.8 0-8 3.2-8 8s3.2 8 8 8zM127 485H63c-4.8 0-8 3.2-8 8s3.2 8 8 8h64c4.8 0 8-3.2 8-8s-3.2-8-8-8zM255 485h-96c-4.8 0-8 3.2-8 8s3.2 8 8 8h96c4.8 0 8-3.2 8-8s-3.2-8-8-8zM279 493c0 4.8 3.2 8 8 8h32c4.8 0 8-3.2 8-8s-3.2-8-8-8h-32c-4.8 0-8 3.2-8 8z"/>
    <path d="M121.4 402.6c1.6 1.6 4 2.4 5.6 2.4s4-.8 5.6-2.4l64-64c3.2-3.2 3.2-8 0-11.2-3.2-3.2-8-3.2-11.2 0l-64 64c-3.2 3.2-3.2 8 0 11.2zM127 373c2.4 0 4-.8 5.6-2.4l32-32c3.2-3.2 3.2-8 0-11.2-3.2-3.2-8-3.2-11.2 0l-32 32c-3.2 3.2-3.2 8 0 11.2 1.6 1.6 3.2 2.4 5.6 2.4zM185.4 359.4l-32 32c-3.2 3.2-3.2 8 0 11.2 1.6 1.6 4 2.4 5.6 2.4s4-.8 5.6-2.4l32-32c3.2-3.2 3.2-8 0-11.2s-8-3.2-11.2 0z"/>
  </g>
</svg>