<svg xmlns="http://www.w3.org/2000/svg" viewBox="0 0 256 256">
  <path fill="#9e9e9e" d="M217.7 135.3h-68.5c-21.2 0-38.3 17.2-38.3 38.3 0 16.3 10.1 30.3 24.5 35.9l-2.4 22 21.2-19.6h63.6c21.2 0 38.3-17.2 38.3-38.3-.1-21.1-17.3-38.3-38.4-38.3zm0 73.4h-64.9l-15.7 14.5 1.8-15.8-2.3-.9c-13.4-5.2-22.4-18.4-22.4-32.8 0-19.3 15.7-35.1 35.1-35.1h68.5c19.3 0 35.1 15.7 35.1 35.1s-15.9 35-35.2 35z"/>
  <path fill="#6774b7" d="M217.7 138.6h-68.5c-19.3 0-35.1 15.7-35.1 35.1 0 14.4 9 27.6 22.4 32.8l2.3.9-1.8 15.8 15.7-14.5h64.9c19.3 0 35.1-15.7 35.1-35.1s-15.7-35-35-35z" opacity=".3"/>
  <path fill="#9e9e9e" d="M176 174c0 14.4-11.6 26-26 26s-26-11.6-26-26 11.6-26 26-26 26 11.6 26 26z"/>
  <path fill="#fff" d="M150 197.3c-12.6 0-22.8-10.2-22.8-22.8 0-12.6 10.2-22.8 22.8-22.8 12.6 0 22.8 10.2 22.8 22.8 0 12.6-10.2 22.8-22.8 22.8z"/>
  <g fill="#9e9e9e">
    <path d="M146 168.7c0 1.8-1.5 3.3-3.3 3.3h-.5c-1.8 0-3.3-1.5-3.3-3.3v-.5c0-1.8 1.5-3.3 3.3-3.3h.5c1.8 0 3.3 1.5 3.3 3.3v.5zM162 168.7c0 1.8-1.5 3.3-3.3 3.3h-.5c-1.8 0-3.3-1.5-3.3-3.3v-.5c0-1.8 1.5-3.3 3.3-3.3h.5c1.8 0 3.3 1.5 3.3 3.3v.5zM160.9 179H135.6c.3 2 .7 2.4 1.2 3.4 2.4 4.8 7.4 8.2 13.1 8.2s10.7-3.5 13.1-8.3c.5-1 .9-1.4 1.2-3.4h-3.3zm-10.9 8.9c-3.9 0-7.3-1.9-9.4-4.9h18.7c-2 3-5.4 4.9-9.3 4.9z"/>
  </g>
  <path fill="#9e9e9e" d="M147.6 24.5h-16.3c-17.6 0-31.8 14.2-31.8 31.8 0 13.5 8.4 25 20.2 29.6l-2.3 18.5 18.4-16.3h11.7c17.6 0 31.8-14.2 31.8-31.8.1-17.6-14.2-31.8-31.7-31.8zm0 60.3h-13l-12.9 11.4 1.6-12.4-2.4-.9c-11-4.3-18.2-14.7-18.2-26.6 0-15.7 12.8-28.5 28.5-28.5h16.3c15.7 0 28.5 12.8 28.5 28.5s-12.7 28.5-28.4 28.5z"/>
  <path fill="#6774b7" d="M147.6 27.7h-16.3c-15.7 0-28.5 12.8-28.5 28.5 0 11.8 7.1 22.3 18.2 26.6l2.4.9-1.6 12.4 12.9-11.4h13c15.7 0 28.5-12.8 28.5-28.5s-12.9-28.5-28.6-28.5z" opacity=".3"/>
  <g fill="#9e9e9e">
    <path d="M123.9 47.3h32.6v3.3h-32.6zM123.9 60.3H150v3.3h-26.1z"/>
  </g>
  <path fill="#9e9e9e" d="M48.1 97.8H31.8C14.2 97.8 0 112.1 0 129.6c0 17.6 14.2 31.8 31.8 31.8h11.7L62 177.7l-2.3-18.5c11.8-4.6 20.2-16.1 20.2-29.6 0-17.5-14.2-31.8-31.8-31.8zm10.4 58.4l-2.4.9 1.6 12.4-12.9-11.4h-13c-15.7 0-28.5-12.8-28.5-28.5s12.8-28.5 28.5-28.5h16.3c15.7 0 28.5 12.8 28.5 28.5 0 11.9-7.1 22.3-18.1 26.6z"/>
  <path fill="#6774b7" d="M48.1 101.1H31.8c-15.7 0-28.5 12.8-28.5 28.5s12.8 28.5 28.5 28.5h13l12.9 11.4-1.6-12.4 2.4-.9c11-4.3 18.2-14.7 18.2-26.6-.1-15.7-12.9-28.5-28.6-28.5z" opacity=".3"/>
  <g fill="#9e9e9e">
    <path d="M22.8 123.9c-3.6 0-6.5 2.9-6.5 6.5s2.9 6.5 6.5 6.5 6.5-2.9 6.5-6.5c.1-3.6-2.9-6.5-6.5-6.5zm0 9.8c-1.8 0-3.3-1.5-3.3-3.3s1.5-3.3 3.3-3.3 3.3 1.5 3.3 3.3-1.5 3.3-3.3 3.3zM39.1 123.9c-3.6 0-6.5 2.9-6.5 6.5s2.9 6.5 6.5 6.5 6.5-2.9 6.5-6.5c.1-3.6-2.9-6.5-6.5-6.5zm0 9.8c-1.8 0-3.3-1.5-3.3-3.3s1.5-3.3 3.3-3.3 3.3 1.5 3.3 3.3-1.5 3.3-3.3 3.3zM55.4 123.9c-3.6 0-6.5 2.9-6.5 6.5s2.9 6.5 6.5 6.5 6.5-2.9 6.5-6.5c.1-3.6-2.9-6.5-6.5-6.5zm0 9.8c-1.8 0-3.3-1.5-3.3-3.3s1.5-3.3 3.3-3.3 3.3 1.5 3.3 3.3-1.5 3.3-3.3 3.3z"/>
  </g>
  <g fill="#9e9e9e">
    <path d="M190.8 159.8h32.6v3.3h-32.6zM190.8 185.9h32.6v3.3h-32.6zM190.8 172.8h26.1v3.3h-26.1z"/>
  </g>
</svg>