<svg xmlns="http://www.w3.org/2000/svg" viewBox="-55 222 500 350">
  <path fill="#9e9e9e" d="M218 398h19v74h-19v-74z"/>
  <path fill="#9e9e9e" d="M155 386h72v90h-72v-90z"/>
  <path fill="#fff" d="M159 390v63.8l26.8 12.5 9.2-4.3h1l9.1 4.3 17.9-8.5V390h-64z"/>
  <path fill="#e4f2fb" d="M222 462.7v5.3h11v-10.5l-10 4.7-1 .5z"/>
  <path fill="#9e9e9e" d="M251.4 427c-4.7-2.9-10-6.3-14.4-9h-4v4h2.9c2 1.3 4.3 2.7 6.5 4.1.5.3 1 .6 1.4.9 1.8 1.1 3.5 2.2 5.2 3.2v7.8h-8v4h8v3.5l-16 7.6-10 4.7-1 .5-16.9 8-9.1-4.3h-1l-9.2 4.3-26.8-12.5-18-8.4V442h8v-4h-8v-7.7c1.7-1 3.7-2.2 5.6-3.3 3.2-1.8 6.5-3.6 9.3-5h3v-4h-4c-4.8 2.4-11.3 6-16.3 9-.6.3-1.1.7-1.7 1v82h116v-82c-.4-.3-1-.7-1.5-1zM141 449.9l18 8.4 22 10.3-7.5 3.5-32.5 15v-37.2zM249 506H141v-14.5l42-19.5 12.5-5.8 12.3 5.8 41.2 19.5V506zm0-18.9L217.1 472l-7.4-3.5 12.3-5.8 1-.5 10-4.7 16-7.6v37.2z"/>
  <path fill="#fff" d="M141 491.5V506h108v-14.5l-53.5-25.3-54.5 25.3zm68.7-23l39.3 18.6v-37.2l-39.3 18.6zM141 449.9v37.2l40-18.6-40-18.6z"/>
  <path fill="#e4f2fb" d="M223 402v56.3l.9-.5 9.1-4.8v-51h-10z"/>
  <path fill="#9e9e9e" d="M223 402h4v57h-4v-57z"/>
  <path fill="#9e9e9e" d="M167 428h36v4h-36v-4z"/>
  <path fill="#9e9e9e" d="M167 440h48v4h-48v-4zm0 12h48v4h-48v-4zm0-54v16h16v-16h-16zm12 12h-8v-8h8v8z"/>
  <g fill="#9e9e9e">
    <path d="M77 406c-13.3 0-24 10.7-24 24s10.7 24 24 24 24-10.7 24-24-10.7-24-24-24zm0 44c-11 0-20-9-20-20s9-20 20-20 20 9 20 20-9 20-20 20z"/>
    <path d="M75.2 443.8v-3c-2.1-.1-4.2-.7-5.4-1.4l1-3.7c1.3.7 3.2 1.4 5.3 1.4 1.8 0 3.1-.7 3.1-2 0-1.2-1-2-3.4-2.8-3.4-1.2-5.8-2.8-5.8-5.9 0-2.8 2-5 5.4-5.7v-3h3.1v2.8c2.1.1 3.6.5 4.6 1.1l-.9 3.6c-.8-.4-2.3-1.1-4.6-1.1-2.1 0-2.8.9-2.8 1.8 0 1.1 1.1 1.7 3.8 2.8 3.8 1.3 5.3 3.1 5.3 6 0 2.8-2 5.3-5.7 5.9v3.3h-3v-.1zM273 322c-13.3 0-24 10.7-24 24s10.7 24 24 24 24-10.7 24-24-10.7-24-24-24zm0 44c-11 0-20-9-20-20s9-20 20-20 20 9 20 20-9 20-20 20z"/>
    <path d="M271.2 359.8v-3c-2.1-.1-4.2-.7-5.4-1.4l1-3.7c1.3.7 3.2 1.4 5.3 1.4 1.8 0 3.1-.7 3.1-2 0-1.2-1-2-3.4-2.8-3.4-1.2-5.8-2.8-5.8-5.9 0-2.8 2-5 5.4-5.7v-3h3.1v2.8c2.1.1 3.6.5 4.6 1.1l-.9 3.6c-.8-.4-2.3-1.1-4.6-1.1-2.1 0-2.8.9-2.8 1.8 0 1.1 1.1 1.7 3.8 2.8 3.8 1.3 5.3 3.1 5.3 6 0 2.8-2 5.3-5.7 5.9v3.3h-3v-.1z"/>
  </g>
  <g fill="#9e9e9e">
    <path d="M313 436c-13.3 0-24 10.7-24 24s10.7 24 24 24 24-10.7 24-24-10.7-24-24-24zm0 44c-11 0-20-9-20-20s9-20 20-20 20 9 20 20-9 20-20 20z"/>
    <path d="M310 465.2v-.9c-.1-1.8.5-3.7 2.1-5.7 1.2-1.4 2.1-2.5 2.1-3.7 0-1.3-.8-2.1-2.6-2.2-1.2 0-2.6.4-3.6 1.1l-1.2-3.9c1.3-.8 3.5-1.5 6-1.5 4.8 0 6.9 2.6 6.9 5.6 0 2.7-1.7 4.5-3.1 6-1.3 1.5-1.9 2.9-1.8 4.5v.6l-4.8.1zm-1 4.9c0-1.9 1.3-3.3 3.2-3.3 1.9 0 3.2 1.4 3.2 3.3s-1.3 3.3-3.2 3.3c-1.9 0-3.2-1.4-3.2-3.3z"/>
  </g>
  <g fill="#9e9e9e">
    <path d="M208 327c-5.5 0-10-4.5-10-10v-7h-2v7c0 5.5-4.5 10-10 10h-7v2h7c5.5 0 10 4.5 10 10v7h2v-7c0-5.5 4.5-10 10-10h7v-2h-7zM174 355c-2.2 0-4-1.8-4-4v-6h-2v6c0 2.2-1.8 4-4 4h-6v2h6c2.2 0 4 1.8 4 4v5h2v-5c0-2.2 1.8-4 4-4h5v-2h-5zM266 401c-2.2 0-4-1.8-4-4v-6h-2v6c0 2.2-1.8 4-4 4h-6v2h6c2.2 0 4 1.8 4 4v5h2v-5c0-2.2 1.8-4 4-4h5v-2h-5z"/>
  </g>
</svg>