<svg xmlns="http://www.w3.org/2000/svg" viewBox="0 0 256 256">
  <path fill="#fff" d="M222 143c8.9 5.1 6.6 5.2 15 8 3.4.6 6 .9 8 1V83h-64v53.9c3.7-1.7 9.3-3.9 14-3.9 7.8 0 18.7 3.8 27 10z"/>
  <path fill="#6774b7" d="M201 159v8h44v-11c-2.2-.1-5.1-.4-8.7-1.1l-.3-.1-.3-.1c-5.6-1.9-7-2.8-9.6-4.5-1.3-.9-3-2-6.1-3.8l-.2-.1-.2-.1c-7.3-5.4-17.4-9.2-24.6-9.2-4.5 0-10.5 2.6-14 4.4V159h20z" opacity=".3"/>
  <path fill="#9e9e9e" d="M195 137c7.2 0 17.4 3.8 24.6 9.2l.2.1.2.1c3.1 1.8 4.8 2.9 6.1 3.8 2.6 1.8 4 2.6 9.6 4.5l.3.1.3.1c3.6.7 6.5.9 8.7 1.1v-4c-2-.1-4.6-.4-8-1-8.4-2.8-6.1-2.9-15-8-8.3-6.2-19.2-10-27-10-4.7 0-10.3 2.2-14 3.9v4.4c3.5-1.7 9.5-4.3 14-4.3zM57 155v100h148V155H57zm144 96H61v-92h140v92z"/>
  <path fill="#6774b7" d="M61 159h140v92H61z" opacity=".3"/>
  <path fill="#9e9e9e" d="M152 159H57v-24h84z"/>
  <path fill="#fff" d="M61 155v-16h77.4l7.4 16z"/>
  <path fill="#9e9e9e" d="M55 255h6v-88H39z"/>
  <path fill="#fff" d="M43.8 171H57v72.6z"/>
  <path fill="#9e9e9e" d="M224 93c-7.2 0-13 5.8-13 13s5.8 13 13 13 13-5.8 13-13-5.8-13-13-13zm0 22c-5 0-9-4-9-9s4-9 9-9 9 4 9 9-4 9-9 9z"/>
  <path fill="#6774b7" d="M224 97c-5 0-9 4-9 9s4 9 9 9 9-4 9-9-4-9-9-9z" opacity=".3"/>
  <g fill="#9e9e9e">
    <path d="M219 107h2v2h-2zM227 105h2v2h-2zM223 103c-1.1 0-2-.9-2-2s.9-2 2-2 2 .9 2 2-.9 2-2 2zM229 115c-1.1 0-2-.9-2-2s.9-2 2-2 2 .9 2 2-.9 2-2 2z"/>
  </g>
  <path fill="#9e9e9e" d="M139 77H83V1h32l24 24v52z"/>
  <path fill="#fff" d="M87 73V5h26.3L135 26.7V73z"/>
  <path fill="#9e9e9e" d="M116 2h-4v28h26v-6L116 2zm18 24h-18V7.7l18 18v.3z"/>
  <g fill="#9e9e9e">
    <ellipse cx="13" cy="104" rx="6" ry="5"/>
    <path d="M15 73h4v31h-4zM35 99h4V68.8l-4 .8z"/>
    <ellipse cx="33" cy="100" rx="6" ry="5"/>
    <path d="M15.012 73.013l22.856-3.984.515 2.956-22.856 3.983zM15.012 81.013l22.856-3.983.516 2.955-22.857 3.984z"/>
  </g>
  <path fill="#9e9e9e" d="M177 79v80h4V83h64v84h-44v4h48V79z"/>
</svg>