<svg xmlns="http://www.w3.org/2000/svg" viewBox="0 0 512 512">
  <path fill="#6979f8" d="M365.7 254.4H241.2c-4.4 0-8-3.6-8-8s3.6-8 8-8h124.5c4.4 0 8 3.6 8 8s-3.6 8-8 8z"/>
  <path fill="#6979f8" d="M427.2 52H358V32c0-4.4-3.6-8-8-8s-8 3.6-8 8v20h-79V32c0-4.4-3.6-8-8-8s-8 3.6-8 8v20h-76V32c0-4.4-3.6-8-8-8s-8 3.6-8 8v20H84.8c-4.4 0-7.8 3.4-7.8 7.9V480c0 4.4 3.4 8 7.8 8h342.3c4.4 0 7.8-3.6 7.8-8V59.9c.1-4.5-3.3-7.9-7.7-7.9zM419 472H93V68h62v30.7c-14 3.5-22.9 15.4-22.9 29.5 0 16.8 13.6 30.5 30.5 30.5s30.8-13.7 30.8-30.5c0-14.1-9.5-25.9-22.5-29.4V68h76v30.7c-13 3.5-22.5 15.4-22.5 29.5 0 16.8 13.8 30.5 30.7 30.5s30.5-13.7 30.5-30.5c0-14-9.7-25.9-22.7-29.4V68h79v30.7c-13 3.5-22.6 15.4-22.6 29.5 0 16.8 13.8 30.5 30.7 30.5s30.6-13.7 30.6-30.5c0-14.1-9.7-25.9-22.7-29.4V68h61v404zM170.3 115.8c4.1 2.6 6.9 7.1 6.9 12.3 0 8-6.6 14.5-14.6 14.5-8.1 0-14.6-6.5-14.6-14.5 0-5.2 2.8-9.7 6.9-12.3.9 3.5 4 6 7.8 6 3.6.1 6.7-2.5 7.6-6zm92.8.1c4.1 2.6 6.8 7.1 6.8 12.2 0 8-6.6 14.5-14.6 14.5-8.1 0-14.6-6.5-14.6-14.5 0-5.2 2.8-9.8 7-12.3.9 3.5 4 6.1 7.8 6.1 3.6 0 6.7-2.6 7.6-6zm94.8-.1c4.1 2.6 6.9 7.1 6.9 12.3 0 8-6.6 14.5-14.6 14.5-8.1 0-14.6-6.5-14.6-14.5 0-5.2 2.8-9.7 6.9-12.3.9 3.5 4 6 7.8 6 3.6.1 6.7-2.5 7.6-6z"/>
  <path fill="#6979f8" d="M180 270.9h-32.6c-4.4 0-8-3.6-8-8V230c0-4.4 3.6-8 8-8H180c4.4 0 8 3.6 8 8v32.9c0 4.4-3.5 8-8 8zm-24.6-16H172V238h-16.6v16.9z"/>
  <path fill="#6979f8" d="M365.7 332.2H241.2c-4.4 0-8-3.6-8-8s3.6-8 8-8h124.5c4.4 0 8 3.6 8 8s-3.6 8-8 8z"/>
  <path fill="#6979f8" d="M180 348.7h-32.6c-4.4 0-8-3.6-8-8v-32.9c0-4.4 3.6-8 8-8H180c4.4 0 8 3.6 8 8v32.9c0 4.4-3.5 8-8 8zm-24.6-16H172v-16.9h-16.6v16.9z"/>
  <path fill="#6979f8" d="M365.7 410H241.2c-4.4 0-8-3.6-8-8s3.6-8 8-8h124.5c4.4 0 8 3.6 8 8s-3.6 8-8 8z"/>
  <path fill="#6979f8" d="M180 426.5h-32.6c-4.4 0-8-3.6-8-8v-32.9c0-4.4 3.6-8 8-8H180c4.4 0 8 3.6 8 8v32.9c0 4.4-3.5 8-8 8zm-24.6-16H172v-16.9h-16.6v16.9z"/>
</svg>