<svg xmlns="http://www.w3.org/2000/svg" viewBox="0 0 350.1 196">
  <path fill="#9e9e9e" d="M134 82h100v114H134z"/>
  <path fill="#fff" d="M138 86h92v106h-92z"/>
  <g fill="#9e9e9e">
    <path d="M138 98h92v4h-92zM138 178h92v4h-92zM138 162h92v4h-92zM138 146h92v4h-92zM138 130h92v4h-92zM138 114h92v4h-92z"/>
  </g>
  <path fill="#9e9e9e" d="M14 50v76h64V50H14zm60 72H18V54h56v68z"/>
  <path fill="#6774b7" d="M18 54h56v68H18z" opacity=".3"/>
  <path fill="#9e9e9e" d="M0 36h64v76H0z"/>
  <path fill="#fff" d="M4 40h56v68H4z"/>
  <g fill="#9e9e9e">
    <path d="M4 48h56v4H4zM4 96h56v4H4zM4 84h56v4H4zM4 72h56v4H4zM4 60h56v4H4z"/>
  </g>
  <g fill="#6774b7" opacity=".3">
    <path d="M276 14l-4.1-7-13.7 40.3 5.3-3.3 12.5-7.3zM279.9 39.1l-13.3 7.8 11.7 10.8 15-12.9zM320 48.8l-22.5-2.4-15.6 13.5 30.7 14 18-7.1-3.3-5.4-.3-.1.1-.4-7.1-11.8z"/>
  </g>
  <path fill="#9e9e9e" d="M336.9 32.5L324 11.2V10l-22-4-12 2L274.9.5c-.6-.3-1.3-.5-2-.5h-1c-1.2 0-2.2.7-2.6 1.9L252 53l3 1 8-5 14 13 35 16h1l23-9v-1l-4.7-7.9 2.3-12.8 13.3-5.1 1.1-.2 2.1-2.7-13.2-6.8zm-52.7 4L320 15.4v29.4l-23-2.5-12.8-5.8zM293 12l9-1.9 14.7 2.7L280 34.3v-19l13-3.3zm-8.1-2.1l-5.8 1.5-3.6-6.2 9.4 4.7zM263.5 44l-5.3 3.3L271.9 7l4.1 7v22.7L263.5 44zm3.1 2.9l13.3-7.8 13.4 5.7-15 13-11.7-10.9zm46 27l-30.6-14 15.6-13.4L320 49l10.6 17.8-18 7.1zm15.6-19L324 48V18.9l8.2 13.6-4 22.4zm6.2-12.2l1.1-6.3 6.5 3.3-7.6 3z"/>
</svg>