<?xml version="1.0" encoding="utf-8"?>
<!-- Generator: Adobe Illustrator 19.0.0, SVG Export Plug-In . SVG Version: 6.00 Build 0)  -->
<svg version="1.1" xmlns="http://www.w3.org/2000/svg" xmlns:xlink="http://www.w3.org/1999/xlink" x="0px" y="0px"
	 viewBox="0 0 500 350" style="enable-background:new 0 0 500 350;" xml:space="preserve">
<g id="Layer_18" style="display:none;">
	
		<image style="display:inline;overflow:visible;" width="500" height="350" id="XMLID_749_" xlink:href="E:\Desktop\New FM Icons\trash_empty.png"  transform="matrix(1.0095 0 0 1.0095 -4.3713 -6.6599)">
	</image>
</g>
<g id="Layer_1" style="display:none;">
	
		<image style="display:inline;overflow:visible;" width="500" height="350" id="XMLID_437_" xlink:href="E:\Desktop\New FM Icons\expenses_empty.png"  transform="matrix(1.0095 0 0 1.0095 11.6287 -6.6599)">
	</image>
</g>
<g id="activity_x5F_empty" style="display:none;">
	<g id="XMLID_14_" style="display:inline;">
		<path id="XMLID_7_" style="fill:#E4F2FB;" d="M218,252V140h-22v112c0,6.6,5.4,12,12,12h15.4C220.1,261.1,218,256.8,218,252z"/>
		<path id="XMLID_8_" style="fill:#FFFFFF;" d="M296,252V140h-74v112c0,6.6,5.4,12,12,12h67.4C298.1,261.1,296,256.8,296,252z"/>
		<path id="XMLID_9_" style="fill:#FFFFFF;" d="M333.4,184H300v68c0,6.6,5.4,12,12,12h4c6.6,0,12-5.4,12-12v-56
			C328,191.2,330.1,186.9,333.4,184z"/>
		<path id="XMLID_18_" style="fill:#E4F2FB;" d="M350,184h-6c-6.6,0-12,5.4-12,12v32h30v-32C362,189.4,356.6,184,350,184z"/>
	</g>
	<path id="XMLID_21_" style="display:inline;fill:#9E9E9E;" d="M350,180h-50v-44H192v116c0,8.8,7.2,16,16,16h108c8.8,0,16-7.2,16-16
		v-20h34v-36C366,187.2,358.8,180,350,180z M208,264c-6.6,0-12-5.4-12-12V140h22v112c0,4.8,2.1,9.1,5.4,12H208z M234,264
		c-6.6,0-12-5.4-12-12V140h74v112c0,4.8,2.1,9.1,5.4,12H234z M328,196v56c0,6.6-5.4,12-12,12h-4c-6.6,0-12-5.4-12-12v-68h33.4
		C330.1,186.9,328,191.2,328,196z M362,228h-30v-32c0-6.6,5.4-12,12-12h6c6.6,0,12,5.4,12,12V228z"/>
	<g id="XMLID_13_" style="display:inline;">
		<rect id="XMLID_2_" x="234" y="154" style="fill:#C4C4C4;" width="50" height="4"/>
		<rect id="XMLID_5_" x="234" y="170" style="fill:#C4C4C4;" width="36" height="4"/>
		<rect id="XMLID_6_" x="234" y="186" style="fill:#C4C4C4;" width="50" height="4"/>
		<rect id="XMLID_10_" x="234" y="202" style="fill:#C4C4C4;" width="50" height="4"/>
		<rect id="XMLID_11_" x="234" y="218" style="fill:#C4C4C4;" width="36" height="4"/>
		<rect id="XMLID_12_" x="234" y="234" style="fill:#C4C4C4;" width="22" height="4"/>
	</g>
	<g id="XMLID_28_" style="display:inline;">
		<polygon id="XMLID_15_" style="fill:#9E9E9E;" points="220,82 230,82 214,104 220,88 210,88 224,68 		"/>
		<polygon id="XMLID_16_" style="fill:#9E9E9E;" points="340,130 350,130 334,152 340,136 330,136 344,116 		"/>
		<polygon id="XMLID_17_" style="fill:#9E9E9E;" points="140,228 150,228 134,250 140,234 130,234 144,214 		"/>
		<polygon id="XMLID_25_" style="fill:#9E9E9E;" points="156,161 162,161 153,174 156,164 150,164 159,152 		"/>
		<polygon id="XMLID_26_" style="fill:#9E9E9E;" points="356,267 362,267 353,280 356,270 350,270 359,258 		"/>
		<polygon id="XMLID_27_" style="fill:#9E9E9E;" points="318,102 324,102 315,115 318,105 312,105 321,93 		"/>
	</g>
</g>
<g id="archive_x5F_empty" style="display:none;">
	<g id="XMLID_107_" style="display:inline;">
		<path id="XMLID_34_" style="fill:#9E9E9E;" d="M60,226v30h380v-30H60z M436,252H64v-22h372V252z"/>
		<rect id="XMLID_35_" x="64" y="230" style="fill:#FFFFFF;" width="372" height="22"/>
		<g id="XMLID_87_">
			<path id="XMLID_38_" style="fill:#C4C4C4;" d="M400,236c-3.3,0-6,2.7-6,6s2.7,6,6,6s6-2.7,6-6S403.3,236,400,236z M400,244
				c-1.1,0-2-0.9-2-2s0.9-2,2-2s2,0.9,2,2S401.1,244,400,244z"/>
			<path id="XMLID_4_" style="fill:#C4C4C4;" d="M420,236c-3.3,0-6,2.7-6,6s2.7,6,6,6s6-2.7,6-6S423.3,236,420,236z M420,244
				c-1.1,0-2-0.9-2-2s0.9-2,2-2s2,0.9,2,2S421.1,244,420,244z"/>
			<path id="XMLID_39_" style="fill:#C4C4C4;" d="M380,236c-3.3,0-6,2.7-6,6s2.7,6,6,6s6-2.7,6-6S383.3,236,380,236z M380,244
				c-1.1,0-2-0.9-2-2s0.9-2,2-2s2,0.9,2,2S381.1,244,380,244z"/>
			<path id="XMLID_42_" style="fill:#C4C4C4;" d="M360,236c-3.3,0-6,2.7-6,6s2.7,6,6,6s6-2.7,6-6S363.3,236,360,236z M360,244
				c-1.1,0-2-0.9-2-2s0.9-2,2-2s2,0.9,2,2S361.1,244,360,244z"/>
			<path id="XMLID_45_" style="fill:#C4C4C4;" d="M340,236c-3.3,0-6,2.7-6,6s2.7,6,6,6s6-2.7,6-6S343.3,236,340,236z M340,244
				c-1.1,0-2-0.9-2-2s0.9-2,2-2s2,0.9,2,2S341.1,244,340,244z"/>
			<path id="XMLID_48_" style="fill:#C4C4C4;" d="M320,236c-3.3,0-6,2.7-6,6s2.7,6,6,6s6-2.7,6-6S323.3,236,320,236z M320,244
				c-1.1,0-2-0.9-2-2s0.9-2,2-2s2,0.9,2,2S321.1,244,320,244z"/>
			<path id="XMLID_51_" style="fill:#C4C4C4;" d="M300,236c-3.3,0-6,2.7-6,6s2.7,6,6,6s6-2.7,6-6S303.3,236,300,236z M300,244
				c-1.1,0-2-0.9-2-2s0.9-2,2-2s2,0.9,2,2S301.1,244,300,244z"/>
			<path id="XMLID_54_" style="fill:#C4C4C4;" d="M280,236c-3.3,0-6,2.7-6,6s2.7,6,6,6s6-2.7,6-6S283.3,236,280,236z M280,244
				c-1.1,0-2-0.9-2-2s0.9-2,2-2s2,0.9,2,2S281.1,244,280,244z"/>
			<path id="XMLID_57_" style="fill:#C4C4C4;" d="M260,236c-3.3,0-6,2.7-6,6s2.7,6,6,6s6-2.7,6-6S263.3,236,260,236z M260,244
				c-1.1,0-2-0.9-2-2s0.9-2,2-2s2,0.9,2,2S261.1,244,260,244z"/>
			<path id="XMLID_60_" style="fill:#C4C4C4;" d="M240,236c-3.3,0-6,2.7-6,6s2.7,6,6,6s6-2.7,6-6S243.3,236,240,236z M240,244
				c-1.1,0-2-0.9-2-2s0.9-2,2-2s2,0.9,2,2S241.1,244,240,244z"/>
			<path id="XMLID_63_" style="fill:#C4C4C4;" d="M220,236c-3.3,0-6,2.7-6,6s2.7,6,6,6s6-2.7,6-6S223.3,236,220,236z M220,244
				c-1.1,0-2-0.9-2-2s0.9-2,2-2s2,0.9,2,2S221.1,244,220,244z"/>
			<path id="XMLID_66_" style="fill:#C4C4C4;" d="M200,236c-3.3,0-6,2.7-6,6s2.7,6,6,6s6-2.7,6-6S203.3,236,200,236z M200,244
				c-1.1,0-2-0.9-2-2s0.9-2,2-2s2,0.9,2,2S201.1,244,200,244z"/>
			<path id="XMLID_69_" style="fill:#C4C4C4;" d="M180,236c-3.3,0-6,2.7-6,6s2.7,6,6,6s6-2.7,6-6S183.3,236,180,236z M180,244
				c-1.1,0-2-0.9-2-2s0.9-2,2-2s2,0.9,2,2S181.1,244,180,244z"/>
			<path id="XMLID_72_" style="fill:#C4C4C4;" d="M160,236c-3.3,0-6,2.7-6,6s2.7,6,6,6s6-2.7,6-6S163.3,236,160,236z M160,244
				c-1.1,0-2-0.9-2-2s0.9-2,2-2s2,0.9,2,2S161.1,244,160,244z"/>
			<path id="XMLID_75_" style="fill:#C4C4C4;" d="M140,236c-3.3,0-6,2.7-6,6s2.7,6,6,6s6-2.7,6-6S143.3,236,140,236z M140,244
				c-1.1,0-2-0.9-2-2s0.9-2,2-2s2,0.9,2,2S141.1,244,140,244z"/>
			<path id="XMLID_78_" style="fill:#C4C4C4;" d="M120,236c-3.3,0-6,2.7-6,6s2.7,6,6,6s6-2.7,6-6S123.3,236,120,236z M120,244
				c-1.1,0-2-0.9-2-2s0.9-2,2-2s2,0.9,2,2S121.1,244,120,244z"/>
			<path id="XMLID_81_" style="fill:#C4C4C4;" d="M100,236c-3.3,0-6,2.7-6,6s2.7,6,6,6s6-2.7,6-6S103.3,236,100,236z M100,244
				c-1.1,0-2-0.9-2-2s0.9-2,2-2s2,0.9,2,2S101.1,244,100,244z"/>
			<path id="XMLID_84_" style="fill:#C4C4C4;" d="M80,236c-3.3,0-6,2.7-6,6s2.7,6,6,6s6-2.7,6-6S83.3,236,80,236z M80,244
				c-1.1,0-2-0.9-2-2s0.9-2,2-2s2,0.9,2,2S81.1,244,80,244z"/>
		</g>
	</g>
	<g id="XMLID_91_" style="display:inline;">
		<path id="XMLID_95_" style="fill:#9E9E9E;" d="M164,130v28h124v-28H164z M284,154H168v-20h116V154z"/>
		<rect id="XMLID_96_" x="168" y="134" style="fill:#FFFFFF;" width="116" height="20"/>
	</g>
	<g id="XMLID_88_" style="display:inline;">
		<path id="XMLID_98_" style="fill:#9E9E9E;" d="M170,154v76h112v-76H170z M278,226H174v-68h104V226z"/>
		<rect id="XMLID_99_" x="174" y="158" style="fill:#FFFFFF;" width="104" height="68"/>
	</g>
	<g id="XMLID_106_" style="display:inline;">
		<g id="XMLID_92_">
			<path id="XMLID_103_" style="fill:#9E9E9E;" d="M294,122v108h44V122H294z M334,226h-36V126h36V226z"/>
			<rect id="XMLID_104_" x="298" y="126" style="fill:#FFFFFF;" width="36" height="100"/>
		</g>
		<rect id="XMLID_89_" x="304" y="144" style="fill:#C4C4C4;" width="24" height="4"/>
		<rect id="XMLID_100_" x="304" y="154" style="fill:#C4C4C4;" width="24" height="4"/>
		<rect id="XMLID_105_" x="304" y="164" style="fill:#C4C4C4;" width="16" height="4"/>
		<path id="XMLID_111_" style="fill:#C4C4C4;" d="M316,194c-5.5,0-10,4.5-10,10c0,5.5,4.5,10,10,10s10-4.5,10-10
			C326,198.5,321.5,194,316,194z M316,210c-3.3,0-6-2.7-6-6s2.7-6,6-6s6,2.7,6,6S319.3,210,316,210z"/>
	</g>
	<g id="XMLID_116_" style="display:inline;">
		<rect id="XMLID_108_" x="358" y="202" style="fill:#C4C4C4;" width="24" height="4"/>
		<rect id="XMLID_112_" x="376" y="176" style="fill:#C4C4C4;" width="44" height="4"/>
		<rect id="XMLID_113_" x="204" y="92" style="fill:#C4C4C4;" width="44" height="4"/>
		<rect id="XMLID_114_" x="60" y="148" style="fill:#C4C4C4;" width="56" height="4"/>
		<rect id="XMLID_115_" x="116" y="176" style="fill:#C4C4C4;" width="24" height="4"/>
	</g>
</g>
<g id="invoice_x5F_empty" style="display:none;">
	<g id="Layer_5" style="display:inline;">
	</g>
	<g id="XMLID_177_" style="display:inline;">
		<rect id="XMLID_3_" x="228" y="164" style="fill:#9E9E9E;" width="116" height="144"/>
		<rect id="XMLID_119_" x="232" y="168" style="fill:#E4F2FB;" width="108" height="136"/>
		<rect id="XMLID_118_" x="216" y="152" style="fill:#9E9E9E;" width="116" height="144"/>
		<rect id="XMLID_121_" x="220" y="156" style="fill:#FFFFFF;" width="108" height="136"/>
		<g id="XMLID_132_">
			<path id="XMLID_128_" style="fill:#C4C4C4;" d="M230,166v24h24v-24H230z M250,186h-16v-16h16V186z"/>
			<rect id="XMLID_120_" x="230" y="204" style="fill:#C4C4C4;" width="48" height="4"/>
			<rect id="XMLID_123_" x="230" y="218" style="fill:#C4C4C4;" width="88" height="4"/>
			<rect id="XMLID_124_" x="230" y="232" style="fill:#C4C4C4;" width="88" height="4"/>
			<rect id="XMLID_125_" x="230" y="246" style="fill:#C4C4C4;" width="88" height="4"/>
			<rect id="XMLID_126_" x="292" y="222" style="fill:#C4C4C4;" width="4" height="24"/>
			<rect id="XMLID_129_" x="304" y="222" style="fill:#C4C4C4;" width="4" height="24"/>
			<rect id="XMLID_130_" x="240" y="222" style="fill:#C4C4C4;" width="4" height="24"/>
			<rect id="XMLID_131_" x="290" y="260" style="fill:#C4C4C4;" width="28" height="4"/>
		</g>
	</g>
	<g id="XMLID_136_" style="display:inline;">
		<rect id="XMLID_133_" x="42" y="120" style="fill:#9E9E9E;" width="124" height="68"/>
		<rect id="XMLID_135_" x="46" y="124" style="fill:#E4F2FB;" width="116" height="60"/>
		<rect id="XMLID_134_" x="30" y="108" style="fill:#9E9E9E;" width="124" height="68"/>
		<rect id="XMLID_137_" x="34" y="112" style="fill:#FFFFFF;" width="116" height="60"/>
	</g>
	<g id="XMLID_139_" style="display:inline;">
		<path id="XMLID_143_" style="fill:#C4C4C4;" d="M92,118c-13.3,0-24,10.7-24,24v0c0,13.3,10.7,24,24,24s24-10.7,24-24v0
			C116,128.7,105.3,118,92,118z M92,162c-11,0-20-9-20-20s9-20,20-20s20,9,20,20S103,162,92,162z"/>
		<g id="XMLID_138_">
			<path id="XMLID_140_" style="fill:#C4C4C4;" d="M90.2,155.8v-3c-2.1-0.1-4.2-0.7-5.4-1.4l1-3.7c1.3,0.7,3.2,1.4,5.3,1.4
				c1.8,0,3.1-0.7,3.1-2c0-1.2-1-2-3.4-2.8c-3.4-1.2-5.8-2.8-5.8-5.9c0-2.8,2-5,5.4-5.7v-3h3.1v2.8c2.1,0.1,3.6,0.5,4.6,1.1
				l-0.9,3.6c-0.8-0.4-2.3-1.1-4.6-1.1c-2.1,0-2.8,0.9-2.8,1.8c0,1.1,1.1,1.7,3.8,2.8c3.8,1.3,5.3,3.1,5.3,6c0,2.8-2,5.3-5.7,5.9
				v3.3H90.2z"/>
		</g>
	</g>
	<g id="XMLID_155_" style="display:inline;">
		<g id="XMLID_151_">
			<path id="XMLID_153_" style="fill:#9E9E9E;" d="M432,180L432,180c-18.8,0-34,15.2-34,34v0c0,18.8,15.2,34,34,34h0
				c18.8,0,34-15.2,34-34v0C466,195.2,450.8,180,432,180z"/>
			<path id="XMLID_152_" style="fill:#E4F2FB;" d="M432,244c-16.5,0-30-13.5-30-30s13.5-30,30-30s30,13.5,30,30S448.5,244,432,244z"
				/>
		</g>
		<g id="XMLID_148_">
			<path id="XMLID_150_" style="fill:#9E9E9E;" d="M432,166L432,166c-18.8,0-34,15.2-34,34v0c0,18.8,15.2,34,34,34h0
				c18.8,0,34-15.2,34-34v0C466,181.2,450.8,166,432,166z"/>
			<path id="XMLID_149_" style="fill:#E4F2FB;" d="M432,230c-16.5,0-30-13.5-30-30s13.5-30,30-30s30,13.5,30,30S448.5,230,432,230z"
				/>
		</g>
		<g id="XMLID_146_">
			<path id="XMLID_145_" style="fill:#9E9E9E;" d="M432,152L432,152c-18.8,0-34,15.2-34,34v0c0,18.8,15.2,34,34,34h0
				c18.8,0,34-15.2,34-34v0C466,167.2,450.8,152,432,152z"/>
			<path id="XMLID_147_" style="fill:#FFFFFF;" d="M432,216c-16.5,0-30-13.5-30-30s13.5-30,30-30s30,13.5,30,30S448.5,216,432,216z"
				/>
		</g>
		<g id="XMLID_154_">
			<path id="XMLID_156_" style="fill:#C4C4C4;" d="M438.9,197c-1.2,0.7-3.3,1.4-5.6,1.4c-3.5,0-6.8-1.4-8.8-4.1
				c-1-1.2-1.7-2.8-2-4.7h-2.3v-2.6h2c0-0.2,0-0.4,0-0.6c0-0.4,0-0.7,0-1.1h-2v-2.6h2.4c0.5-1.9,1.3-3.6,2.5-4.9
				c2.1-2.3,4.9-3.7,8.3-3.7c2.2,0,4.1,0.5,5.4,1.1l-1,4.1c-0.9-0.4-2.4-0.9-4-0.9c-1.7,0-3.3,0.6-4.4,1.9c-0.5,0.6-0.9,1.4-1.2,2.3
				h9v2.6h-9.5c0,0.4,0,0.8,0,1.1c0,0.2,0,0.4,0,0.6h9.5v2.6h-9c0.3,1.1,0.6,1.9,1.2,2.5c1.2,1.3,2.8,1.8,4.6,1.8
				c1.7,0,3.3-0.5,4.1-0.9L438.9,197z"/>
		</g>
	</g>
	<g id="XMLID_163_" style="display:inline;">
		<rect id="XMLID_158_" x="94" y="224" style="fill:#C4C4C4;" width="56" height="4"/>
		<rect id="XMLID_159_" x="150" y="252" style="fill:#C4C4C4;" width="24" height="4"/>
		<rect id="XMLID_160_" x="376" y="100" style="fill:#C4C4C4;" width="24" height="4"/>
		<rect id="XMLID_161_" x="390" y="72" style="fill:#C4C4C4;" width="56" height="4"/>
		<rect id="XMLID_162_" x="376" y="282" style="fill:#C4C4C4;" width="24" height="4"/>
	</g>
	<g id="XMLID_176_" style="display:inline;">
		<g id="XMLID_172_">
			<path id="XMLID_175_" style="fill:#9E9E9E;" d="M322.9,61.4l-54.4-13.2c-4.3-1-8.6,1.6-9.7,5.9l-7.5,31.1c-1,4.3,1.6,8.6,5.9,9.7
				l54.4,13.2c4.3,1,8.6-1.6,9.7-5.9l7.5-31.1C329.8,66.8,327.1,62.5,322.9,61.4z"/>
			<path id="XMLID_174_" style="fill:#E4F2FB;" d="M258.1,91c-2.1-0.5-3.5-2.7-2.9-4.8l7.5-31.1c0.5-2.1,2.7-3.5,4.8-2.9l54.4,13.2
				c2.1,0.5,3.5,2.7,2.9,4.8l-7.5,31.1c-0.5,2.1-2.7,3.5-4.8,2.9L258.1,91z"/>
			<polygon id="XMLID_173_" style="fill:#9E9E9E;" points="322,84 259.4,68.7 261.7,58.9 325,74 			"/>
		</g>
		<g id="XMLID_168_">
			<path id="XMLID_171_" style="fill:#9E9E9E;" d="M311.2,52.5l-55.4-8.4c-4.4-0.7-8.4,2.3-9.1,6.7l-4.8,31.6
				c-0.7,4.4,2.3,8.4,6.7,9.1L304,100c4.4,0.7,8.4-2.3,9.1-6.7l4.8-31.6C318.6,57.2,315.6,53.2,311.2,52.5z"/>
			<path id="XMLID_170_" style="fill:#E4F2FB;" d="M249.2,87.6c-2.2-0.3-3.7-2.4-3.4-4.6l4.8-31.6c0.3-2.2,2.4-3.7,4.6-3.4l55.4,8.4
				c2.2,0.3,3.7,2.4,3.4,4.6l-4.8,31.6c-0.3,2.2-2.4,3.7-4.6,3.4L249.2,87.6z"/>
			<polygon id="XMLID_169_" style="fill:#9E9E9E;" points="313,75 248.6,65.2 250.1,55.4 315,65 			"/>
		</g>
		<g id="XMLID_167_">
			<path id="XMLID_164_" style="fill:#9E9E9E;" d="M298,44h-56c-4.4,0-8,3.6-8,8v32c0,4.4,3.6,8,8,8h56c4.4,0,8-3.6,8-8V52
				C306,47.6,302.4,44,298,44z"/>
			<path id="XMLID_166_" style="fill:#FFFFFF;" d="M242,88c-2.2,0-4-1.8-4-4V52c0-2.2,1.8-4,4-4h56c2.2,0,4,1.8,4,4v32
				c0,2.2-1.8,4-4,4H242z"/>
			<rect id="XMLID_165_" x="238" y="56" style="fill:#9E9E9E;" width="64" height="10"/>
		</g>
	</g>
</g>
<g id="projects_x5F_empty" style="display:none;">
	<g id="XMLID_1_" style="display:inline;">
		<path id="XMLID_186_" style="fill:#9E9E9E;" d="M176,143h-72c-4.4,0-8,3.6-8,8v92c0,4.4,3.6,8,8,8h72c4.4,0,8-3.6,8-8v-92
			C184,146.6,180.4,143,176,143z M180,243c0,2.2-1.8,4-4,4h-72c-2.2,0-4-1.8-4-4v-92c0-2.2,1.8-4,4-4h72c2.2,0,4,1.8,4,4V243z"/>
		<path id="XMLID_180_" style="fill:#FFFFFF;" d="M180,151c0-2.2-1.8-4-4-4h-72c-2.2,0-4,1.8-4,4v78h80V151z"/>
		<path id="XMLID_188_" style="fill:#E4F2FB;" d="M104,247h72c2.2,0,4-1.8,4-4v-14h-80v14C100,245.2,101.8,247,104,247z"/>
		<rect id="XMLID_179_" x="112" y="161" style="fill:#C4C4C4;" width="56" height="4"/>
		<rect id="XMLID_181_" x="112" y="175" style="fill:#C4C4C4;" width="36" height="4"/>
	</g>
	<g id="XMLID_182_" style="display:inline;">
		<path id="XMLID_191_" style="fill:#9E9E9E;" d="M284,123h-72c-4.4,0-8,3.6-8,8v92c0,4.4,3.6,8,8,8h72c4.4,0,8-3.6,8-8v-92
			C292,126.6,288.4,123,284,123z M288,223c0,2.2-1.8,4-4,4h-72c-2.2,0-4-1.8-4-4v-92c0-2.2,1.8-4,4-4h72c2.2,0,4,1.8,4,4V223z"/>
		<path id="XMLID_190_" style="fill:#FFFFFF;" d="M288,131c0-2.2-1.8-4-4-4h-72c-2.2,0-4,1.8-4,4v78h80V131z"/>
		<path id="XMLID_189_" style="fill:#E4F2FB;" d="M212,227h72c2.2,0,4-1.8,4-4v-14h-80v14C208,225.2,209.8,227,212,227z"/>
		<rect id="XMLID_187_" x="220" y="141" style="fill:#C4C4C4;" width="56" height="4"/>
		<rect id="XMLID_183_" x="220" y="155" style="fill:#C4C4C4;" width="36" height="4"/>
	</g>
	<g id="XMLID_194_" style="display:inline;">
		<path id="XMLID_199_" style="fill:#9E9E9E;" d="M392,103h-72c-4.4,0-8,3.6-8,8v92c0,4.4,3.6,8,8,8h72c4.4,0,8-3.6,8-8v-92
			C400,106.6,396.4,103,392,103z M396,203c0,2.2-1.8,4-4,4h-72c-2.2,0-4-1.8-4-4v-92c0-2.2,1.8-4,4-4h72c2.2,0,4,1.8,4,4V203z"/>
		<path id="XMLID_198_" style="fill:#FFFFFF;" d="M396,111c0-2.2-1.8-4-4-4h-72c-2.2,0-4,1.8-4,4v78h80V111z"/>
		<path id="XMLID_197_" style="fill:#E4F2FB;" d="M320,207h72c2.2,0,4-1.8,4-4v-14h-80v14C316,205.2,317.8,207,320,207z"/>
		<rect id="XMLID_196_" x="328" y="121" style="fill:#C4C4C4;" width="56" height="4"/>
		<rect id="XMLID_195_" x="328" y="135" style="fill:#C4C4C4;" width="36" height="4"/>
	</g>
	<g id="XMLID_209_" style="display:inline;">
		<rect id="XMLID_202_" x="366" y="245" style="fill:#C4C4C4;" width="44" height="4"/>
		<rect id="XMLID_203_" x="266" y="283" style="fill:#C4C4C4;" width="24" height="4"/>
		<rect id="XMLID_204_" x="42" y="243" style="fill:#C4C4C4;" width="24" height="4"/>
		<rect id="XMLID_205_" x="26" y="143" style="fill:#C4C4C4;" width="44" height="4"/>
		<rect id="XMLID_206_" x="132" y="63" style="fill:#C4C4C4;" width="24" height="4"/>
		<rect id="XMLID_207_" x="214" y="83" style="fill:#C4C4C4;" width="44" height="4"/>
		<rect id="XMLID_208_" x="434" y="153" style="fill:#C4C4C4;" width="44" height="4"/>
	</g>
</g>
<g id="recurring_x5F_empty" style="display:none;">
	<g id="XMLID_229_" style="display:inline;">
		<path id="XMLID_215_" style="fill:#9E9E9E;" d="M154,138H70c-3.3,0-6,2.7-6,6v84c0,3.3,2.7,6,6,6h84c3.3,0,6-2.7,6-6v-84
			C160,140.7,157.3,138,154,138z M156,228c0,1.1-0.9,2-2,2H70c-1.1,0-2-0.9-2-2v-84c0-1.1,0.9-2,2-2h84c1.1,0,2,0.9,2,2V228z"/>
		<path id="XMLID_216_" style="fill:#FFFFFF;" d="M154,142H70c-1.1,0-2,0.9-2,2v84c0,1.1,0.9,2,2,2h84c1.1,0,2-0.9,2-2v-84
			C156,142.9,155.1,142,154,142z"/>
		<g id="XMLID_224_">
			<path id="XMLID_219_" style="fill:#C4C4C4;" d="M89,154c-5,0-9,4-9,9s4,9,9,9s9-4,9-9S94,154,89,154z M89,168c-2.8,0-5-2.2-5-5
				s2.2-5,5-5s5,2.2,5,5S91.8,168,89,168z"/>
			<path id="XMLID_178_" style="fill:#C4C4C4;" d="M89,164L89,164c-0.6,0-1-0.4-1-1l0,0c0-0.6,0.4-1,1-1l0,0c0.6,0,1,0.4,1,1l0,0
				C90,163.6,89.6,164,89,164z"/>
			<path id="XMLID_223_" style="fill:#C4C4C4;" d="M130,186c-9.9,0-18,8.1-18,18v0c0,9.9,8.1,18,18,18s18-8.1,18-18v0
				C148,194.1,139.9,186,130,186z M130,218c-7.7,0-14-6.3-14-14s6.3-14,14-14s14,6.3,14,14S137.7,218,130,218z"/>
			<path id="XMLID_211_" style="fill:#C4C4C4;" d="M130,208L130,208c-2.2,0-4-1.8-4-4l0,0c0-2.2,1.8-4,4-4l0,0c2.2,0,4,1.8,4,4l0,0
				C134,206.2,132.2,208,130,208z"/>
			
				<rect id="XMLID_212_" x="91.4" y="172" transform="matrix(0.8085 0.5885 -0.5885 0.8085 124.411 -34.3776)" style="fill:#C4C4C4;" width="47.2" height="4"/>
			
				<rect id="XMLID_220_" x="76.9" y="186.7" transform="matrix(0.5886 0.8084 -0.8084 0.5886 193.9264 -3.5914)" style="fill:#C4C4C4;" width="47.2" height="4"/>
		</g>
		<rect id="XMLID_225_" x="72" y="230" style="fill:#9E9E9E;" width="80" height="12"/>
		<rect id="XMLID_227_" x="76" y="234" style="fill:#E4F2FB;" width="72" height="4"/>
		<path id="XMLID_232_" style="fill:#9E9E9E;" d="M72,114v28h80v-28H72z M148,138H76v-20h72V138z"/>
		<rect id="XMLID_226_" x="76" y="122" style="fill:#9E9E9E;" width="72" height="4"/>
		<rect id="XMLID_228_" x="76" y="130" style="fill:#9E9E9E;" width="72" height="4"/>
	</g>
	<g id="XMLID_282_" style="display:inline;">
		<g id="XMLID_245_">
			<path id="XMLID_238_" style="fill:#9E9E9E;" d="M232,198v96h72v-96H232z M300,290h-64v-88h64V290z"/>
			<rect id="XMLID_239_" x="236" y="202" style="fill:#FFFFFF;" width="64" height="88"/>
			<g id="XMLID_244_">
				<path id="XMLID_242_" style="fill:#C4C4C4;" d="M244,210v16h16v-16H244z M256,222h-8v-8h8V222z"/>
				<rect id="XMLID_233_" x="244" y="240" style="fill:#C4C4C4;" width="36" height="4"/>
				<rect id="XMLID_234_" x="244" y="252" style="fill:#C4C4C4;" width="48" height="4"/>
				<rect id="XMLID_235_" x="244" y="264" style="fill:#C4C4C4;" width="48" height="4"/>
				<rect id="XMLID_243_" x="264" y="276" style="fill:#C4C4C4;" width="28" height="4"/>
			</g>
		</g>
		<g id="XMLID_246_">
			<path id="XMLID_256_" style="fill:#9E9E9E;" d="M232,76v96h72V76H232z M300,168h-64V80h64V168z"/>
			<rect id="XMLID_255_" x="236" y="80" style="fill:#FFFFFF;" width="64" height="88"/>
			<g id="XMLID_247_">
				<path id="XMLID_252_" style="fill:#C4C4C4;" d="M244,88v16h16V88H244z M256,100h-8v-8h8V100z"/>
				<rect id="XMLID_251_" x="244" y="118" style="fill:#C4C4C4;" width="36" height="4"/>
				<rect id="XMLID_250_" x="244" y="130" style="fill:#C4C4C4;" width="48" height="4"/>
				<rect id="XMLID_249_" x="244" y="142" style="fill:#C4C4C4;" width="48" height="4"/>
				<rect id="XMLID_248_" x="264" y="154" style="fill:#C4C4C4;" width="28" height="4"/>
			</g>
		</g>
	</g>
	<g id="XMLID_281_" style="display:inline;">
		<g id="XMLID_269_">
			<rect id="XMLID_265_" x="376" y="104" style="fill:#FFFFFF;" width="56" height="36"/>
			<g id="XMLID_268_">
				<path id="XMLID_264_" style="fill:#9E9E9E;" d="M372,100v44h64v-44H372z M432,140h-56v-36h56V140z"/>
				<g id="XMLID_259_">
					
						<rect id="XMLID_266_" x="382" y="115.7" transform="matrix(0.6888 0.7249 -0.7249 0.6888 213.3751 -238.0777)" style="fill:#A7A9AC;" width="4" height="27.6"/>
				</g>
				<g id="XMLID_260_">
					
						<rect id="XMLID_267_" x="409.6" y="127.5" transform="matrix(0.725 0.6887 -0.6887 0.725 205.6222 -255.9888)" style="fill:#A7A9AC;" width="27.6" height="4"/>
				</g>
				<polygon id="XMLID_261_" style="fill:#A7A9AC;" points="405,128 434,113 434,109 405,123 404,123 374,108 374,112 404,128 				
					"/>
			</g>
		</g>
		<g id="XMLID_270_">
			<rect id="XMLID_280_" x="376" y="244" style="fill:#FFFFFF;" width="56" height="36"/>
			<g id="XMLID_271_">
				<path id="XMLID_277_" style="fill:#9E9E9E;" d="M372,240v44h64v-44H372z M432,280h-56v-36h56V280z"/>
				<g id="XMLID_275_">
					
						<rect id="XMLID_276_" x="382" y="255.7" transform="matrix(0.6888 0.7249 -0.7249 0.6888 314.8665 -194.5116)" style="fill:#A7A9AC;" width="4" height="27.6"/>
				</g>
				<g id="XMLID_273_">
					
						<rect id="XMLID_274_" x="409.6" y="267.5" transform="matrix(0.725 0.6887 -0.6887 0.725 302.0471 -217.4887)" style="fill:#A7A9AC;" width="27.6" height="4"/>
				</g>
				<polygon id="XMLID_272_" style="fill:#A7A9AC;" points="405,268 434,253 434,249 405,263 404,263 374,248 374,252 404,268 				
					"/>
			</g>
		</g>
	</g>
	<g id="XMLID_299_" style="display:inline;">
		<g id="XMLID_298_">
			<path id="XMLID_283_" style="fill:#C4C4C4;" d="M323,122L323,122c-1.7,0-3-1.3-3-3l0,0c0-1.7,1.3-3,3-3l0,0c1.7,0,3,1.3,3,3l0,0
				C326,120.7,324.7,122,323,122z"/>
			<path id="XMLID_284_" style="fill:#C4C4C4;" d="M339,122L339,122c-1.7,0-3-1.3-3-3l0,0c0-1.7,1.3-3,3-3l0,0c1.7,0,3,1.3,3,3l0,0
				C342,120.7,340.7,122,339,122z"/>
			<path id="XMLID_285_" style="fill:#C4C4C4;" d="M355,122L355,122c-1.7,0-3-1.3-3-3l0,0c0-1.7,1.3-3,3-3l0,0c1.7,0,3,1.3,3,3l0,0
				C358,120.7,356.7,122,355,122z"/>
		</g>
		<g id="XMLID_297_">
			<path id="XMLID_286_" style="fill:#C4C4C4;" d="M323,262L323,262c-1.7,0-3-1.3-3-3l0,0c0-1.7,1.3-3,3-3l0,0c1.7,0,3,1.3,3,3l0,0
				C326,260.7,324.7,262,323,262z"/>
			<path id="XMLID_287_" style="fill:#C4C4C4;" d="M339,262L339,262c-1.7,0-3-1.3-3-3l0,0c0-1.7,1.3-3,3-3l0,0c1.7,0,3,1.3,3,3l0,0
				C342,260.7,340.7,262,339,262z"/>
			<path id="XMLID_288_" style="fill:#C4C4C4;" d="M355,262L355,262c-1.7,0-3-1.3-3-3l0,0c0-1.7,1.3-3,3-3l0,0c1.7,0,3,1.3,3,3l0,0
				C358,260.7,356.7,262,355,262z"/>
		</g>
		<g id="XMLID_295_">
			<path id="XMLID_289_" style="fill:#C4C4C4;" d="M207,160L207,160c-1.7,0-3-1.3-3-3l0,0c0-1.7,1.3-3,3-3l0,0c1.7,0,3,1.3,3,3l0,0
				C210,158.7,208.7,160,207,160z"/>
			<path id="XMLID_290_" style="fill:#C4C4C4;" d="M175,160L175,160c-1.7,0-3-1.3-3-3l0,0c0-1.7,1.3-3,3-3l0,0c1.7,0,3,1.3,3,3l0,0
				C178,158.7,176.7,160,175,160z"/>
			<path id="XMLID_291_" style="fill:#C4C4C4;" d="M191,160L191,160c-1.7,0-3-1.3-3-3l0,0c0-1.7,1.3-3,3-3l0,0c1.7,0,3,1.3,3,3l0,0
				C194,158.7,192.7,160,191,160z"/>
		</g>
		<g id="XMLID_296_">
			<path id="XMLID_292_" style="fill:#C4C4C4;" d="M175,220L175,220c-1.7,0-3-1.3-3-3l0,0c0-1.7,1.3-3,3-3l0,0c1.7,0,3,1.3,3,3l0,0
				C178,218.7,176.7,220,175,220z"/>
			<path id="XMLID_293_" style="fill:#C4C4C4;" d="M191,220L191,220c-1.7,0-3-1.3-3-3l0,0c0-1.7,1.3-3,3-3l0,0c1.7,0,3,1.3,3,3l0,0
				C194,218.7,192.7,220,191,220z"/>
			<path id="XMLID_294_" style="fill:#C4C4C4;" d="M207,220L207,220c-1.7,0-3-1.3-3-3l0,0c0-1.7,1.3-3,3-3l0,0c1.7,0,3,1.3,3,3l0,0
				C210,218.7,208.7,220,207,220z"/>
		</g>
	</g>
	<g id="XMLID_302_" style="display:inline;">
		<polygon id="XMLID_300_" style="fill:#9E9E9E;" points="120,86 130,86 114,108 120,92 110,92 124,72 		"/>
		<polygon id="XMLID_301_" style="fill:#9E9E9E;" points="100,65 106,65 97,78 100,68 94,68 103,56 		"/>
	</g>
</g>
<g id="team_x5F_empty" style="display:none;">
	<g id="XMLID_362_" style="display:inline;">
		<path id="XMLID_308_" style="fill:#9E9E9E;" d="M233,82L233,82c-61.9,0-112,50.1-112,112v0c0,61.9,50.1,112,112,112h0
			c61.9,0,112-50.1,112-112v0C345,132.1,294.9,82,233,82z M233,302c-59.6,0-108-48.4-108-108c0-59.6,48.4-108,108-108
			c59.6,0,108,48.4,108,108C341,253.6,292.6,302,233,302z"/>
		<path id="XMLID_309_" style="fill:#E4F2FB;" d="M233,86c-59.6,0-108,48.4-108,108c0,59.6,48.4,108,108,108
			c59.6,0,108-48.4,108-108C341,134.4,292.6,86,233,86z"/>
		<g id="XMLID_361_">
			<g id="XMLID_310_">
				<path id="XMLID_322_" style="fill:#FFFFFF;" d="M185,180c-15.4,0-28,12.6-28,28s12.6,28,28,28s28-12.6,28-28S200.4,180,185,180z
					"/>
				<path id="XMLID_315_" style="fill:#C4C4C4;" d="M185,176L185,176c-17.7,0-32,14.3-32,32v0c0,17.7,14.3,32,32,32h0
					c17.7,0,32-14.3,32-32v0C217,190.3,202.7,176,185,176z M185,236c-15.4,0-28-12.6-28-28s12.6-28,28-28s28,12.6,28,28
					S200.4,236,185,236z"/>
				<path id="XMLID_313_" style="fill:#9E9E9E;" d="M175,204L175,204c-2.2,0-4-1.8-4-4l0,0c0-2.2,1.8-4,4-4l0,0c2.2,0,4,1.8,4,4l0,0
					C179,202.2,177.2,204,175,204z"/>
				<path id="XMLID_312_" style="fill:#9E9E9E;" d="M195,204L195,204c-2.2,0-4-1.8-4-4l0,0c0-2.2,1.8-4,4-4l0,0c2.2,0,4,1.8,4,4l0,0
					C199,202.2,197.2,204,195,204z"/>
				<path id="XMLID_311_" style="fill:#C4C4C4;" d="M184.5,224c-6.3,0-11.7-4.2-13.4-10H167c1.8,8,9,14,17.5,14s15.7-6,17.5-14h-4.1
					C196.2,219.8,190.9,224,184.5,224z"/>
			</g>
			<g id="XMLID_323_">
				<path id="XMLID_330_" style="fill:#FFFFFF;" d="M265,210c-15.4,0-28,12.6-28,28s12.6,28,28,28s28-12.6,28-28S280.4,210,265,210z
					"/>
				<path id="XMLID_327_" style="fill:#C4C4C4;" d="M265,206L265,206c-17.7,0-32,14.3-32,32v0c0,17.7,14.3,32,32,32h0
					c17.7,0,32-14.3,32-32v0C297,220.3,282.7,206,265,206z M265,266c-15.4,0-28-12.6-28-28s12.6-28,28-28s28,12.6,28,28
					S280.4,266,265,266z"/>
				<path id="XMLID_326_" style="fill:#9E9E9E;" d="M255,234L255,234c-2.2,0-4-1.8-4-4l0,0c0-2.2,1.8-4,4-4l0,0c2.2,0,4,1.8,4,4l0,0
					C259,232.2,257.2,234,255,234z"/>
				<path id="XMLID_325_" style="fill:#9E9E9E;" d="M275,234L275,234c-2.2,0-4-1.8-4-4l0,0c0-2.2,1.8-4,4-4l0,0c2.2,0,4,1.8,4,4l0,0
					C279,232.2,277.2,234,275,234z"/>
				<path id="XMLID_324_" style="fill:#C4C4C4;" d="M264.5,254c-6.3,0-11.7-4.2-13.4-10H247c1.8,8,9,14,17.5,14s15.7-6,17.5-14h-4.1
					C276.2,249.8,270.9,254,264.5,254z"/>
			</g>
			<g id="XMLID_331_">
				<path id="XMLID_338_" style="fill:#FFFFFF;" d="M245,122c-15.4,0-28,12.6-28,28s12.6,28,28,28s28-12.6,28-28S260.4,122,245,122z
					"/>
				<path id="XMLID_335_" style="fill:#C4C4C4;" d="M245,118L245,118c-17.7,0-32,14.3-32,32v0c0,17.7,14.3,32,32,32h0
					c17.7,0,32-14.3,32-32v0C277,132.3,262.7,118,245,118z M245,178c-15.4,0-28-12.6-28-28s12.6-28,28-28s28,12.6,28,28
					S260.4,178,245,178z"/>
				<path id="XMLID_334_" style="fill:#9E9E9E;" d="M235,146L235,146c-2.2,0-4-1.8-4-4l0,0c0-2.2,1.8-4,4-4l0,0c2.2,0,4,1.8,4,4l0,0
					C239,144.2,237.2,146,235,146z"/>
				<path id="XMLID_333_" style="fill:#9E9E9E;" d="M255,146L255,146c-2.2,0-4-1.8-4-4l0,0c0-2.2,1.8-4,4-4l0,0c2.2,0,4,1.8,4,4l0,0
					C259,144.2,257.2,146,255,146z"/>
				<path id="XMLID_332_" style="fill:#C4C4C4;" d="M244.5,166c-6.3,0-11.7-4.2-13.4-10H227c1.8,8,9,14,17.5,14s15.7-6,17.5-14h-4.1
					C256.2,161.8,250.9,166,244.5,166z"/>
			</g>
		</g>
		<path id="XMLID_344_" style="fill:#C4C4C4;" d="M56,126v36h125v-36H56z M177,158H60v-28h117V158z"/>
		<rect id="XMLID_345_" x="60" y="130" style="fill:#FFFFFF;" width="117" height="28"/>
	</g>
	<rect id="XMLID_339_" x="77" y="142" style="display:inline;fill:#C4C4C4;" width="56" height="4"/>
	<g id="XMLID_360_" style="display:inline;">
		<g id="XMLID_305_">
			<path id="XMLID_314_" style="fill:#FFFFFF;" d="M79,250c-15.4,0-28,12.6-28,28s12.6,28,28,28s28-12.6,28-28S94.4,250,79,250z"/>
			<path id="XMLID_321_" style="fill:#C4C4C4;" d="M79,246L79,246c-17.7,0-32,14.3-32,32v0c0,17.7,14.3,32,32,32h0
				c17.7,0,32-14.3,32-32v0C111,260.3,96.7,246,79,246z M79,306c-15.4,0-28-12.6-28-28s12.6-28,28-28s28,12.6,28,28S94.4,306,79,306
				z"/>
			<path id="XMLID_210_" style="fill:#9E9E9E;" d="M69,274L69,274c-2.2,0-4-1.8-4-4l0,0c0-2.2,1.8-4,4-4h0c2.2,0,4,1.8,4,4l0,0
				C73,272.2,71.2,274,69,274z"/>
			<path id="XMLID_304_" style="fill:#9E9E9E;" d="M89,274L89,274c-2.2,0-4-1.8-4-4l0,0c0-2.2,1.8-4,4-4h0c2.2,0,4,1.8,4,4l0,0
				C93,272.2,91.2,274,89,274z"/>
			<path id="XMLID_318_" style="fill:#C4C4C4;" d="M78.5,294c-6.3,0-11.7-4.2-13.4-10H61c1.8,8,9,14,17.5,14s15.7-6,17.5-14h-4.1
				C90.2,289.8,84.9,294,78.5,294z"/>
		</g>
		<g id="XMLID_340_">
			<path id="XMLID_351_" style="fill:#FFFFFF;" d="M419,204c-15.4,0-28,12.6-28,28s12.6,28,28,28s28-12.6,28-28S434.4,204,419,204z"
				/>
			<path id="XMLID_348_" style="fill:#C4C4C4;" d="M419,200L419,200c-17.7,0-32,14.3-32,32v0c0,17.7,14.3,32,32,32h0
				c17.7,0,32-14.3,32-32v0C451,214.3,436.7,200,419,200z M419,260c-15.4,0-28-12.6-28-28s12.6-28,28-28s28,12.6,28,28
				S434.4,260,419,260z"/>
			<path id="XMLID_347_" style="fill:#9E9E9E;" d="M409,228L409,228c-2.2,0-4-1.8-4-4l0,0c0-2.2,1.8-4,4-4l0,0c2.2,0,4,1.8,4,4l0,0
				C413,226.2,411.2,228,409,228z"/>
			<path id="XMLID_346_" style="fill:#9E9E9E;" d="M429,228L429,228c-2.2,0-4-1.8-4-4l0,0c0-2.2,1.8-4,4-4l0,0c2.2,0,4,1.8,4,4l0,0
				C433,226.2,431.2,228,429,228z"/>
			<path id="XMLID_341_" style="fill:#C4C4C4;" d="M418.5,248c-6.3,0-11.7-4.2-13.4-10H401c1.8,8,9,14,17.5,14s15.7-6,17.5-14h-4.1
				C430.2,243.8,424.9,248,418.5,248z"/>
		</g>
		<g id="XMLID_352_">
			<path id="XMLID_359_" style="fill:#FFFFFF;" d="M339,44c-15.4,0-28,12.6-28,28s12.6,28,28,28s28-12.6,28-28S354.4,44,339,44z"/>
			<path id="XMLID_356_" style="fill:#C4C4C4;" d="M339,40L339,40c-17.7,0-32,14.3-32,32v0c0,17.7,14.3,32,32,32h0
				c17.7,0,32-14.3,32-32v0C371,54.3,356.7,40,339,40z M339,100c-15.4,0-28-12.6-28-28s12.6-28,28-28s28,12.6,28,28
				S354.4,100,339,100z"/>
			<path id="XMLID_355_" style="fill:#9E9E9E;" d="M329,68L329,68c-2.2,0-4-1.8-4-4v0c0-2.2,1.8-4,4-4l0,0c2.2,0,4,1.8,4,4v0
				C333,66.2,331.2,68,329,68z"/>
			<path id="XMLID_354_" style="fill:#9E9E9E;" d="M349,68L349,68c-2.2,0-4-1.8-4-4v0c0-2.2,1.8-4,4-4l0,0c2.2,0,4,1.8,4,4v0
				C353,66.2,351.2,68,349,68z"/>
			<path id="XMLID_353_" style="fill:#C4C4C4;" d="M338.5,88c-6.3,0-11.7-4.2-13.4-10H321c1.8,8,9,14,17.5,14s15.7-6,17.5-14h-4.1
				C350.2,83.8,344.9,88,338.5,88z"/>
		</g>
	</g>
</g>
<g id="tasks_x5F_empty" style="display:none;">
	<g id="XMLID_369_" style="display:inline;">
		<g id="XMLID_368_">
			<rect id="XMLID_303_" x="206" y="170" style="fill:#9E9E9E;" width="104" height="132"/>
			<rect id="XMLID_365_" x="210" y="174" style="fill:#E4F2FB;" width="96" height="124"/>
		</g>
		<g id="XMLID_366_">
			<rect id="XMLID_364_" x="192" y="156" style="fill:#9E9E9E;" width="104" height="132"/>
			<rect id="XMLID_367_" x="196" y="160" style="fill:#FFFFFF;" width="96" height="124"/>
		</g>
	</g>
	<path id="XMLID_375_" style="display:inline;fill:#C4C4C4;" d="M214,224v16h16v-16H214z M226,236h-8v-8h8V236z"/>
	<path id="XMLID_370_" style="display:inline;fill:#C4C4C4;" d="M214,248v16h16v-16H214z M226,260h-8v-8h8V260z"/>
	<g id="XMLID_381_" style="display:inline;">
		<rect id="XMLID_376_" x="242" y="182" style="fill:#C4C4C4;" width="32" height="4"/>
		<rect id="XMLID_377_" x="242" y="206" style="fill:#C4C4C4;" width="32" height="4"/>
		<rect id="XMLID_378_" x="242" y="230" style="fill:#C4C4C4;" width="32" height="4"/>
		<rect id="XMLID_379_" x="242" y="254" style="fill:#C4C4C4;" width="32" height="4"/>
	</g>
	<g id="XMLID_402_" style="display:inline;">
		<polygon id="XMLID_383_" style="fill:#C4C4C4;" points="218.1,186.3 229.4,175 232.2,177.8 218.1,192 215.2,189.1 211,184.9 
			213.8,182.1 		"/>
		<polygon id="XMLID_380_" style="fill:#C4C4C4;" points="218.1,210.3 229.4,199 232.2,201.8 218.1,216 215.2,213.1 211,208.9 
			213.8,206.1 		"/>
	</g>
	<g id="XMLID_393_" style="display:inline;">
		<path id="XMLID_382_" style="fill:#C4C4C4;" d="M160,119v16h16v-16H160z M172,131h-8v-8h8V131z"/>
		<path id="XMLID_386_" style="fill:#C4C4C4;" d="M344,141v16h16v-16H344z M356,153h-8v-8h8V153z"/>
		<polygon id="XMLID_389_" style="fill:#C4C4C4;" points="144.9,219.3 156.2,208 159,210.8 144.9,225 142,222.1 137.8,217.9 
			140.6,215.1 		"/>
		<polygon id="XMLID_390_" style="fill:#C4C4C4;" points="282.9,115.3 294.2,104 297,106.8 282.9,121 280,118.1 275.8,113.9 
			278.6,111.1 		"/>
		<polygon id="XMLID_391_" style="fill:#C4C4C4;" points="69,189.3 86,172 89,175 69,195 66.2,192.2 59.8,185.8 62.7,183 		"/>
		<polygon id="XMLID_392_" style="fill:#C4C4C4;" points="407.2,219.3 424.2,202 427.2,205 407.2,225 404.4,222.2 398,215.8 
			400.8,213 		"/>
		<path id="XMLID_398_" style="fill:#C4C4C4;" d="M344,263v26h26v-26H344z M366,285h-18v-18h18V285z"/>
		<path id="XMLID_394_" style="fill:#C4C4C4;" d="M92,265v16h16v-16H92z M104,277h-8v-8h8V277z"/>
	</g>
</g>
<g id="message_x5F_empty" style="display:none;">
	<g id="XMLID_29_" style="display:inline;">
		<path id="XMLID_399_" style="fill:#9E9E9E;" d="M258,283l-3,27l26-24h78c26,0,47-21,47-47v0c0-26-21-47-47-47h-84
			c-26,0-47,21-47,47v0C228,259,240.4,276.2,258,283z"/>
		<path id="XMLID_401_" style="fill:#E4F2FB;" d="M262.3,280.4l-2.9-1.1C243,272.9,232,256.7,232,239c0-23.7,19.3-43,43-43h84
			c23.7,0,43,19.3,43,43s-19.3,43-43,43h-79.6l-19.3,17.8L262.3,280.4z"/>
	</g>
	<path id="XMLID_363_" style="display:inline;fill:#C4C4C4;" d="M276,272L276,272c-17.7,0-32-14.3-32-32v0c0-17.7,14.3-32,32-32h0
		c17.7,0,32,14.3,32,32v0C308,257.7,293.7,272,276,272z"/>
	<g id="XMLID_408_" style="display:inline;">
		<path id="XMLID_404_" style="fill:#FFFFFF;" d="M276,268c-15.4,0-28-12.6-28-28s12.6-28,28-28s28,12.6,28,28S291.4,268,276,268z"
			/>
		<g id="XMLID_403_">
			<g id="XMLID_405_">
				<path id="XMLID_406_" style="fill:#C4C4C4;" d="M266,236L266,236c-2.2,0-4-1.8-4-4l0,0c0-2.2,1.8-4,4-4l0,0c2.2,0,4,1.8,4,4l0,0
					C270,234.2,268.2,236,266,236z"/>
				<path id="XMLID_407_" style="fill:#C4C4C4;" d="M286,236L286,236c-2.2,0-4-1.8-4-4l0,0c0-2.2,1.8-4,4-4l0,0c2.2,0,4,1.8,4,4l0,0
					C290,234.2,288.2,236,286,236z"/>
			</g>
			<path id="XMLID_414_" style="fill:#C4C4C4;" d="M289.4,246h-26.8h-4.1c0.3,1.4,0.8,2.7,1.4,4c2.9,5.9,9,10,16.1,10
				s13.2-4.1,16.1-10c0.6-1.3,1.1-2.6,1.4-4H289.4z M276,256c-4.7,0-8.9-2.4-11.5-6h22.9C284.9,253.6,280.7,256,276,256z"/>
		</g>
	</g>
	<g id="XMLID_409_" style="display:inline;">
		<path id="XMLID_415_" style="fill:#9E9E9E;" d="M273,56h-20c-21.5,0-39,17.5-39,39v0c0,16.5,10.3,30.7,24.8,36.3L236,154l22.6-20
			H273c21.5,0,39-17.5,39-39v0C312,73.5,294.5,56,273,56z"/>
		<path id="XMLID_410_" style="fill:#E4F2FB;" d="M243.2,128.7l-2.9-1.1C226.7,122.3,218,109.5,218,95c0-19.3,15.7-35,35-35h20
			c19.3,0,35,15.7,35,35s-15.7,35-35,35h-15.9l-15.8,14L243.2,128.7z"/>
	</g>
	<g id="XMLID_417_" style="display:inline;">
		<rect id="XMLID_412_" x="244" y="84" style="fill:#C4C4C4;" width="40" height="4"/>
		<rect id="XMLID_416_" x="244" y="100" style="fill:#C4C4C4;" width="32" height="4"/>
	</g>
	<g id="XMLID_418_" style="display:inline;">
		<path id="XMLID_420_" style="fill:#9E9E9E;" d="M131,146h20c21.5,0,39,17.5,39,39v0c0,16.5-10.3,30.7-24.8,36.3L168,244l-22.6-20
			H131c-21.5,0-39-17.5-39-39v0C92,163.5,109.5,146,131,146z"/>
		<path id="XMLID_419_" style="fill:#E4F2FB;" d="M160.8,218.7l2.9-1.1c13.5-5.3,22.3-18.1,22.3-32.6c0-19.3-15.7-35-35-35h-20
			c-19.3,0-35,15.7-35,35s15.7,35,35,35h15.9l15.8,14L160.8,218.7z"/>
	</g>
	<g id="XMLID_430_" style="display:inline;">
		<path id="XMLID_426_" style="fill:#C4C4C4;" d="M120,178c-4.4,0-8,3.6-8,8s3.6,8,8,8s8-3.6,8-8S124.4,178,120,178z M120,190
			c-2.2,0-4-1.8-4-4s1.8-4,4-4s4,1.8,4,4S122.2,190,120,190z"/>
		<path id="XMLID_421_" style="fill:#C4C4C4;" d="M140,178c-4.4,0-8,3.6-8,8s3.6,8,8,8s8-3.6,8-8S144.4,178,140,178z M140,190
			c-2.2,0-4-1.8-4-4s1.8-4,4-4s4,1.8,4,4S142.2,190,140,190z"/>
		<path id="XMLID_427_" style="fill:#C4C4C4;" d="M160,178c-4.4,0-8,3.6-8,8s3.6,8,8,8s8-3.6,8-8S164.4,178,160,178z M160,190
			c-2.2,0-4-1.8-4-4s1.8-4,4-4s4,1.8,4,4S162.2,190,160,190z"/>
	</g>
	<g id="XMLID_434_" style="display:inline;">
		<rect id="XMLID_431_" x="326" y="222" style="fill:#C4C4C4;" width="40" height="4"/>
		<rect id="XMLID_432_" x="326" y="254" style="fill:#C4C4C4;" width="40" height="4"/>
		<rect id="XMLID_433_" x="326" y="238" style="fill:#C4C4C4;" width="32" height="4"/>
	</g>
</g>
<g id="files_x5F_empty" style="display:none;">
	<g id="XMLID_453_" style="display:inline;">
		<g id="XMLID_448_">
			<rect id="XMLID_447_" x="306" y="112" style="fill:#9E9E9E;" width="72" height="92"/>
			<rect id="XMLID_449_" x="310" y="116" style="fill:#FFFFFF;" width="64" height="84"/>
		</g>
		<g id="XMLID_450_">
			<path id="XMLID_451_" style="fill:#9E9E9E;" d="M306,172c0,0,10.2-6,18-6s18.7,3.8,27,10c8.9,5.1,6.6,5.2,15,8c7.8,1.4,12,1,12,1
				v19h-72V172z"/>
			<path id="XMLID_452_" style="fill:#E4F2FB;" d="M310,200v-25.6c3.5-1.8,9.5-4.4,14-4.4c7.2,0,17.4,3.8,24.6,9.2l0.2,0.1l0.2,0.1
				c3.1,1.8,4.8,2.9,6.1,3.8c2.6,1.8,4,2.6,9.6,4.5l0.3,0.1l0.3,0.1c3.6,0.7,6.5,0.9,8.7,1.1v11H310z"/>
		</g>
	</g>
	<g id="XMLID_446_" style="display:inline;">
		<g id="XMLID_438_">
			<rect id="XMLID_436_" x="186" y="188" style="fill:#9E9E9E;" width="148" height="100"/>
			<rect id="XMLID_439_" x="190" y="192" style="fill:#E4F2FB;" width="140" height="92"/>
		</g>
		<g id="XMLID_441_">
			<polygon id="XMLID_440_" style="fill:#9E9E9E;" points="281,192 186,192 186,168 270,168 			"/>
			<polygon id="XMLID_442_" style="fill:#FFFFFF;" points="190,188 190,172 267.4,172 274.8,188 			"/>
		</g>
		<g id="XMLID_444_">
			<polygon id="XMLID_443_" style="fill:#9E9E9E;" points="184,288 190,288 190,200 168,200 			"/>
			<polygon id="XMLID_445_" style="fill:#FFFFFF;" points="172.8,204 186,204 186,276.6 			"/>
		</g>
	</g>
	<g id="XMLID_463_" style="display:inline;">
		<path id="XMLID_459_" style="fill:#C4C4C4;" d="M353,126c-7.2,0-13,5.8-13,13c0,7.2,5.8,13,13,13s13-5.8,13-13
			C366,131.8,360.2,126,353,126z M353,148c-5,0-9-4-9-9s4-9,9-9s9,4,9,9S358,148,353,148z"/>
		<path id="XMLID_461_" style="fill:#E4F2FB;" d="M353,130c-5,0-9,4-9,9s4,9,9,9s9-4,9-9S358,130,353,130z"/>
		<g id="XMLID_462_">
			<rect id="XMLID_454_" x="348" y="140" style="fill:#C4C4C4;" width="2" height="2"/>
			<rect id="XMLID_455_" x="356" y="138" style="fill:#C4C4C4;" width="2" height="2"/>
			<path id="XMLID_456_" style="fill:#C4C4C4;" d="M352,136L352,136c-1.1,0-2-0.9-2-2l0,0c0-1.1,0.9-2,2-2l0,0c1.1,0,2,0.9,2,2l0,0
				C354,135.1,353.1,136,352,136z"/>
			<path id="XMLID_460_" style="fill:#C4C4C4;" d="M358,148L358,148c-1.1,0-2-0.9-2-2l0,0c0-1.1,0.9-2,2-2l0,0c1.1,0,2,0.9,2,2l0,0
				C360,147.1,359.1,148,358,148z"/>
		</g>
	</g>
	<g id="XMLID_465_" style="display:inline;">
		<path id="XMLID_464_" style="fill:#9E9E9E;" d="M268,110h-56V34h32c9.4,9.4,14.6,14.6,24,24V110z"/>
		<polygon id="XMLID_466_" style="fill:#FFFFFF;" points="216,106 216,38 242.3,38 264,59.7 264,106 		"/>
		<path id="XMLID_471_" style="fill:#9E9E9E;" d="M245,35h-4v28h26v-6C258.4,48.4,253.6,43.6,245,35z M263,59h-18V40.7l18,18V59z"/>
	</g>
	<g id="XMLID_476_" style="display:inline;">
		<ellipse id="XMLID_467_" style="fill:#C4C4C4;" cx="142" cy="137" rx="6" ry="5"/>
		<rect id="XMLID_468_" x="144" y="106" style="fill:#C4C4C4;" width="4" height="31"/>
		<rect id="XMLID_472_" x="164" y="102" style="fill:#C4C4C4;" width="4" height="30"/>
		<ellipse id="XMLID_473_" style="fill:#C4C4C4;" cx="162" cy="133" rx="6" ry="5"/>
		
			<rect id="XMLID_474_" x="144.1" y="104" transform="matrix(0.9852 -0.1717 0.1717 0.9852 -15.8057 28.2917)" style="fill:#C4C4C4;" width="23.2" height="3"/>
		
			<rect id="XMLID_475_" x="144.1" y="112" transform="matrix(0.9852 -0.1717 0.1717 0.9852 -17.1791 28.4104)" style="fill:#C4C4C4;" width="23.2" height="3"/>
	</g>
</g>
<g id="notes_x5F_empty" style="display:none;">
	<g id="XMLID_486_" style="display:inline;">
		<rect id="XMLID_435_" x="200" y="190" style="fill:#9E9E9E;" width="100" height="114"/>
		<rect id="XMLID_479_" x="204" y="194" style="fill:#FFFFFF;" width="92" height="106"/>
		<g id="XMLID_478_">
			<rect id="XMLID_480_" x="204" y="206" style="fill:#C4C4C4;" width="92" height="4"/>
			<rect id="XMLID_481_" x="204" y="286" style="fill:#C4C4C4;" width="92" height="4"/>
			<rect id="XMLID_482_" x="204" y="270" style="fill:#C4C4C4;" width="92" height="4"/>
			<rect id="XMLID_483_" x="204" y="254" style="fill:#C4C4C4;" width="92" height="4"/>
			<rect id="XMLID_484_" x="204" y="238" style="fill:#C4C4C4;" width="92" height="4"/>
			<rect id="XMLID_485_" x="204" y="222" style="fill:#C4C4C4;" width="92" height="4"/>
		</g>
	</g>
	<g id="XMLID_499_" style="display:inline;">
		<g id="XMLID_490_">
			<rect id="XMLID_488_" x="80" y="158" style="fill:#9E9E9E;" width="64" height="76"/>
			<rect id="XMLID_489_" x="84" y="162" style="fill:#E4F2FB;" width="56" height="68"/>
		</g>
		<g id="XMLID_487_">
			<rect id="XMLID_491_" x="66" y="144" style="fill:#9E9E9E;" width="64" height="76"/>
			<rect id="XMLID_492_" x="70" y="148" style="fill:#FFFFFF;" width="56" height="68"/>
			<g id="XMLID_493_">
				<rect id="XMLID_494_" x="70" y="156" style="fill:#C4C4C4;" width="56" height="4"/>
				<rect id="XMLID_495_" x="70" y="204" style="fill:#C4C4C4;" width="56" height="4"/>
				<rect id="XMLID_496_" x="70" y="192" style="fill:#C4C4C4;" width="56" height="4"/>
				<rect id="XMLID_497_" x="70" y="180" style="fill:#C4C4C4;" width="56" height="4"/>
				<rect id="XMLID_498_" x="70" y="168" style="fill:#C4C4C4;" width="56" height="4"/>
			</g>
		</g>
	</g>
	<g id="XMLID_500_" style="display:inline;">
		<polygon id="XMLID_517_" style="fill:#E4F2FB;" points="342,122 337.9,115 324.2,155.3 329.5,152 329.5,152 342,144.7 		"/>
		<polygon id="XMLID_518_" style="fill:#E4F2FB;" points="345.9,147.1 332.6,154.9 344.3,165.7 359.3,152.8 		"/>
		<polygon id="XMLID_519_" style="fill:#E4F2FB;" points="386,156.8 363.5,154.4 347.9,167.9 378.6,181.9 396.6,174.8 393.3,169.4 
			393,169.3 393.1,168.9 386,157.1 		"/>
	</g>
	<path id="XMLID_505_" style="display:inline;fill:#9E9E9E;" d="M402.9,140.5L390,119.2V118l-22-4l-12,2l-15.1-7.5
		c-0.6-0.3-1.3-0.5-2-0.5h-1c-1.2,0-2.2,0.7-2.6,1.9L318,161l3,1l8-5l14,13l35,16h1l23-9v-1l-4.7-7.9l2.3-12.8l13.3-5.1l1.1-0.2
		l2.1-2.7L402.9,140.5z M350.2,144.5l35.8-21.1v29.4l-23-2.5l0,0L350.2,144.5z M359,120l9-1.9l14.7,2.7L346,142.3v-19.1L359,120
		L359,120z M350.9,117.9l-5.8,1.5l-3.6-6.2L350.9,117.9z M329.5,152l-5.3,3.3l13.7-40.4l4.1,7.1v22.7L329.5,152L329.5,152z
		 M332.6,154.9l13.3-7.8l13.4,5.7l-15,13L332.6,154.9z M378.6,181.9l-30.6-14l15.6-13.4L386,157l0,0l10.6,17.8L378.6,181.9z
		 M394.2,162.9L390,156v-29.1l8.2,13.6L394.2,162.9z M400.4,150.7l1.1-6.3l6.5,3.3L400.4,150.7z"/>
</g>
<g id="time_x5F_empty" style="display:none;">
	<g id="XMLID_512_" style="display:inline;">
		<g id="XMLID_501_">
			<rect id="XMLID_503_" x="16" y="102" style="fill:#9E9E9E;" width="124" height="96"/>
			<rect id="XMLID_508_" x="20" y="106" style="fill:#E4F2FB;" width="116" height="88"/>
		</g>
		<g id="XMLID_509_">
			<rect id="XMLID_510_" x="4" y="90" style="fill:#9E9E9E;" width="124" height="96"/>
			<rect id="XMLID_511_" x="8" y="94" style="fill:#FFFFFF;" width="116" height="88"/>
		</g>
	</g>
	<g id="Layer_14" style="display:inline;">
		<g id="XMLID_549_">
			<g id="XMLID_520_">
				<rect id="XMLID_521_" x="8" y="110" style="fill:#9E9E9E;" width="116" height="4"/>
				<g id="XMLID_522_">
					<rect id="XMLID_523_" x="28" y="114" style="fill:#C4C4C4;" width="4" height="68"/>
					<rect id="XMLID_524_" x="52" y="114" style="fill:#C4C4C4;" width="4" height="68"/>
					<rect id="XMLID_525_" x="76" y="114" style="fill:#C4C4C4;" width="4" height="68"/>
					<rect id="XMLID_527_" x="100" y="114" style="fill:#C4C4C4;" width="4" height="68"/>
					<rect id="XMLID_528_" x="8" y="158" style="fill:#C4C4C4;" width="116" height="4"/>
					<rect id="XMLID_529_" x="8" y="134" style="fill:#C4C4C4;" width="116" height="4"/>
				</g>
			</g>
			<g id="XMLID_530_">
				<g id="XMLID_531_">
					
						<rect id="XMLID_532_" x="38.9" y="139.1" transform="matrix(0.7071 0.7071 -0.7071 0.7071 115.9828 14.135)" style="fill:#C4C4C4;" width="4" height="16"/>
					
						<rect id="XMLID_533_" x="32.9" y="145.1" transform="matrix(0.7071 0.7071 -0.7071 0.7071 115.9828 14.135)" style="fill:#C4C4C4;" width="16" height="4"/>
				</g>
				<g id="XMLID_534_">
					
						<rect id="XMLID_535_" x="62.9" y="139.1" transform="matrix(0.7071 0.7071 -0.7071 0.7071 123.0122 -2.8356)" style="fill:#C4C4C4;" width="4" height="16"/>
					
						<rect id="XMLID_536_" x="56.9" y="145.1" transform="matrix(0.7071 0.7071 -0.7071 0.7071 123.0122 -2.8356)" style="fill:#C4C4C4;" width="16" height="4"/>
				</g>
				<g id="XMLID_537_">
					
						<rect id="XMLID_538_" x="110.9" y="139.1" transform="matrix(0.7071 0.7071 -0.7071 0.7071 137.0711 -36.7767)" style="fill:#C4C4C4;" width="4" height="16"/>
					
						<rect id="XMLID_539_" x="104.9" y="145.1" transform="matrix(0.7071 0.7071 -0.7071 0.7071 137.0711 -36.7767)" style="fill:#C4C4C4;" width="16" height="4"/>
				</g>
				<g id="XMLID_540_">
					
						<rect id="XMLID_541_" x="86.9" y="115.1" transform="matrix(0.7071 0.7071 -0.7071 0.7071 113.0711 -26.8356)" style="fill:#C4C4C4;" width="4" height="16"/>
					
						<rect id="XMLID_542_" x="80.9" y="121.1" transform="matrix(0.7071 0.7071 -0.7071 0.7071 113.0711 -26.8356)" style="fill:#C4C4C4;" width="16" height="4"/>
				</g>
				<g id="XMLID_543_">
					
						<rect id="XMLID_544_" x="62.9" y="163.1" transform="matrix(0.7071 0.7071 -0.7071 0.7071 139.9828 4.1939)" style="fill:#C4C4C4;" width="4" height="16"/>
					
						<rect id="XMLID_545_" x="56.9" y="169.1" transform="matrix(0.7071 0.7071 -0.7071 0.7071 139.9828 4.1939)" style="fill:#C4C4C4;" width="16" height="4"/>
				</g>
				<g id="XMLID_546_">
					
						<rect id="XMLID_547_" x="15.1" y="115.1" transform="matrix(0.7071 0.7071 -0.7071 0.7071 92.0244 23.9756)" style="fill:#C4C4C4;" width="4" height="16"/>
					
						<rect id="XMLID_548_" x="9.1" y="121.1" transform="matrix(0.7071 0.7071 -0.7071 0.7071 92.0244 23.9756)" style="fill:#C4C4C4;" width="16" height="4"/>
				</g>
			</g>
		</g>
	</g>
	<g id="XMLID_562_" style="display:inline;">
		<g id="XMLID_550_">
			<rect id="XMLID_551_" x="372" y="224" style="fill:#9E9E9E;" width="124" height="96"/>
			<rect id="XMLID_552_" x="376" y="228" style="fill:#E4F2FB;" width="116" height="88"/>
			<rect id="XMLID_553_" x="360" y="210" style="fill:#9E9E9E;" width="124" height="96"/>
			<rect id="XMLID_554_" x="364" y="214" style="fill:#FFFFFF;" width="116" height="88"/>
		</g>
		<g id="XMLID_555_">
			<rect id="XMLID_556_" x="380" y="234" style="fill:#9E9E9E;" width="18" height="4"/>
			<rect id="XMLID_557_" x="386" y="256" style="fill:#9E9E9E;" width="12" height="4"/>
			<rect id="XMLID_558_" x="380" y="278" style="fill:#9E9E9E;" width="18" height="4"/>
			<rect id="XMLID_559_" x="406" y="234" style="fill:#C4C4C4;" width="56" height="4"/>
			<rect id="XMLID_560_" x="406" y="256" style="fill:#C4C4C4;" width="56" height="4"/>
			<rect id="XMLID_561_" x="406" y="278" style="fill:#C4C4C4;" width="56" height="4"/>
		</g>
	</g>
	<g id="Layer_16" style="display:inline;">
		<path id="XMLID_584_" style="fill:none;" d="M220.7,200.6c5.4-4.7,12.5-7.6,20.3-7.6c17.1,0,31,13.9,31,31s-13.9,31-31,31
			c-12.7,0-23.6-7.6-28.4-18.5L208,237l-3.1,1.7c5.8,14.2,19.8,24.3,36.1,24.3c21.5,0,39-17.5,39-39s-17.5-39-39-39
			c-9.6,0-18.5,3.5-25.3,9.3l3.3,2.7L220.7,200.6z"/>
		<path id="XMLID_587_" style="fill:none;" d="M226,235l-9.2,1c4.4,8.9,13.6,15,24.2,15c14.9,0,27-12.1,27-27s-12.1-27-27-27
			c-7.2,0-13.7,2.8-18.5,7.4l3.5,7.6V235z"/>
		<g id="XMLID_575_">
			<g id="XMLID_569_">
				<path id="XMLID_568_" style="fill:#9E9E9E;" d="M242,284L242,284c-33.1,0-60-26.9-60-60v0c0-33.1,26.9-60,60-60h0
					c33.1,0,60,26.9,60,60v0C302,257.1,275.1,284,242,284z"/>
				<path id="XMLID_570_" style="fill:#FFFFFF;" d="M242,280c-30.9,0-56-25.1-56-56s25.1-56,56-56c30.9,0,56,25.1,56,56
					S272.9,280,242,280z"/>
			</g>
			<g id="XMLID_574_">
				<rect id="XMLID_571_" x="228" y="142" style="fill:#9E9E9E;" width="28" height="14"/>
				<rect id="XMLID_573_" x="232" y="146" style="fill:#E4F2FB;" width="20" height="6"/>
				<rect id="XMLID_572_" x="240" y="156" style="fill:#9E9E9E;" width="4" height="8"/>
			</g>
			<path id="XMLID_582_" style="fill:#C4C4C4;" d="M242,216c-0.5,0-1.1,0.1-1.6,0.2c0-0.1-0.1-0.2-0.1-0.3l-17.8-30.1
				c-0.6-1-1.8-1.3-2.7-0.7c-1,0.6-1.3,1.8-0.7,2.7l17.8,30.1c0,0,0,0,0,0c-1.7,1.5-2.9,3.7-2.9,6.1c0,4.4,3.6,8,8,8s8-3.6,8-8
				S246.4,216,242,216z M242,228c-2.2,0-4-1.8-4-4s1.8-4,4-4s4,1.8,4,4S244.2,228,242,228z"/>
			<path id="XMLID_593_" style="fill:#C4C4C4;" d="M202,224c0-11.1,4.6-21.1,12.1-28.2c0.9-0.8,0.8-2.2-0.1-3l0,0
				c-0.8-0.6-1.9-0.6-2.6,0.1c-8.2,7.8-13.3,18.9-13.3,31.1v0c0,5.1,0.9,9.9,2.5,14.4c0.4,1.2,1.8,1.7,2.9,1.1h0
				c0.9-0.5,1.3-1.5,0.9-2.4C202.8,233,202,228.6,202,224z"/>
			<path id="XMLID_594_" style="fill:#C4C4C4;" d="M214,224c0-7.2,2.9-13.8,7.5-18.6c0.6-0.6,0.7-1.4,0.4-2.2l0-0.1
				c-0.6-1.2-2.2-1.5-3.2-0.6c-5.4,5.6-8.7,13.1-8.7,21.5c0,3.9,0.7,7.6,2,11c0.3,0.8,1.2,1.4,2.1,1.3l0.1,0
				c1.3-0.1,2.1-1.4,1.6-2.6C214.6,230.7,214,227.4,214,224z"/>
		</g>
	</g>
	<g id="XMLID_567_" style="display:inline;">
		<g id="XMLID_563_">
			<rect id="XMLID_564_" x="308" y="88" style="fill:#9E9E9E;" width="104" height="56"/>
			<rect id="XMLID_565_" x="312" y="92" style="fill:#FFFFFF;" width="96" height="48"/>
		</g>
		
			<text id="XMLID_566_" transform="matrix(1 0 0 1 321.4233 127)" style="fill:#C4C4C4; font-family:'SegoeUI-Bold'; font-size:30px;">02:36</text>
	</g>
</g>
<g id="expense_x5F_empty" style="display:none;">
	<g id="XMLID_640_" style="display:inline;">
		<g id="XMLID_639_">
			<g id="XMLID_578_">
				<rect id="XMLID_579_" x="206" y="160" style="fill:#9E9E9E;" width="116" height="148"/>
				<rect id="XMLID_580_" x="210" y="164" style="fill:#FFFFFF;" width="108" height="140"/>
			</g>
			<rect id="XMLID_583_" x="210" y="292" style="fill:#9E9E9E;" width="108" height="4"/>
			<rect id="XMLID_585_" x="210" y="200" style="fill:#9E9E9E;" width="108" height="4"/>
		</g>
		<rect id="XMLID_576_" x="216" y="170" style="fill:#9E9E9E;" width="96" height="24"/>
	</g>
	<rect id="XMLID_588_" x="220" y="174" style="display:inline;fill:#E4F2FB;" width="88" height="16"/>
	<g id="XMLID_638_" style="display:inline;">
		<g id="XMLID_586_">
			<path id="XMLID_595_" style="fill:#C4C4C4;" d="M216,210v16h16v-16H216z M228,222h-8v-8h8V222z"/>
			<path id="XMLID_589_" style="fill:#C4C4C4;" d="M236,210v16h16v-16H236z M248,222h-8v-8h8V222z"/>
			<path id="XMLID_597_" style="fill:#C4C4C4;" d="M256,210v16h16v-16H256z M268,222h-8v-8h8V222z"/>
			<path id="XMLID_600_" style="fill:#C4C4C4;" d="M276,210v16h16v-16H276z M288,222h-8v-8h8V222z"/>
			<path id="XMLID_603_" style="fill:#C4C4C4;" d="M296,210v16h16v-16H296z M308,222h-8v-8h8V222z"/>
		</g>
		<g id="XMLID_606_">
			<path id="XMLID_619_" style="fill:#C4C4C4;" d="M216,230v16h16v-16H216z M228,242h-8v-8h8V242z"/>
			<path id="XMLID_616_" style="fill:#C4C4C4;" d="M236,230v16h16v-16H236z M248,242h-8v-8h8V242z"/>
			<path id="XMLID_613_" style="fill:#C4C4C4;" d="M256,230v16h16v-16H256z M268,242h-8v-8h8V242z"/>
			<path id="XMLID_610_" style="fill:#C4C4C4;" d="M276,230v16h16v-16H276z M288,242h-8v-8h8V242z"/>
			<path id="XMLID_607_" style="fill:#C4C4C4;" d="M296,230v16h16v-16H296z M308,242h-8v-8h8V242z"/>
		</g>
		<g id="XMLID_622_">
			<path id="XMLID_635_" style="fill:#C4C4C4;" d="M216,250v16h16v-16H216z M228,262h-8v-8h8V262z"/>
			<path id="XMLID_632_" style="fill:#C4C4C4;" d="M236,250v16h16v-16H236z M248,262h-8v-8h8V262z"/>
			<path id="XMLID_629_" style="fill:#C4C4C4;" d="M256,250v16h16v-16H256z M268,262h-8v-8h8V262z"/>
			<path id="XMLID_626_" style="fill:#C4C4C4;" d="M276,250v16h16v-16H276z M288,262h-8v-8h8V262z"/>
			<path id="XMLID_651_" style="fill:#C4C4C4;" d="M216,270v16h16v-16H216z M228,282h-8v-8h8V282z"/>
			<path id="XMLID_648_" style="fill:#C4C4C4;" d="M236,270v16h16v-16H236z M248,282h-8v-8h8V282z"/>
			<path id="XMLID_645_" style="fill:#C4C4C4;" d="M256,270v16h16v-16H256z M268,282h-8v-8h8V282z"/>
			<path id="XMLID_642_" style="fill:#C4C4C4;" d="M276,270v16h16v-16H276z M288,282h-8v-8h8V282z"/>
		</g>
		<g id="XMLID_623_">
			<rect id="XMLID_624_" x="296" y="250" style="fill:#C4C4C4;" width="16" height="36"/>
			<rect id="XMLID_625_" x="300" y="254" style="fill:#E4F2FB;" width="8" height="28"/>
		</g>
	</g>
	<g id="XMLID_688_" style="display:inline;">
		<g id="XMLID_660_">
			<rect id="XMLID_664_" x="32" y="156" style="fill:#9E9E9E;" width="124" height="68"/>
			<rect id="XMLID_663_" x="36" y="160" style="fill:#E4F2FB;" width="116" height="60"/>
			<rect id="XMLID_662_" x="20" y="144" style="fill:#9E9E9E;" width="124" height="68"/>
			<rect id="XMLID_661_" x="24" y="148" style="fill:#FFFFFF;" width="116" height="60"/>
		</g>
		<g id="XMLID_641_">
			<path id="XMLID_657_" style="fill:#C4C4C4;" d="M82,154c-13.3,0-24,10.7-24,24v0c0,13.3,10.7,24,24,24s24-10.7,24-24v0
				C106,164.7,95.3,154,82,154z M82,198c-11,0-20-9-20-20s9-20,20-20s20,9,20,20S93,198,82,198z"/>
			<g id="XMLID_654_">
				<path id="XMLID_655_" style="fill:#C4C4C4;" d="M80.2,191.8v-3c-2.1-0.1-4.2-0.7-5.4-1.4l1-3.7c1.3,0.7,3.2,1.4,5.3,1.4
					c1.8,0,3.1-0.7,3.1-2c0-1.2-1-2-3.4-2.8c-3.4-1.2-5.8-2.8-5.8-5.9c0-2.8,2-5,5.4-5.7v-3h3.1v2.8c2.1,0.1,3.6,0.5,4.6,1.1
					l-0.9,3.6c-0.8-0.4-2.3-1.1-4.6-1.1c-2.1,0-2.8,0.9-2.8,1.8c0,1.1,1.1,1.7,3.8,2.8c3.8,1.3,5.3,3.1,5.3,6c0,2.8-2,5.3-5.7,5.9
					v3.3H80.2z"/>
			</g>
		</g>
	</g>
	<g id="XMLID_665_" style="display:inline;">
		<g id="XMLID_675_">
			<path id="XMLID_677_" style="fill:#9E9E9E;" d="M432,188L432,188c-18.8,0-34,15.2-34,34v0c0,18.8,15.2,34,34,34h0
				c18.8,0,34-15.2,34-34v0C466,203.2,450.8,188,432,188z"/>
			<path id="XMLID_676_" style="fill:#E4F2FB;" d="M432,252c-16.5,0-30-13.5-30-30s13.5-30,30-30s30,13.5,30,30S448.5,252,432,252z"
				/>
		</g>
		<g id="XMLID_672_">
			<path id="XMLID_674_" style="fill:#9E9E9E;" d="M432,174L432,174c-18.8,0-34,15.2-34,34v0c0,18.8,15.2,34,34,34h0
				c18.8,0,34-15.2,34-34v0C466,189.2,450.8,174,432,174z"/>
			<path id="XMLID_673_" style="fill:#E4F2FB;" d="M432,238c-16.5,0-30-13.5-30-30s13.5-30,30-30s30,13.5,30,30S448.5,238,432,238z"
				/>
		</g>
		<g id="XMLID_669_">
			<path id="XMLID_671_" style="fill:#9E9E9E;" d="M432,160L432,160c-18.8,0-34,15.2-34,34v0c0,18.8,15.2,34,34,34h0
				c18.8,0,34-15.2,34-34v0C466,175.2,450.8,160,432,160z"/>
			<path id="XMLID_670_" style="fill:#FFFFFF;" d="M432,224c-16.5,0-30-13.5-30-30s13.5-30,30-30s30,13.5,30,30S448.5,224,432,224z"
				/>
		</g>
		<g id="XMLID_666_">
			<path id="XMLID_667_" style="fill:#C4C4C4;" d="M438.9,205c-1.2,0.7-3.3,1.4-5.6,1.4c-3.5,0-6.8-1.4-8.8-4.1
				c-1-1.2-1.7-2.8-2-4.7h-2.3v-2.6h2c0-0.2,0-0.4,0-0.6c0-0.4,0-0.7,0-1.1h-2v-2.6h2.4c0.5-1.9,1.3-3.6,2.5-4.9
				c2.1-2.3,4.9-3.7,8.3-3.7c2.2,0,4.1,0.5,5.4,1.1l-1,4.1c-0.9-0.4-2.4-0.9-4-0.9c-1.7,0-3.3,0.6-4.4,1.9c-0.5,0.6-0.9,1.4-1.2,2.3
				h9v2.6h-9.5c0,0.4,0,0.8,0,1.1c0,0.2,0,0.4,0,0.6h9.5v2.6h-9c0.3,1.1,0.6,1.9,1.2,2.5c1.2,1.3,2.8,1.8,4.6,1.8
				c1.7,0,3.3-0.5,4.1-0.9L438.9,205z"/>
		</g>
	</g>
	<g id="XMLID_679_" style="display:inline;">
		<g id="XMLID_685_">
			<path id="XMLID_687_" style="fill:#9E9E9E;" d="M264,56L264,56c-18.8,0-34,15.2-34,34v0c0,18.8,15.2,34,34,34h0
				c18.8,0,34-15.2,34-34v0C298,71.2,282.8,56,264,56z"/>
			<path id="XMLID_686_" style="fill:#E4F2FB;" d="M264,120c-16.5,0-30-13.5-30-30s13.5-30,30-30s30,13.5,30,30S280.5,120,264,120z"
				/>
		</g>
		<g id="XMLID_682_">
			<path id="XMLID_684_" style="fill:#9E9E9E;" d="M264,42L264,42c-18.8,0-34,15.2-34,34v0c0,18.8,15.2,34,34,34h0
				c18.8,0,34-15.2,34-34v0C298,57.2,282.8,42,264,42z"/>
			<path id="XMLID_683_" style="fill:#FFFFFF;" d="M264,106c-16.5,0-30-13.5-30-30s13.5-30,30-30s30,13.5,30,30S280.5,106,264,106z"
				/>
		</g>
		<g id="XMLID_678_">
			<path id="XMLID_680_" style="fill:#C4C4C4;" d="M255.8,88v-2.9c1.9-0.8,4-2.8,4-5.3c0-0.5,0-0.9-0.1-1.4h-3.5v-3.7h2.9
				c-0.2-0.9-0.3-1.9-0.3-2.9c0-4.5,3.3-7.5,8.1-7.5c2,0,3.5,0.4,4.2,0.9l-0.9,4.1c-0.7-0.4-1.7-0.6-3-0.6c-2.6,0-3.3,1.7-3.3,3.4
				c0,0.9,0.1,1.8,0.3,2.7h4.9v3.7h-4.5c0,0.9,0,1.7-0.3,2.6c-0.3,0.9-0.9,1.8-1.8,2.6v0.1h9.6V88H255.8z"/>
		</g>
	</g>
</g>
<g id="estimate_x5F_empty" style="display:none;">
	<g id="Layer_19" style="display:inline;">
		<g id="Layer_20">
			<rect id="XMLID_693_" x="273" y="176" style="fill:#9E9E9E;" width="19" height="74"/>
		</g>
		<g id="XMLID_691_">
			<rect id="XMLID_689_" x="210" y="164" style="fill:#9E9E9E;" width="72" height="90"/>
			<polygon id="XMLID_692_" style="fill:#FFFFFF;" points="214,168 214,231.8 240.8,244.3 250,240 251,240 260.1,244.3 278,235.8 
				278,168 			"/>
		</g>
		<polygon id="XMLID_708_" style="fill:#E4F2FB;" points="277,240.7 277,246 288,246 288,235.5 278,240.2 		"/>
		<path id="XMLID_705_" style="fill:#9E9E9E;" d="M306.4,205c-4.7-2.9-10-6.3-14.4-9h-4v4h2.9c2,1.3,4.3,2.7,6.5,4.1
			c0.5,0.3,1,0.6,1.4,0.9c1.8,1.1,3.5,2.2,5.2,3.2v0.8v7h-8v4h8v3.5l-16,7.6l-10,4.7l-1,0.5l-16.9,8L251,240h-1l-9.2,4.3L214,231.8
			l-18-8.4V220h8v-4h-8v-7v-0.7c1.7-1,3.7-2.2,5.6-3.3c3.2-1.8,6.5-3.6,9.3-5h3v-4h-4c-4.8,2.4-11.3,6-16.3,9
			c-0.6,0.3-1.1,0.7-1.7,1v82h116v-82C307.5,205.7,306.9,205.3,306.4,205z M196,227.9l18,8.4l22,10.3l-7.5,3.5L196,265.1V227.9z
			 M304,284H196v-14.5l42-19.5l12.5-5.8l12.3,5.8l41.2,19.5V284z M304,265.1L272.1,250l-7.4-3.5l12.3-5.8l1-0.5l10-4.7l16-7.6V265.1
			z"/>
		<g id="XMLID_117_">
			<polygon id="XMLID_690_" style="fill:#FFFFFF;" points="196,269.5 196,284 304,284 304,269.5 250.5,244.2 			"/>
			<polygon id="XMLID_694_" style="fill:#FFFFFF;" points="264.7,246.5 304,265.1 304,227.9 			"/>
			<polygon id="XMLID_695_" style="fill:#FFFFFF;" points="196,227.9 196,265.1 236,246.5 			"/>
		</g>
		<polygon id="XMLID_698_" style="fill:#E4F2FB;" points="278,180 278,236.3 278.9,235.8 288,231 288,200 288,196 288,180 		"/>
		<rect id="XMLID_696_" x="278" y="180" style="fill:#9E9E9E;" width="4" height="57"/>
	</g>
	<g id="Layer_21" style="display:inline;">
		<g id="XMLID_697_">
			<rect id="XMLID_699_" x="222" y="206" style="fill:#C4C4C4;" width="36" height="4"/>
			<rect id="XMLID_700_" x="222" y="218" style="fill:#9E9E9E;" width="48" height="4"/>
			<rect id="XMLID_701_" x="222" y="230" style="fill:#9E9E9E;" width="48" height="4"/>
			<path id="XMLID_712_" style="fill:#9E9E9E;" d="M222,176v16h16v-16H222z M234,188h-8v-8h8V188z"/>
		</g>
		<g id="XMLID_703_">
			<g id="XMLID_709_">
				<g id="XMLID_713_">
					<path id="XMLID_715_" style="fill:#C4C4C4;" d="M132,184c-13.3,0-24,10.7-24,24v0c0,13.3,10.7,24,24,24s24-10.7,24-24v0
						C156,194.7,145.3,184,132,184z M132,228c-11,0-20-9-20-20s9-20,20-20s20,9,20,20S143,228,132,228z"/>
					<g id="XMLID_714_">
						<path id="XMLID_718_" style="fill:#C4C4C4;" d="M130.2,221.8v-3c-2.1-0.1-4.2-0.7-5.4-1.4l1-3.7c1.3,0.7,3.2,1.4,5.3,1.4
							c1.8,0,3.1-0.7,3.1-2c0-1.2-1-2-3.4-2.8c-3.4-1.2-5.8-2.8-5.8-5.9c0-2.8,2-5,5.4-5.7v-3h3.1v2.8c2.1,0.1,3.6,0.5,4.6,1.1
							l-0.9,3.6c-0.8-0.4-2.3-1.1-4.6-1.1c-2.1,0-2.8,0.9-2.8,1.8c0,1.1,1.1,1.7,3.8,2.8c3.8,1.3,5.3,3.1,5.3,6c0,2.8-2,5.3-5.7,5.9
							v3.3H130.2z"/>
					</g>
				</g>
				<g id="XMLID_720_">
					<path id="XMLID_722_" style="fill:#C4C4C4;" d="M328,100c-13.3,0-24,10.7-24,24v0c0,13.3,10.7,24,24,24s24-10.7,24-24v0
						C352,110.7,341.3,100,328,100z M328,144c-11,0-20-9-20-20s9-20,20-20s20,9,20,20S339,144,328,144z"/>
					<g id="XMLID_721_">
						<path id="XMLID_725_" style="fill:#C4C4C4;" d="M326.2,137.8v-3c-2.1-0.1-4.2-0.7-5.4-1.4l1-3.7c1.3,0.7,3.2,1.4,5.3,1.4
							c1.8,0,3.1-0.7,3.1-2c0-1.2-1-2-3.4-2.8c-3.4-1.2-5.8-2.8-5.8-5.9c0-2.8,2-5,5.4-5.7v-3h3.1v2.8c2.1,0.1,3.6,0.5,4.6,1.1
							l-0.9,3.6c-0.8-0.4-2.3-1.1-4.6-1.1c-2.1,0-2.8,0.9-2.8,1.8c0,1.1,1.1,1.7,3.8,2.8c3.8,1.3,5.3,3.1,5.3,6c0,2.8-2,5.3-5.7,5.9
							v3.3H326.2z"/>
					</g>
				</g>
				<g id="XMLID_727_">
					<path id="XMLID_729_" style="fill:#C4C4C4;" d="M368,214c-13.3,0-24,10.7-24,24v0c0,13.3,10.7,24,24,24s24-10.7,24-24v0
						C392,224.7,381.3,214,368,214z M368,258c-11,0-20-9-20-20s9-20,20-20s20,9,20,20S379,258,368,258z"/>
					<g id="XMLID_728_">
						<path id="XMLID_732_" style="fill:#C4C4C4;" d="M365,243.2l0-0.9c-0.1-1.8,0.5-3.7,2.1-5.7c1.2-1.4,2.1-2.5,2.1-3.7
							c0-1.3-0.8-2.1-2.6-2.2c-1.2,0-2.6,0.4-3.6,1.1l-1.2-3.9c1.3-0.8,3.5-1.5,6-1.5c4.8,0,6.9,2.6,6.9,5.6c0,2.7-1.7,4.5-3.1,6
							c-1.3,1.5-1.9,2.9-1.8,4.5v0.6H365z M364,248.1c0-1.9,1.3-3.3,3.2-3.3c1.9,0,3.2,1.4,3.2,3.3c0,1.9-1.3,3.3-3.2,3.3
							C365.3,251.4,364,250,364,248.1z"/>
					</g>
				</g>
			</g>
			<g id="XMLID_735_">
				<g id="XMLID_746_">
					<g id="XMLID_737_">
						<linearGradient id="XMLID_800_" gradientUnits="userSpaceOnUse" x1="252" y1="124" x2="252" y2="88">
							<stop  offset="0" style="stop-color:#FFFFFF"/>
							<stop  offset="2.832627e-002" style="stop-color:#F2F2F2"/>
							<stop  offset="0.1082" style="stop-color:#D4D4D4"/>
							<stop  offset="0.1924" style="stop-color:#BCBCBC"/>
							<stop  offset="0.2814" style="stop-color:#ABABAB"/>
							<stop  offset="0.3788" style="stop-color:#A1A1A1"/>
							<stop  offset="0.5" style="stop-color:#9E9E9E"/>
							<stop  offset="0.6212" style="stop-color:#A1A1A1"/>
							<stop  offset="0.7186" style="stop-color:#ABABAB"/>
							<stop  offset="0.8076" style="stop-color:#BCBCBC"/>
							<stop  offset="0.8918" style="stop-color:#D4D4D4"/>
							<stop  offset="0.9717" style="stop-color:#F2F2F2"/>
							<stop  offset="1" style="stop-color:#FFFFFF"/>
						</linearGradient>
						<rect id="XMLID_738_" x="251" y="88" style="fill:url(#XMLID_800_);" width="2" height="36"/>
						
							<linearGradient id="XMLID_801_" gradientUnits="userSpaceOnUse" x1="249" y1="123" x2="249" y2="87" gradientTransform="matrix(4.489700e-011 1 -1 4.489700e-011 357 -143)">
							<stop  offset="0" style="stop-color:#FFFFFF"/>
							<stop  offset="2.832627e-002" style="stop-color:#F2F2F2"/>
							<stop  offset="0.1082" style="stop-color:#D4D4D4"/>
							<stop  offset="0.1924" style="stop-color:#BCBCBC"/>
							<stop  offset="0.2814" style="stop-color:#ABABAB"/>
							<stop  offset="0.3788" style="stop-color:#A1A1A1"/>
							<stop  offset="0.5" style="stop-color:#9E9E9E"/>
							<stop  offset="0.6212" style="stop-color:#A1A1A1"/>
							<stop  offset="0.7186" style="stop-color:#ABABAB"/>
							<stop  offset="0.8076" style="stop-color:#BCBCBC"/>
							<stop  offset="0.8918" style="stop-color:#D4D4D4"/>
							<stop  offset="0.9717" style="stop-color:#F2F2F2"/>
							<stop  offset="1" style="stop-color:#FFFFFF"/>
						</linearGradient>
						<rect id="XMLID_739_" x="234" y="105" style="fill:url(#XMLID_801_);" width="36" height="2"/>
					</g>
					<path id="XMLID_740_" style="fill:#C4C4C4;" d="M253,117h-2c0-5.5-4.5-10-10-10v-2c5.5,0,10-4.5,10-10h2c0,5.5,4.5,10,10,10v2
						C257.5,107,253,111.5,253,117z"/>
				</g>
				<g id="XMLID_736_">
					<linearGradient id="XMLID_802_" gradientUnits="userSpaceOnUse" x1="224" y1="144" x2="224" y2="123">
						<stop  offset="0" style="stop-color:#FFFFFF"/>
						<stop  offset="9.594572e-002" style="stop-color:#E7E7E7"/>
						<stop  offset="0.2727" style="stop-color:#BFBFBF"/>
						<stop  offset="0.4136" style="stop-color:#A7A7A7"/>
						<stop  offset="0.5" style="stop-color:#9E9E9E"/>
						<stop  offset="0.5864" style="stop-color:#A7A7A7"/>
						<stop  offset="0.7273" style="stop-color:#BFBFBF"/>
						<stop  offset="0.9041" style="stop-color:#E7E7E7"/>
						<stop  offset="1" style="stop-color:#FFFFFF"/>
					</linearGradient>
					<rect id="XMLID_741_" x="223" y="123" style="fill:url(#XMLID_802_);" width="2" height="21"/>
					
						<linearGradient id="XMLID_803_" gradientUnits="userSpaceOnUse" x1="259.5" y1="127.5" x2="259.5" y2="106.5" gradientTransform="matrix(4.489700e-011 -1 1 4.489700e-011 106.5 393.5)">
						<stop  offset="0" style="stop-color:#FFFFFF"/>
						<stop  offset="9.594572e-002" style="stop-color:#E7E7E7"/>
						<stop  offset="0.2727" style="stop-color:#BFBFBF"/>
						<stop  offset="0.4136" style="stop-color:#A7A7A7"/>
						<stop  offset="0.5" style="stop-color:#9E9E9E"/>
						<stop  offset="0.5864" style="stop-color:#A7A7A7"/>
						<stop  offset="0.7273" style="stop-color:#BFBFBF"/>
						<stop  offset="0.9041" style="stop-color:#E7E7E7"/>
						<stop  offset="1" style="stop-color:#FFFFFF"/>
					</linearGradient>
					<rect id="XMLID_742_" x="213" y="133" style="fill:url(#XMLID_803_);" width="21" height="2"/>
					<path id="XMLID_743_" style="fill:#C4C4C4;" d="M225,139h-2c0-2.2-1.8-4-4-4v-2c2.2,0,4-1.8,4-4h2c0,2.2,1.8,4,4,4v2
						C226.8,135,225,136.8,225,139z"/>
				</g>
				<g id="XMLID_744_">
					<linearGradient id="XMLID_804_" gradientUnits="userSpaceOnUse" x1="316" y1="190" x2="316" y2="169">
						<stop  offset="0" style="stop-color:#FFFFFF"/>
						<stop  offset="9.594572e-002" style="stop-color:#E7E7E7"/>
						<stop  offset="0.2727" style="stop-color:#BFBFBF"/>
						<stop  offset="0.4136" style="stop-color:#A7A7A7"/>
						<stop  offset="0.5" style="stop-color:#9E9E9E"/>
						<stop  offset="0.5864" style="stop-color:#A7A7A7"/>
						<stop  offset="0.7273" style="stop-color:#BFBFBF"/>
						<stop  offset="0.9041" style="stop-color:#E7E7E7"/>
						<stop  offset="1" style="stop-color:#FFFFFF"/>
					</linearGradient>
					<rect id="XMLID_745_" x="315" y="169" style="fill:url(#XMLID_804_);" width="2" height="21"/>
					
						<linearGradient id="XMLID_805_" gradientUnits="userSpaceOnUse" x1="213.5" y1="219.5" x2="213.5" y2="198.5" gradientTransform="matrix(4.489700e-011 -1 1 4.489700e-011 106.5 393.5)">
						<stop  offset="0" style="stop-color:#FFFFFF"/>
						<stop  offset="9.594572e-002" style="stop-color:#E7E7E7"/>
						<stop  offset="0.2727" style="stop-color:#BFBFBF"/>
						<stop  offset="0.4136" style="stop-color:#A7A7A7"/>
						<stop  offset="0.5" style="stop-color:#9E9E9E"/>
						<stop  offset="0.5864" style="stop-color:#A7A7A7"/>
						<stop  offset="0.7273" style="stop-color:#BFBFBF"/>
						<stop  offset="0.9041" style="stop-color:#E7E7E7"/>
						<stop  offset="1" style="stop-color:#FFFFFF"/>
					</linearGradient>
					<rect id="XMLID_747_" x="305" y="179" style="fill:url(#XMLID_805_);" width="21" height="2"/>
					<path id="XMLID_748_" style="fill:#C4C4C4;" d="M317,185h-2c0-2.2-1.8-4-4-4v-2c2.2,0,4-1.8,4-4h2c0,2.2,1.8,4,4,4v2
						C318.8,181,317,182.8,317,185z"/>
				</g>
			</g>
		</g>
	</g>
</g>
<g id="search_x5F_empty">
	<g id="XMLID_760_">
		<g id="XMLID_759_">
			<path id="XMLID_751_" style="fill:#9E9E9E;" d="M248,202L248,202c-16.6,0-30-13.4-30-30v0c0-16.6,13.4-30,30-30h0
				c16.6,0,30,13.4,30,30v0C278,188.6,264.6,202,248,202z"/>
			<path id="XMLID_753_" style="fill:#FFFFFF;" d="M248,198c-14.3,0-26-11.7-26-26c0-14.3,11.7-26,26-26c14.3,0,26,11.7,26,26
				C274,186.3,262.3,198,248,198z"/>
		</g>
		<path id="XMLID_756_" style="fill:#C4C4C4;" d="M250,156v-3c0-0.6-0.5-1-1-1c-11.3,0.5-20.4,9.6-20.9,20.9c0,0.6,0.4,1,1,1h3
			C232,164.1,240.1,156,250,156z"/>
		<g id="XMLID_758_">
			<g id="XMLID_752_">
				<path id="XMLID_754_" style="fill:#9E9E9E;" d="M295,230.3l-22.7-22.6c-3.1-3.1-3.1-8.2,0-11.3l0,0c3.1-3.1,8.2-3.1,11.3,0
					l22.7,22.6c3.1,3.1,3.1,8.2,0,11.3h0C303.2,233.4,298.2,233.4,295,230.3z"/>
				<path id="XMLID_755_" style="fill:#FFFFFF;" d="M275.2,204.8c-1.6-1.6-1.6-4.1,0-5.7s4.1-1.6,5.7,0l22.7,22.6
					c1.6,1.6,1.6,4.1,0,5.7c-1.6,1.6-4.1,1.6-5.7,0L275.2,204.8z"/>
			</g>
			
				<rect id="XMLID_757_" x="266.2" y="192.2" transform="matrix(0.708 0.7062 -0.7062 0.708 216.1011 -134.134)" style="fill:#9E9E9E;" width="8" height="4"/>
		</g>
	</g>
	<g id="XMLID_771_">
		<g id="XMLID_765_">
			<rect id="XMLID_761_" x="284" y="294" style="fill:#C4C4C4;" width="24" height="4"/>
			<rect id="XMLID_762_" x="22" y="210" style="fill:#C4C4C4;" width="44" height="4"/>
			<rect id="XMLID_763_" x="433" y="156" style="fill:#C4C4C4;" width="43" height="4"/>
			<rect id="XMLID_764_" x="186" y="70" style="fill:#C4C4C4;" width="44" height="4"/>
		</g>
		<g id="XMLID_770_">
			
				<text id="XMLID_766_" transform="matrix(1 0 0 1 338 116)" style="fill:#9E9E9E; font-family:'MyriadPro-Semibold'; font-size:52px;">?</text>
			
				<text id="XMLID_767_" transform="matrix(1 0 0 1 146 268)" style="fill:#9E9E9E; font-family:'MyriadPro-Semibold'; font-size:52px;">?</text>
			
				<text id="XMLID_768_" transform="matrix(1 0 0 1 106 150)" style="fill:#9E9E9E; font-family:'MyriadPro-Semibold'; font-size:36px;">?</text>
			
				<text id="XMLID_769_" transform="matrix(1 0 0 1 386 230)" style="fill:#9E9E9E; font-family:'MyriadPro-Semibold'; font-size:36px;">?</text>
		</g>
	</g>
</g>
<g id="trash_x5F_empty" style="display:none;">
	<g id="XMLID_778_" style="display:inline;">
		<rect id="XMLID_750_" x="182" y="180" style="fill:#9E9E9E;" width="124" height="28"/>
		<rect id="XMLID_774_" x="186" y="184" style="fill:#FFFFFF;" width="116" height="20"/>
		<rect id="XMLID_773_" x="186" y="192" style="fill:#9E9E9E;" width="116" height="4"/>
	</g>
	<path id="XMLID_779_" style="display:inline;fill:#9E9E9E;" d="M266,184h-44v-13c0-2.8,2.2-5,5-5h34c2.8,0,5,2.2,5,5V184z"/>
	<path id="XMLID_781_" style="display:inline;fill:#FFFFFF;" d="M226,180v-9c0-0.6,0.4-1,1-1h34c0.6,0,1,0.4,1,1v9H226z"/>
	<g id="XMLID_798_" style="display:inline;">
		<g id="XMLID_776_">
			<rect id="XMLID_775_" x="192" y="204" style="fill:#9E9E9E;" width="104" height="104"/>
			<rect id="XMLID_777_" x="196" y="208" style="fill:#FFFFFF;" width="96" height="96"/>
		</g>
		<g id="XMLID_797_">
			<g id="XMLID_780_">
				<path id="XMLID_782_" style="fill:#9E9E9E;" d="M218,294L218,294c-4.4,0-8-3.6-8-8v-60c0-4.4,3.6-8,8-8h0c4.4,0,8,3.6,8,8v60
					C226,290.4,222.4,294,218,294z"/>
				<path id="XMLID_783_" style="fill:#E4F2FB;" d="M218,290c-2.2,0-4-1.8-4-4v-60c0-2.2,1.8-4,4-4s4,1.8,4,4v60
					C222,288.2,220.2,290,218,290z"/>
			</g>
			<g id="XMLID_784_">
				<path id="XMLID_786_" style="fill:#9E9E9E;" d="M244,294L244,294c-4.4,0-8-3.6-8-8v-60c0-4.4,3.6-8,8-8h0c4.4,0,8,3.6,8,8v60
					C252,290.4,248.4,294,244,294z"/>
				<path id="XMLID_785_" style="fill:#E4F2FB;" d="M244,290c-2.2,0-4-1.8-4-4v-60c0-2.2,1.8-4,4-4s4,1.8,4,4v60
					C248,288.2,246.2,290,244,290z"/>
			</g>
			<g id="XMLID_787_">
				<path id="XMLID_789_" style="fill:#9E9E9E;" d="M270,294L270,294c-4.4,0-8-3.6-8-8v-60c0-4.4,3.6-8,8-8l0,0c4.4,0,8,3.6,8,8v60
					C278,290.4,274.4,294,270,294z"/>
				<path id="XMLID_788_" style="fill:#E4F2FB;" d="M270,290c-2.2,0-4-1.8-4-4v-60c0-2.2,1.8-4,4-4s4,1.8,4,4v60
					C274,288.2,272.2,290,270,290z"/>
			</g>
		</g>
	</g>
	<g id="XMLID_795_" style="display:inline;">
		<rect id="XMLID_790_" x="312" y="242" style="fill:#C4C4C4;" width="25" height="4"/>
		<rect id="XMLID_791_" x="332" y="184" style="fill:#C4C4C4;" width="44" height="4"/>
		<rect id="XMLID_792_" x="168" y="236" style="fill:#C4C4C4;" width="24" height="4"/>
		<rect id="XMLID_793_" x="94" y="264" style="fill:#C4C4C4;" width="56" height="4"/>
		<rect id="XMLID_794_" x="222" y="322" style="fill:#C4C4C4;" width="44" height="4"/>
	</g>
	<rect id="XMLID_796_" x="158" y="304" style="display:inline;fill:#9E9E9E;" width="150" height="4"/>
</g>
</svg>
