<svg xmlns="http://www.w3.org/2000/svg" viewBox="0 0 256 256">
  <path fill="#9e9e9e" d="M101.4 105v92h72.5v-92h-72.5zm69.7 89.2h-66.9v-86.4h66.9v86.4z"/>
  <path fill="#6774b7" d="M104.2 107.8h66.9v86.4h-66.9z" opacity=".3"/>
  <path fill="#9e9e9e" d="M91.6 95.2h72.5v92H91.6z"/>
  <path fill="#fff" d="M94.4 98h66.9v86.4H94.4z"/>
  <path fill="#9e9e9e" d="M106.9 142.6v11.2h11.2v-11.2h-11.2zm8.4 8.4h-5.6v-5.6h5.6v5.6zM106.9 159.4v11.2h11.2v-11.2h-11.2zm8.4 8.3h-5.6v-5.6h5.6v5.6z"/>
  <g fill="#9e9e9e">
    <path d="M126.5 113.4h22.3v2.8h-22.3zM126.5 130.1h22.3v2.8h-22.3zM126.5 146.8h22.3v2.8h-22.3zM126.5 163.5h22.3v2.8h-22.3z"/>
  </g>
  <g fill="#9e9e9e">
    <path d="M109.8 116.4l7.9-7.9 1.9 2-9.8 9.8-2-2-3-2.9 2-2zM109.8 133.1l7.9-7.9 1.9 2-9.8 9.8-2-1.9-3-3 2-2z"/>
  </g>
  <g fill="#9e9e9e">
    <path d="M69.3 69.5v11.2h11.2V69.5H69.3zm8.4 8.3h-5.6v-5.6h5.6v5.6zM197.5 84.8V96h11.2V84.8h-11.2zm8.4 8.4h-5.6v-5.6h5.6v5.6zM58.8 139.4l7.8-7.9 2 2-9.8 9.8-2-2-3-2.9 2-2zM154.9 66.9l7.9-7.9 2 2-9.9 9.8-1.9-1.9-3-3 2-2zM5.9 118.5l11.8-12.1 2.1 2.1-13.9 13.9-2-1.9-4.4-4.5 2-2zM241.6 139.4l11.8-12.1 2.1 2.1-13.9 13.9-2-1.9-4.4-4.5 1.9-1.9zM197.5 169.8v18.1h18.1v-18.1h-18.1zm15.4 15.3h-12.5v-12.5h12.5v12.5zM21.9 171.2v11.2h11.2v-11.2H21.9zm8.4 8.4h-5.6V174h5.6v5.6z"/>
  </g>
</svg>