<svg xmlns="http://www.w3.org/2000/svg" viewBox="0 0 492 232">
  <path fill="#9e9e9e" d="M12 14v96h124V14H12zm120 92H16V18h116v88z"/>
  <path fill="#6774b7" d="M16 18h116v88H16z" opacity=".3"/>
  <path fill="#9e9e9e" d="M0 2h124v96H0z"/>
  <path fill="#fff" d="M4 6h116v88H4z"/>
  <path fill="#9e9e9e" d="M4 22h116v4H4z"/>
  <g fill="#9e9e9e">
    <path d="M24 26h4v68h-4zM48 26h4v68h-4zM72 26h4v68h-4zM96 26h4v68h-4z"/>
    <path d="M4 70h116v4H4zM4 46h116v4H4z"/>
  </g>
  <g fill="#9e9e9e">
    <path d="M41.13 52l2.83 2.828L32.645 66.14l-2.829-2.828z"/>
    <path d="M32.646 52l11.313 11.313-2.828 2.828-11.314-11.313zM65.13 52l2.829 2.828L56.645 66.14l-2.828-2.828z"/>
    <path d="M56.645 52L67.96 63.312l-2.828 2.828-11.314-11.313zM113.13 51.999l2.829 2.828-11.314 11.314-2.828-2.829z"/>
    <path d="M104.645 51.999l11.314 11.313-2.829 2.829-11.313-11.314z"/>
    <g>
      <path d="M89.13 28l2.829 2.828L80.645 42.14l-2.828-2.828z"/>
      <path d="M80.645 28L91.96 39.312 89.13 42.14 77.817 30.828z"/>
    </g>
    <g>
      <path d="M65.13 76l2.83 2.827-11.314 11.314-2.829-2.828z"/>
      <path d="M56.646 76l11.313 11.313-2.828 2.828-11.314-11.314z"/>
    </g>
    <g>
      <path d="M17.314 28.04l2.828 2.829L8.83 42.183 6 39.354z"/>
      <path d="M8.829 28.04l11.313 11.314-2.828 2.829L6 30.869z"/>
    </g>
  </g>
  <path fill="#9e9e9e" d="M368 136v96h124v-96H368zm120 92H372v-88h116v88z"/>
  <path fill="#6774b7" d="M372 140h116v88H372z" opacity=".3"/>
  <path fill="#9e9e9e" d="M356 122h124v96H356z"/>
  <path fill="#fff" d="M360 126h116v88H360z"/>
  <g>
    <path fill="#9e9e9e" d="M376 146h18v4h-18zM382 168h12v4h-12zM376 190h18v4h-18z"/>
    <path fill="#9e9e9e" d="M402 146h56v4h-56zM402 168h56v4h-56zM402 190h56v4h-56z"/>
  </g>
  <g>
    <path fill="#9e9e9e" d="M238 196c-33.1 0-60-26.9-60-60s26.9-60 60-60 60 26.9 60 60-26.9 60-60 60z"/>
    <path fill="#fff" d="M238 192c-30.9 0-56-25.1-56-56s25.1-56 56-56 56 25.1 56 56-25.1 56-56 56z"/>
    <path fill="#9e9e9e" d="M224 54h28v14h-28z"/>
    <path fill="#e4f2fb" d="M228 58h20v6h-20z"/>
    <path fill="#9e9e9e" d="M236 68h4v8h-4z"/>
    <path fill="#9e9e9e" d="M238 128c-.5 0-1.1.1-1.6.2 0-.1-.1-.2-.1-.3l-17.8-30.1c-.6-1-1.8-1.3-2.7-.7-1 .6-1.3 1.8-.7 2.7l17.8 30.1c-1.7 1.5-2.9 3.7-2.9 6.1 0 4.4 3.6 8 8 8s8-3.6 8-8-3.6-8-8-8zm0 12c-2.2 0-4-1.8-4-4s1.8-4 4-4 4 1.8 4 4-1.8 4-4 4zM198 136c0-11.1 4.6-21.1 12.1-28.2.9-.8.8-2.2-.1-3-.8-.6-1.9-.6-2.6.1-8.2 7.8-13.3 18.9-13.3 31.1 0 5.1.9 9.9 2.5 14.4.4 1.2 1.8 1.7 2.9 1.1.9-.5 1.3-1.5.9-2.4-1.6-4.1-2.4-8.5-2.4-13.1zM210 136c0-7.2 2.9-13.8 7.5-18.6.6-.6.7-1.4.4-2.2v-.1c-.6-1.2-2.2-1.5-3.2-.6-5.4 5.6-8.7 13.1-8.7 21.5 0 3.9.7 7.6 2 11 .3.8 1.2 1.4 2.1 1.3h.1c1.3-.1 2.1-1.4 1.6-2.6-1.2-3-1.8-6.3-1.8-9.7z"/>
  </g>
  <g>
    <path fill="#9e9e9e" d="M304 0h104v56H304z"/>
    <path fill="#fff" d="M308 4h96v48h-96z"/>
    <text fill="#9e9e9e" font-family="SegoeUI-Bold" font-size="30" transform="translate(317.423 39)">
      02:36
    </text>
  </g>
</svg>