<svg xmlns="http://www.w3.org/2000/svg" viewBox="-73 165 464 464">
  <path fill="#e5e7fa" d="M347.5 289.8L305.1 269v352l59.2-296c3.2-14.4-4-28.8-16.8-35.2z"/>
  <g fill="#6979f8">
    <path d="M350.7 250.6l-38.4-19.2c-2.4-19.2-19.2-34.4-39.2-34.4H88.3c-4-18.4-20-32-39.2-32h-32c-19.2 0-36 14.4-39.2 32.8-18.4 3.2-32.8 20-32.8 39.2v352c0 22.4 17.6 40 40 40h288c21.6 0 40-16.8 40-38.4l59.2-296c3.2-17.6-5.6-36-21.6-44zM17.1 181h32c10.4 0 19.2 6.4 22.4 16H-5.3c3.2-9.6 12-16 22.4-16zm280 408c0 13.6-10.4 24-24 24h-88v-24c0-4.8-3.2-8-8-8s-8 3.2-8 8v24h-16v-56c0-4.8-3.2-8-8-8s-8 3.2-8 8v56h-16v-24c0-4.8-3.2-8-8-8s-8 3.2-8 8v24h-80v-24c0-4.8-3.2-8-8-8s-8 3.2-8 8v24h-24c-13.6 0-24-10.4-24-24V237c0-13.6 10.4-24 24-24h88v152c0 13.6-10.4 24-24 24s-24-10.4-24-24V237c0-4.8-3.2-8-8-8s-8 3.2-8 8v128c0 22.4 17.6 40 40 40s40-17.6 40-40V213h184c13.6 0 24 10.4 24 24v352zm59.2-297.6l-43.2 216.8V249.8l30.4 15.2c9.6 4.8 15.2 16 12.8 26.4z"/>
    <path d="M241.1 261h-96c-4.8 0-8 3.2-8 8s3.2 8 8 8h96c4.8 0 8-3.2 8-8s-3.2-8-8-8zM241.1 325h-96c-4.8 0-8 3.2-8 8s3.2 8 8 8h96c4.8 0 8-3.2 8-8s-3.2-8-8-8zM145.1 405h32c4.8 0 8-3.2 8-8s-3.2-8-8-8h-32c-4.8 0-8 3.2-8 8s3.2 8 8 8zM241.1 389h-32c-4.8 0-8 3.2-8 8s3.2 8 8 8h32c4.8 0 8-3.2 8-8s-3.2-8-8-8zM113.1 485h-96c-4.8 0-8 3.2-8 8s3.2 8 8 8h96c4.8 0 8-3.2 8-8s-3.2-8-8-8zM241.1 485h-96c-4.8 0-8 3.2-8 8s3.2 8 8 8h96c4.8 0 8-3.2 8-8s-3.2-8-8-8zM241.1 357h-96c-4.8 0-8 3.2-8 8s3.2 8 8 8h96c4.8 0 8-3.2 8-8s-3.2-8-8-8zM185.1 461c0-4.8-3.2-8-8-8h-160c-4.8 0-8 3.2-8 8s3.2 8 8 8h160c4.8 0 8-3.2 8-8zM241.1 453h-32c-4.8 0-8 3.2-8 8s3.2 8 8 8h32c4.8 0 8-3.2 8-8s-3.2-8-8-8zM145.1 309h32c4.8 0 8-3.2 8-8s-3.2-8-8-8h-32c-4.8 0-8 3.2-8 8s3.2 8 8 8zM241.1 293h-32c-4.8 0-8 3.2-8 8s3.2 8 8 8h32c4.8 0 8-3.2 8-8s-3.2-8-8-8zM241.1 421h-96c-4.8 0-8 3.2-8 8s3.2 8 8 8h96c4.8 0 8-3.2 8-8s-3.2-8-8-8z"/>
  </g>
</svg>